Khula-wt719.83.ufo
<glyph name="exclam.deva" format="1">
  <advance width="881"/>
  <unicode hex="0021"/>
  <outline>
    <contour>
      <point x="558" y="433" type="line"/>
      <point x="323" y="433" type="line"/>
      <point x="277" y="1316" type="line"/>
      <point x="604" y="1316" type="line"/>
    </contour>
    <contour>
      <point x="274" y="132" type="curve" smooth="yes"/>
      <point x="274" y="233"/>
      <point x="332" y="290"/>
      <point x="439" y="290" type="curve" smooth="yes"/>
      <point x="545" y="290"/>
      <point x="602" y="232"/>
      <point x="602" y="132" type="curve" smooth="yes"/>
      <point x="602" y="34"/>
      <point x="541" y="-24"/>
      <point x="439" y="-24" type="curve" smooth="yes"/>
      <point x="337" y="-24"/>
      <point x="274" y="31"/>
    </contour>
  </outline>
</glyph>
<glyph name="exclam" format="1">
  <advance width="671"/>
  <unicode hex="0021"/>
  <outline>
    <contour>
      <point x="453" y="433" type="line"/>
      <point x="218" y="433" type="line"/>
      <point x="172" y="1316" type="line"/>
      <point x="499" y="1316" type="line"/>
    </contour>
    <contour>
      <point x="170" y="132" type="curve" smooth="yes"/>
      <point x="170" y="233"/>
      <point x="227" y="290"/>
      <point x="334" y="290" type="curve" smooth="yes"/>
      <point x="441" y="290"/>
      <point x="497" y="232"/>
      <point x="497" y="132" type="curve" smooth="yes"/>
      <point x="497" y="34"/>
      <point x="436" y="-24"/>
      <point x="334" y="-24" type="curve" smooth="yes"/>
      <point x="233" y="-24"/>
      <point x="170" y="31"/>
    </contour>
  </outline>
</glyph>
<glyph name="quotedbl.deva" format="1">
  <advance width="985"/>
  <unicode hex="0022"/>
  <outline>
    <contour>
      <point x="428" y="1316" type="line"/>
      <point x="391" y="841" type="line"/>
      <point x="201" y="841" type="line"/>
      <point x="164" y="1316" type="line"/>
    </contour>
    <contour>
      <point x="821" y="1316" type="line"/>
      <point x="784" y="841" type="line"/>
      <point x="593" y="841" type="line"/>
      <point x="556" y="1316" type="line"/>
    </contour>
  </outline>
</glyph>
<glyph name="quotedbl" format="1">
  <advance width="968"/>
  <unicode hex="0022"/>
  <outline>
    <contour>
      <point x="421" y="1316" type="line"/>
      <point x="386" y="841" type="line"/>
      <point x="184" y="841" type="line"/>
      <point x="149" y="1316" type="line"/>
    </contour>
    <contour>
      <point x="819" y="1316" type="line"/>
      <point x="784" y="841" type="line"/>
      <point x="581" y="841" type="line"/>
      <point x="546" y="1316" type="line"/>
    </contour>
  </outline>
</glyph>
<glyph name="numbersign.deva" format="1">
  <advance width="1309"/>
  <unicode hex="0023"/>
  <outline>
    <contour>
      <point x="970" y="756" type="line"/>
      <point x="933" y="556" type="line"/>
      <point x="1162" y="556" type="line"/>
      <point x="1162" y="363" type="line"/>
      <point x="897" y="363" type="line"/>
      <point x="828" y="0" type="line"/>
      <point x="623" y="0" type="line"/>
      <point x="692" y="363" type="line"/>
      <point x="503" y="363" type="line"/>
      <point x="436" y="0" type="line"/>
      <point x="232" y="0" type="line"/>
      <point x="299" y="363" type="line"/>
      <point x="86" y="363" type="line"/>
      <point x="86" y="556" type="line"/>
      <point x="337" y="556" type="line"/>
      <point x="375" y="756" type="line"/>
      <point x="150" y="756" type="line"/>
      <point x="150" y="953" type="line"/>
      <point x="411" y="953" type="line"/>
      <point x="479" y="1316" type="line"/>
      <point x="684" y="1316" type="line"/>
      <point x="615" y="953" type="line"/>
      <point x="804" y="953" type="line"/>
      <point x="871" y="1316" type="line"/>
      <point x="1076" y="1316" type="line"/>
      <point x="1007" y="953" type="line"/>
      <point x="1223" y="953" type="line"/>
      <point x="1223" y="756" type="line"/>
    </contour>
    <contour>
      <point x="540" y="556" type="line"/>
      <point x="728" y="556" type="line"/>
      <point x="766" y="756" type="line"/>
      <point x="578" y="756" type="line"/>
    </contour>
  </outline>
</glyph>
<glyph name="numbersign" format="1">
  <advance width="1211"/>
  <unicode hex="0023"/>
  <outline>
    <contour>
      <point x="921" y="756" type="line"/>
      <point x="884" y="556" type="line"/>
      <point x="1113" y="556" type="line"/>
      <point x="1113" y="363" type="line"/>
      <point x="848" y="363" type="line"/>
      <point x="779" y="0" type="line"/>
      <point x="574" y="0" type="line"/>
      <point x="642" y="363" type="line"/>
      <point x="454" y="363" type="line"/>
      <point x="387" y="0" type="line"/>
      <point x="183" y="0" type="line"/>
      <point x="250" y="363" type="line"/>
      <point x="37" y="363" type="line"/>
      <point x="37" y="556" type="line"/>
      <point x="287" y="556" type="line"/>
      <point x="326" y="756" type="line"/>
      <point x="101" y="756" type="line"/>
      <point x="101" y="953" type="line"/>
      <point x="362" y="953" type="line"/>
      <point x="430" y="1316" type="line"/>
      <point x="635" y="1316" type="line"/>
      <point x="566" y="953" type="line"/>
      <point x="755" y="953" type="line"/>
      <point x="822" y="1316" type="line"/>
      <point x="1027" y="1316" type="line"/>
      <point x="958" y="953" type="line"/>
      <point x="1173" y="953" type="line"/>
      <point x="1173" y="756" type="line"/>
    </contour>
    <contour>
      <point x="491" y="556" type="line"/>
      <point x="679" y="556" type="line"/>
      <point x="716" y="756" type="line"/>
      <point x="528" y="756" type="line"/>
    </contour>
  </outline>
</glyph>
<glyph name="percent" format="1">
  <advance width="1578"/>
  <unicode hex="0025"/>
  <outline>
    <contour>
      <point x="277" y="923" type="curve" smooth="yes"/>
      <point x="277" y="759"/>
      <point x="295" y="678"/>
      <point x="363" y="678" type="curve" smooth="yes"/>
      <point x="427" y="678"/>
      <point x="457" y="759"/>
      <point x="457" y="923" type="curve" smooth="yes"/>
      <point x="457" y="1088"/>
      <point x="433" y="1172"/>
      <point x="363" y="1172" type="curve" smooth="yes"/>
      <point x="295" y="1172"/>
      <point x="277" y="1091"/>
    </contour>
    <contour>
      <point x="653" y="923" type="curve" smooth="yes"/>
      <point x="653" y="646"/>
      <point x="557" y="508"/>
      <point x="363" y="508" type="curve" smooth="yes"/>
      <point x="176" y="508"/>
      <point x="77" y="650"/>
      <point x="77" y="923" type="curve" smooth="yes"/>
      <point x="77" y="1206"/>
      <point x="174" y="1335"/>
      <point x="363" y="1335" type="curve" smooth="yes"/>
      <point x="555" y="1335"/>
      <point x="653" y="1192"/>
    </contour>
    <contour>
      <point x="1121" y="400" type="curve" smooth="yes"/>
      <point x="1121" y="229"/>
      <point x="1139" y="151"/>
      <point x="1211" y="151" type="curve" smooth="yes"/>
      <point x="1280" y="151"/>
      <point x="1304" y="221"/>
      <point x="1304" y="400" type="curve" smooth="yes"/>
      <point x="1304" y="572"/>
      <point x="1280" y="639"/>
      <point x="1211" y="639" type="curve" smooth="yes"/>
      <point x="1139" y="639"/>
      <point x="1121" y="565"/>
    </contour>
    <contour>
      <point x="1500" y="400" type="curve" smooth="yes"/>
      <point x="1500" y="126"/>
      <point x="1400" y="-12"/>
      <point x="1206" y="-12" type="curve" smooth="yes"/>
      <point x="1021" y="-12"/>
      <point x="924" y="121"/>
      <point x="924" y="400" type="curve" smooth="yes"/>
      <point x="924" y="674"/>
      <point x="1015" y="811"/>
      <point x="1206" y="811" type="curve" smooth="yes"/>
      <point x="1392" y="811"/>
      <point x="1500" y="682"/>
    </contour>
    <contour>
      <point x="1273" y="1316" type="line"/>
      <point x="543" y="0" type="line"/>
      <point x="311" y="0" type="line"/>
      <point x="1041" y="1316" type="line"/>
    </contour>
  </outline>
</glyph>
<glyph name="ampersand" format="1">
  <advance width="1433"/>
  <unicode hex="0026"/>
  <outline>
    <contour>
      <point x="0" y="0" type="line"/>
      <point x="1433" y="0" type="line"/>
      <point x="1433" y="20" type="line"/>
      <point x="0" y="20" type="line"/>
    </contour>
  </outline>
</glyph>
<glyph name="quotesingle.deva" format="1">
  <advance width="592"/>
  <unicode hex="0027"/>
  <outline>
    <contour>
      <point x="428" y="1316" type="line"/>
      <point x="391" y="841" type="line"/>
      <point x="201" y="841" type="line"/>
      <point x="164" y="1316" type="line"/>
    </contour>
  </outline>
</glyph>
<glyph name="quotesingle" format="1">
  <advance width="605"/>
  <unicode hex="0027"/>
  <outline>
    <contour>
      <point x="439" y="1316" type="line"/>
      <point x="402" y="841" type="line"/>
      <point x="203" y="841" type="line"/>
      <point x="166" y="1316" type="line"/>
    </contour>
  </outline>
</glyph>
<glyph name="parenright.deva" format="1">
  <advance width="791"/>
  <unicode hex="0029"/>
  <outline>
    <contour>
      <point x="653" y="604" type="curve" smooth="yes"/>
      <point x="653" y="272"/>
      <point x="563" y="-10"/>
      <point x="395" y="-206" type="curve"/>
      <point x="148" y="-206" type="line"/>
      <point x="226" y="-100"/>
      <point x="286" y="24"/>
      <point x="327" y="165" type="curve" smooth="yes"/>
      <point x="369" y="305"/>
      <point x="390" y="453"/>
      <point x="390" y="606" type="curve" smooth="yes"/>
      <point x="390" y="916"/>
      <point x="307" y="1206"/>
      <point x="146" y="1428" type="curve"/>
      <point x="395" y="1428" type="line"/>
      <point x="564" y="1224"/>
      <point x="653" y="936"/>
    </contour>
  </outline>
</glyph>
<glyph name="parenright" format="1">
  <advance width="702"/>
  <unicode hex="0029"/>
  <outline>
    <contour>
      <point x="605" y="604" type="curve" smooth="yes"/>
      <point x="605" y="272"/>
      <point x="515" y="-10"/>
      <point x="347" y="-206" type="curve"/>
      <point x="101" y="-206" type="line"/>
      <point x="179" y="-100"/>
      <point x="239" y="24"/>
      <point x="280" y="165" type="curve" smooth="yes"/>
      <point x="321" y="305"/>
      <point x="342" y="453"/>
      <point x="342" y="606" type="curve" smooth="yes"/>
      <point x="342" y="916"/>
      <point x="259" y="1206"/>
      <point x="99" y="1428" type="curve"/>
      <point x="347" y="1428" type="line"/>
      <point x="517" y="1224"/>
      <point x="605" y="936"/>
    </contour>
  </outline>
</glyph>
<glyph name="asterisk.deva" format="1">
  <advance width="1000"/>
  <unicode hex="002A"/>
  <outline>
    <contour>
      <point x="617" y="1400" type="line"/>
      <point x="582" y="1070" type="line"/>
      <point x="915" y="1163" type="line"/>
      <point x="945" y="935" type="line"/>
      <point x="641" y="913" type="line"/>
      <point x="840" y="647" type="line"/>
      <point x="635" y="538" type="line"/>
      <point x="495" y="818" type="line"/>
      <point x="373" y="538" type="line"/>
      <point x="160" y="647" type="line"/>
      <point x="357" y="913" type="line"/>
      <point x="54" y="938" type="line"/>
      <point x="89" y="1163" type="line"/>
      <point x="416" y="1070" type="line"/>
      <point x="380" y="1400" type="line"/>
    </contour>
  </outline>
</glyph>
<glyph name="asterisk" format="1">
  <advance width="998"/>
  <unicode hex="002A"/>
  <outline>
    <contour>
      <point x="619" y="1400" type="line"/>
      <point x="584" y="1072" type="line"/>
      <point x="916" y="1165" type="line"/>
      <point x="946" y="931" type="line"/>
      <point x="645" y="909" type="line"/>
      <point x="842" y="646" type="line"/>
      <point x="633" y="534" type="line"/>
      <point x="495" y="810" type="line"/>
      <point x="374" y="535" type="line"/>
      <point x="156" y="646" type="line"/>
      <point x="351" y="909" type="line"/>
      <point x="51" y="934" type="line"/>
      <point x="88" y="1165" type="line"/>
      <point x="413" y="1072" type="line"/>
      <point x="377" y="1400" type="line"/>
    </contour>
  </outline>
</glyph>
<glyph name="plus.deva" format="1">
  <advance width="1047"/>
  <unicode hex="002B"/>
  <outline>
    <contour>
      <point x="469" y="596" type="line"/>
      <point x="391" y="596" type="line"/>
      <point x="391" y="704" type="line"/>
      <point x="469" y="704" type="line"/>
      <point x="469" y="773" type="line"/>
      <point x="577" y="773" type="line"/>
      <point x="577" y="704" type="line"/>
      <point x="654" y="704" type="line"/>
      <point x="654" y="596" type="line"/>
      <point x="577" y="596" type="line"/>
      <point x="577" y="530" type="line"/>
      <point x="469" y="530" type="line"/>
    </contour>
  </outline>
</glyph>
<glyph name="plus" format="1">
  <advance width="1046"/>
  <unicode hex="002B"/>
  <outline>
    <contour>
      <point x="458" y="586" type="line"/>
      <point x="341" y="586" type="line"/>
      <point x="341" y="714" type="line"/>
      <point x="458" y="714" type="line"/>
      <point x="458" y="824" type="line"/>
      <point x="587" y="824" type="line"/>
      <point x="587" y="714" type="line"/>
      <point x="704" y="714" type="line"/>
      <point x="704" y="586" type="line"/>
      <point x="587" y="586" type="line"/>
      <point x="587" y="480" type="line"/>
      <point x="458" y="480" type="line"/>
    </contour>
  </outline>
</glyph>
<glyph name="comma" format="1">
  <advance width="534"/>
  <unicode hex="002C"/>
  <outline>
    <contour>
      <point x="0" y="0" type="line"/>
      <point x="534" y="0" type="line"/>
      <point x="534" y="20" type="line"/>
      <point x="0" y="20" type="line"/>
    </contour>
  </outline>
</glyph>
<glyph name="hyphen.deva" format="1">
  <advance width="698"/>
  <unicode hex="002D"/>
  <outline>
    <contour>
      <point x="91" y="380" type="line"/>
      <point x="91" y="608" type="line"/>
      <point x="575" y="608" type="line"/>
      <point x="575" y="380" type="line"/>
    </contour>
  </outline>
</glyph>
<glyph name="hyphen" format="1">
  <advance width="697"/>
  <unicode hex="002D"/>
  <outline>
    <contour>
      <point x="105" y="462" type="line"/>
      <point x="105" y="698" type="line"/>
      <point x="592" y="698" type="line"/>
      <point x="592" y="462" type="line"/>
    </contour>
  </outline>
</glyph>
<glyph name="period.deva" format="1">
  <advance width="558"/>
  <unicode hex="002E"/>
  <outline>
    <contour>
      <point x="107" y="129" type="curve" smooth="yes"/>
      <point x="107" y="229"/>
      <point x="164" y="284"/>
      <point x="268" y="284" type="curve" smooth="yes"/>
      <point x="368" y="284"/>
      <point x="426" y="229"/>
      <point x="426" y="129" type="curve" smooth="yes"/>
      <point x="426" y="33"/>
      <point x="366" y="-24"/>
      <point x="268" y="-24" type="curve" smooth="yes"/>
      <point x="170" y="-24"/>
      <point x="107" y="29"/>
    </contour>
  </outline>
</glyph>
<glyph name="period" format="1">
  <advance width="520"/>
  <unicode hex="002E"/>
  <outline>
    <contour>
      <point x="96" y="132" type="curve" smooth="yes"/>
      <point x="96" y="234"/>
      <point x="154" y="290"/>
      <point x="261" y="290" type="curve" smooth="yes"/>
      <point x="365" y="290"/>
      <point x="423" y="234"/>
      <point x="423" y="132" type="curve" smooth="yes"/>
      <point x="423" y="34"/>
      <point x="361" y="-24"/>
      <point x="261" y="-24" type="curve" smooth="yes"/>
      <point x="160" y="-24"/>
      <point x="96" y="31"/>
    </contour>
  </outline>
</glyph>
<glyph name="slash.deva" format="1">
  <advance width="772"/>
  <unicode hex="002F"/>
  <outline>
    <contour>
      <point x="764" y="1329" type="line"/>
      <point x="273" y="-12" type="line"/>
      <point x="12" y="-12" type="line"/>
      <point x="502" y="1329" type="line"/>
    </contour>
  </outline>
</glyph>
<glyph name="slash" format="1">
  <advance width="772"/>
  <unicode hex="002F"/>
  <outline>
    <contour>
      <point x="764" y="1329" type="line"/>
      <point x="273" y="-12" type="line"/>
      <point x="12" y="-12" type="line"/>
      <point x="502" y="1329" type="line"/>
    </contour>
  </outline>
</glyph>
<glyph name="one" format="1">
  <advance width="1072"/>
  <unicode hex="0031"/>
  <outline>
    <contour>
      <point x="785" y="0" type="line"/>
      <point x="490" y="0" type="line"/>
      <point x="490" y="771" type="line"/>
      <point x="490" y="854"/>
      <point x="492" y="930"/>
      <point x="496" y="1000" type="curve"/>
      <point x="477" y="977"/>
      <point x="453" y="953"/>
      <point x="425" y="929" type="curve"/>
      <point x="421" y="925"/>
      <point x="296" y="822"/>
      <point x="256" y="790" type="curve"/>
      <point x="105" y="979" type="line"/>
      <point x="524" y="1316" type="line"/>
      <point x="785" y="1316" type="line"/>
    </contour>
  </outline>
</glyph>
<glyph name="four.deva" format="1">
  <advance width="1052"/>
  <unicode hex="0034"/>
  <outline>
    <contour>
      <point x="1023" y="273" type="line"/>
      <point x="865" y="273" type="line"/>
      <point x="865" y="0" type="line"/>
      <point x="593" y="0" type="line"/>
      <point x="593" y="273" type="line"/>
      <point x="31" y="273" type="line"/>
      <point x="31" y="466" type="line"/>
      <point x="608" y="1316" type="line"/>
      <point x="865" y="1316" type="line"/>
      <point x="865" y="489" type="line"/>
      <point x="1023" y="489" type="line"/>
    </contour>
    <contour>
      <point x="593" y="489" type="line"/>
      <point x="593" y="712" type="line" smooth="yes"/>
      <point x="593" y="749"/>
      <point x="594" y="803"/>
      <point x="597" y="874" type="curve" smooth="yes"/>
      <point x="600" y="945"/>
      <point x="603" y="986"/>
      <point x="605" y="997" type="curve"/>
      <point x="598" y="997" type="line"/>
      <point x="575" y="948"/>
      <point x="548" y="900"/>
      <point x="517" y="853" type="curve" smooth="yes"/>
      <point x="276" y="489" type="line"/>
    </contour>
  </outline>
</glyph>
<glyph name="four" format="1">
  <advance width="1058"/>
  <unicode hex="0034"/>
  <outline>
    <contour>
      <point x="996" y="231" type="line"/>
      <point x="868" y="231" type="line"/>
      <point x="868" y="0" type="line"/>
      <point x="604" y="0" type="line"/>
      <point x="604" y="231" type="line"/>
      <point x="39" y="231" type="line"/>
      <point x="39" y="510" type="line"/>
      <point x="604" y="1323" type="line"/>
      <point x="868" y="1323" type="line"/>
      <point x="868" y="490" type="line"/>
      <point x="996" y="490" type="line"/>
    </contour>
    <contour>
      <point x="604" y="490" type="line"/>
      <point x="604" y="1058" type="line"/>
      <point x="604" y="942"/>
      <point x="605" y="922"/>
      <point x="604" y="999" type="curve"/>
      <point x="594" y="999" type="line"/>
      <point x="530" y="871"/>
      <point x="524" y="839"/>
      <point x="576" y="912" type="curve"/>
      <point x="276" y="490" type="line"/>
    </contour>
  </outline>
</glyph>
<glyph name="five.deva" format="1">
  <advance width="1072"/>
  <unicode hex="0035"/>
  <outline>
    <contour>
      <point x="0" y="0" type="line"/>
      <point x="1072" y="0" type="line"/>
      <point x="1072" y="20" type="line"/>
      <point x="0" y="20" type="line"/>
    </contour>
  </outline>
</glyph>
<glyph name="seven.deva" format="1">
  <advance width="1071"/>
  <unicode hex="0037"/>
  <outline>
    <contour>
      <point x="213" y="0" type="line"/>
      <point x="699" y="1078" type="line"/>
      <point x="75" y="1078" type="line"/>
      <point x="75" y="1315" type="line"/>
      <point x="998" y="1315" type="line"/>
      <point x="998" y="1138" type="line"/>
      <point x="507" y="0" type="line"/>
    </contour>
  </outline>
</glyph>
<glyph name="eight.deva" format="1">
  <advance width="1071"/>
  <unicode hex="0038"/>
  <outline>
    <contour>
      <point x="0" y="0" type="line"/>
      <point x="1071" y="0" type="line"/>
      <point x="1071" y="20" type="line"/>
      <point x="0" y="20" type="line"/>
    </contour>
  </outline>
</glyph>
<glyph name="colon.deva" format="1">
  <advance width="758"/>
  <unicode hex="003A"/>
  <outline>
    <contour>
      <point x="215" y="132" type="curve" smooth="yes"/>
      <point x="215" y="234"/>
      <point x="273" y="290"/>
      <point x="381" y="290" type="curve" smooth="yes"/>
      <point x="484" y="290"/>
      <point x="543" y="234"/>
      <point x="543" y="132" type="curve" smooth="yes"/>
      <point x="543" y="34"/>
      <point x="481" y="-24"/>
      <point x="381" y="-24" type="curve" smooth="yes"/>
      <point x="280" y="-24"/>
      <point x="215" y="31"/>
    </contour>
    <contour>
      <point x="215" y="869" type="curve" smooth="yes"/>
      <point x="215" y="970"/>
      <point x="273" y="1026"/>
      <point x="381" y="1026" type="curve" smooth="yes"/>
      <point x="486" y="1026"/>
      <point x="543" y="970"/>
      <point x="543" y="869" type="curve" smooth="yes"/>
      <point x="543" y="771"/>
      <point x="482" y="713"/>
      <point x="381" y="713" type="curve" smooth="yes"/>
      <point x="277" y="713"/>
      <point x="215" y="768"/>
    </contour>
  </outline>
</glyph>
<glyph name="colon" format="1">
  <advance width="520"/>
  <unicode hex="003A"/>
  <outline>
    <contour>
      <point x="96" y="132" type="curve" smooth="yes"/>
      <point x="96" y="234"/>
      <point x="154" y="290"/>
      <point x="261" y="290" type="curve" smooth="yes"/>
      <point x="365" y="290"/>
      <point x="423" y="234"/>
      <point x="423" y="132" type="curve" smooth="yes"/>
      <point x="423" y="34"/>
      <point x="361" y="-24"/>
      <point x="261" y="-24" type="curve" smooth="yes"/>
      <point x="160" y="-24"/>
      <point x="96" y="31"/>
    </contour>
    <contour>
      <point x="96" y="869" type="curve" smooth="yes"/>
      <point x="96" y="970"/>
      <point x="153" y="1026"/>
      <point x="261" y="1026" type="curve" smooth="yes"/>
      <point x="366" y="1026"/>
      <point x="423" y="970"/>
      <point x="423" y="869" type="curve" smooth="yes"/>
      <point x="423" y="771"/>
      <point x="362" y="713"/>
      <point x="261" y="713" type="curve" smooth="yes"/>
      <point x="157" y="713"/>
      <point x="96" y="768"/>
    </contour>
  </outline>
</glyph>
<glyph name="semicolon.deva" format="1">
  <advance width="795"/>
  <unicode hex="003B"/>
  <outline>
    <contour>
      <point x="566" y="256" type="line"/>
      <point x="579" y="236" type="line"/>
      <point x="523" y="23"/>
      <point x="470" y="-139"/>
      <point x="420" y="-253" type="curve"/>
      <point x="214" y="-253" type="line"/>
      <point x="231" y="-175"/>
      <point x="249" y="-87"/>
      <point x="267" y="13" type="curve" smooth="yes"/>
      <point x="285" y="113"/>
      <point x="298" y="194"/>
      <point x="305" y="256" type="curve"/>
    </contour>
    <contour>
      <point x="257" y="863" type="curve" smooth="yes"/>
      <point x="257" y="961"/>
      <point x="312" y="1016"/>
      <point x="419" y="1016" type="curve" smooth="yes"/>
      <point x="523" y="1016"/>
      <point x="579" y="960"/>
      <point x="579" y="863" type="curve" smooth="yes"/>
      <point x="579" y="765"/>
      <point x="520" y="711"/>
      <point x="419" y="711" type="curve" smooth="yes"/>
      <point x="315" y="711"/>
      <point x="257" y="765"/>
    </contour>
  </outline>
</glyph>
<glyph name="semicolon" format="1">
  <advance width="522"/>
  <unicode hex="003B"/>
  <outline>
    <contour>
      <point x="407" y="256" type="line"/>
      <point x="420" y="236" type="line"/>
      <point x="364" y="23"/>
      <point x="311" y="-139"/>
      <point x="261" y="-253" type="curve"/>
      <point x="55" y="-253" type="line"/>
      <point x="72" y="-175"/>
      <point x="90" y="-87"/>
      <point x="108" y="13" type="curve" smooth="yes"/>
      <point x="126" y="113"/>
      <point x="139" y="194"/>
      <point x="146" y="256" type="curve"/>
    </contour>
    <contour>
      <point x="98" y="863" type="curve" smooth="yes"/>
      <point x="98" y="961"/>
      <point x="153" y="1016"/>
      <point x="260" y="1016" type="curve" smooth="yes"/>
      <point x="364" y="1016"/>
      <point x="420" y="960"/>
      <point x="420" y="863" type="curve" smooth="yes"/>
      <point x="420" y="765"/>
      <point x="361" y="711"/>
      <point x="260" y="711" type="curve" smooth="yes"/>
      <point x="156" y="711"/>
      <point x="98" y="765"/>
    </contour>
  </outline>
</glyph>
<glyph name="less.deva" format="1">
  <advance width="1047"/>
  <unicode hex="003C"/>
  <outline>
    <contour>
      <point x="969" y="181" type="line"/>
      <point x="76" y="576" type="line"/>
      <point x="76" y="707" type="line"/>
      <point x="969" y="1153" type="line"/>
      <point x="969" y="935" type="line"/>
      <point x="358" y="651" type="line"/>
      <point x="969" y="400" type="line"/>
    </contour>
  </outline>
</glyph>
<glyph name="less" format="1">
  <advance width="1046"/>
  <unicode hex="003C"/>
  <outline>
    <contour>
      <point x="970" y="178" type="line"/>
      <point x="74" y="574" type="line"/>
      <point x="74" y="709" type="line"/>
      <point x="970" y="1156" type="line"/>
      <point x="970" y="930" type="line"/>
      <point x="367" y="651" type="line"/>
      <point x="970" y="404" type="line"/>
    </contour>
  </outline>
</glyph>
<glyph name="equal.deva" format="1">
  <advance width="1047"/>
  <unicode hex="003D"/>
  <outline>
    <contour>
      <point x="80" y="747" type="line"/>
      <point x="80" y="946" type="line"/>
      <point x="966" y="946" type="line"/>
      <point x="966" y="747" type="line"/>
    </contour>
    <contour>
      <point x="80" y="352" type="line"/>
      <point x="80" y="552" type="line"/>
      <point x="966" y="552" type="line"/>
      <point x="966" y="352" type="line"/>
    </contour>
  </outline>
</glyph>
<glyph name="equal" format="1">
  <advance width="1046"/>
  <unicode hex="003D"/>
  <outline>
    <contour>
      <point x="78" y="745" type="line"/>
      <point x="78" y="950" type="line"/>
      <point x="968" y="950" type="line"/>
      <point x="968" y="745" type="line"/>
    </contour>
    <contour>
      <point x="78" y="347" type="line"/>
      <point x="78" y="554" type="line"/>
      <point x="968" y="554" type="line"/>
      <point x="968" y="347" type="line"/>
    </contour>
  </outline>
</glyph>
<glyph name="greater.deva" format="1">
  <advance width="1046"/>
  <unicode hex="003E"/>
  <outline>
    <contour>
      <point x="74" y="404" type="line"/>
      <point x="677" y="650" type="line"/>
      <point x="74" y="930" type="line"/>
      <point x="74" y="1156" type="line"/>
      <point x="970" y="709" type="line"/>
      <point x="970" y="574" type="line"/>
      <point x="74" y="178" type="line"/>
    </contour>
  </outline>
</glyph>
<glyph name="greater" format="1">
  <advance width="1046"/>
  <unicode hex="003E"/>
  <outline>
    <contour>
      <point x="74" y="404" type="line"/>
      <point x="677" y="650" type="line"/>
      <point x="74" y="930" type="line"/>
      <point x="74" y="1156" type="line"/>
      <point x="970" y="709" type="line"/>
      <point x="970" y="574" type="line"/>
      <point x="74" y="178" type="line"/>
    </contour>
  </outline>
</glyph>
<glyph name="question.deva" format="1">
  <advance width="1209"/>
  <unicode hex="003F"/>
  <outline>
    <contour>
      <point x="0" y="0" type="line"/>
      <point x="1209" y="0" type="line"/>
      <point x="1209" y="20" type="line"/>
      <point x="0" y="20" type="line"/>
    </contour>
  </outline>
</glyph>
<glyph name="question" format="1">
  <advance width="1043"/>
  <unicode hex="003F"/>
  <outline>
    <contour>
      <point x="0" y="0" type="line"/>
      <point x="1043" y="0" type="line"/>
      <point x="1043" y="20" type="line"/>
      <point x="0" y="20" type="line"/>
    </contour>
  </outline>
</glyph>
<glyph name="A" format="1">
  <advance width="1291"/>
  <unicode hex="0041"/>
  <outline>
    <contour>
      <point x="1401" y="-971" type="line"/>
      <point x="2013" y="322" type="line"/>
      <point x="767" y="1292" type="line"/>
      <point x="479" y="0" type="line"/>
      <point x="-1106" y="-2763" type="line"/>
      <point x="378" y="1321" type="line"/>
      <point x="-307" y="4084" type="line"/>
      <point x="1507" y="0" type="line"/>
    </contour>
    <contour>
      <point x="1794" y="575" type="line"/>
      <point x="338" y="1836" type="line"/>
      <point x="279" y="1994"/>
      <point x="588" y="1200"/>
      <point x="523" y="1432" type="curve"/>
      <point x="515" y="1175"/>
      <point x="494" y="872"/>
      <point x="463" y="521" type="curve"/>
      <point x="497" y="640"/>
      <point x="55" y="-513"/>
      <point x="95" y="-415" type="curve"/>
    </contour>
  </outline>
</glyph>
<glyph name="B" format="1">
  <advance width="1227"/>
  <unicode hex="0042"/>
  <outline>
    <contour>
      <point x="0" y="0" type="line"/>
      <point x="1227" y="0" type="line"/>
      <point x="1227" y="20" type="line"/>
      <point x="0" y="20" type="line"/>
    </contour>
  </outline>
</glyph>
<glyph name="D" format="1">
  <advance width="1350"/>
  <unicode hex="0044"/>
  <outline>
    <contour>
      <point x="1250" y="681" type="curve" smooth="yes"/>
      <point x="1250" y="462"/>
      <point x="1190" y="294"/>
      <point x="1070" y="176" type="curve" smooth="yes"/>
      <point x="950" y="58"/>
      <point x="781" y="0"/>
      <point x="561" y="0" type="curve" smooth="yes"/>
      <point x="154" y="0" type="line"/>
      <point x="154" y="1316" type="line"/>
      <point x="594" y="1316" type="line"/>
      <point x="803" y="1316"/>
      <point x="964" y="1261"/>
      <point x="1078" y="1152" type="curve" smooth="yes"/>
      <point x="1193" y="1042"/>
      <point x="1250" y="885"/>
    </contour>
    <contour>
      <point x="945" y="671" type="curve" smooth="yes"/>
      <point x="945" y="943"/>
      <point x="827" y="1077"/>
      <point x="587" y="1077" type="curve" smooth="yes"/>
      <point x="447" y="1077" type="line"/>
      <point x="447" y="243" type="line"/>
      <point x="559" y="243" type="line"/>
      <point x="821" y="243"/>
      <point x="945" y="384"/>
    </contour>
  </outline>
</glyph>
<glyph name="E" format="1">
  <advance width="1016"/>
  <unicode hex="0045"/>
  <outline>
    <contour>
      <point x="920" y="0" type="line"/>
      <point x="154" y="0" type="line"/>
      <point x="154" y="1316" type="line"/>
      <point x="920" y="1316" type="line"/>
      <point x="920" y="1076" type="line"/>
      <point x="447" y="1076" type="line"/>
      <point x="447" y="802" type="line"/>
      <point x="888" y="802" type="line"/>
      <point x="888" y="564" type="line"/>
      <point x="447" y="564" type="line"/>
      <point x="447" y="243" type="line"/>
      <point x="920" y="243" type="line"/>
    </contour>
  </outline>
</glyph>
<glyph name="F" format="1">
  <advance width="981"/>
  <unicode hex="0046"/>
  <outline>
    <contour>
      <point x="443" y="0" type="line"/>
      <point x="154" y="0" type="line"/>
      <point x="154" y="1316" type="line"/>
      <point x="918" y="1316" type="line"/>
      <point x="918" y="1076" type="line"/>
      <point x="443" y="1076" type="line"/>
      <point x="443" y="754" type="line"/>
      <point x="884" y="754" type="line"/>
      <point x="884" y="515" type="line"/>
      <point x="443" y="515" type="line"/>
    </contour>
  </outline>
</glyph>
<glyph name="G" format="1">
  <advance width="1357"/>
  <unicode hex="0047"/>
  <outline>
    <contour>
      <point x="0" y="0" type="line"/>
      <point x="1357" y="0" type="line"/>
      <point x="1357" y="20" type="line"/>
      <point x="0" y="20" type="line"/>
    </contour>
  </outline>
</glyph>
<glyph name="H" format="1">
  <advance width="1410"/>
  <unicode hex="0048"/>
  <outline>
    <contour>
      <point x="1244" y="0" type="line"/>
      <point x="966" y="0" type="line"/>
      <point x="966" y="568" type="line"/>
      <point x="445" y="568" type="line"/>
      <point x="445" y="0" type="line"/>
      <point x="166" y="0" type="line"/>
      <point x="166" y="1316" type="line"/>
      <point x="445" y="1316" type="line"/>
      <point x="445" y="800" type="line"/>
      <point x="966" y="800" type="line"/>
      <point x="966" y="1316" type="line"/>
      <point x="1244" y="1316" type="line"/>
    </contour>
  </outline>
</glyph>
<glyph name="J" format="1">
  <advance width="569"/>
  <unicode hex="004A"/>
  <outline>
    <contour>
      <point x="29" y="-378" type="curve" smooth="yes"/>
      <point x="-29" y="-378"/>
      <point x="-69" y="-370"/>
      <point x="-98" y="-351" type="curve"/>
      <point x="-98" y="-115" type="line"/>
      <point x="-63" y="-127"/>
      <point x="-21" y="-133"/>
      <point x="33" y="-133" type="curve" smooth="yes"/>
      <point x="98" y="-133"/>
      <point x="140" y="-69"/>
      <point x="140" y="19" type="curve" smooth="yes"/>
      <point x="140" y="1316" type="line"/>
      <point x="420" y="1316" type="line"/>
      <point x="420" y="40" type="line"/>
      <point x="420" y="-202"/>
      <point x="268" y="-378"/>
    </contour>
  </outline>
</glyph>
<glyph name="K" format="1">
  <advance width="1221"/>
  <unicode hex="004B"/>
  <outline>
    <contour>
      <point x="1221" y="0" type="line"/>
      <point x="887" y="0" type="line"/>
      <point x="570" y="548" type="line"/>
      <point x="448" y="463" type="line"/>
      <point x="448" y="0" type="line"/>
      <point x="152" y="0" type="line"/>
      <point x="152" y="1316" type="line"/>
      <point x="448" y="1316" type="line"/>
      <point x="448" y="718" type="line"/>
      <point x="462" y="745"/>
      <point x="523" y="823"/>
      <point x="565" y="882" type="curve"/>
      <point x="898" y="1316" type="line"/>
      <point x="1223" y="1316" type="line"/>
      <point x="780" y="734" type="line"/>
    </contour>
  </outline>
</glyph>
<glyph name="L" format="1">
  <advance width="1037"/>
  <unicode hex="004C"/>
  <outline>
    <contour>
      <point x="154" y="0" type="line"/>
      <point x="154" y="1316" type="line"/>
      <point x="447" y="1316" type="line"/>
      <point x="447" y="241" type="line"/>
      <point x="976" y="241" type="line"/>
      <point x="976" y="0" type="line"/>
    </contour>
  </outline>
</glyph>
<glyph name="M" format="1">
  <advance width="1819"/>
  <unicode hex="004D"/>
  <outline>
    <contour>
      <point x="759" y="0" type="line"/>
      <point x="407" y="1064" type="line"/>
      <point x="400" y="1064" type="line"/>
      <point x="414" y="936"/>
      <point x="422" y="755"/>
      <point x="422" y="525" type="curve" smooth="yes"/>
      <point x="422" y="0" type="line"/>
      <point x="171" y="0" type="line"/>
      <point x="171" y="1316" type="line"/>
      <point x="585" y="1316" type="line"/>
      <point x="897" y="381" type="line"/>
      <point x="908" y="381" type="line"/>
      <point x="1232" y="1316" type="line"/>
      <point x="1649" y="1316" type="line"/>
      <point x="1649" y="0" type="line"/>
      <point x="1371" y="0" type="line"/>
      <point x="1371" y="536" type="line"/>
      <point x="1371" y="690"/>
      <point x="1375" y="867"/>
      <point x="1388" y="1065" type="curve"/>
      <point x="1378" y="1065" type="line"/>
      <point x="1018" y="0" type="line"/>
    </contour>
  </outline>
</glyph>
<glyph name="N" format="1">
  <advance width="1479"/>
  <unicode hex="004E"/>
  <outline>
    <contour>
      <point x="1324" y="0" type="line"/>
      <point x="963" y="0" type="line"/>
      <point x="398" y="995" type="line"/>
      <point x="391" y="995" type="line"/>
      <point x="401" y="850"/>
      <point x="406" y="741"/>
      <point x="406" y="666" type="curve" smooth="yes"/>
      <point x="406" y="0" type="line"/>
      <point x="154" y="0" type="line"/>
      <point x="154" y="1316" type="line"/>
      <point x="515" y="1316" type="line"/>
      <point x="1077" y="330" type="line"/>
      <point x="1083" y="330" type="line"/>
      <point x="1075" y="456"/>
      <point x="1071" y="562"/>
      <point x="1071" y="647" type="curve" smooth="yes"/>
      <point x="1071" y="1316" type="line"/>
      <point x="1324" y="1316" type="line"/>
    </contour>
  </outline>
</glyph>
<glyph name="P" format="1">
  <advance width="1177"/>
  <unicode hex="0050"/>
  <outline>
    <contour>
      <point x="1092" y="919" type="curve" smooth="yes"/>
      <point x="1092" y="634"/>
      <point x="885" y="461"/>
      <point x="506" y="461" type="curve" smooth="yes"/>
      <point x="451" y="461" type="line"/>
      <point x="451" y="0" type="line"/>
      <point x="171" y="0" type="line"/>
      <point x="171" y="1316" type="line"/>
      <point x="551" y="1316" type="line"/>
      <point x="914" y="1316"/>
      <point x="1092" y="1184"/>
    </contour>
    <contour>
      <point x="451" y="703" type="line"/>
      <point x="499" y="703" type="line"/>
      <point x="607" y="703"/>
      <point x="686" y="721"/>
      <point x="737" y="752" type="curve" smooth="yes"/>
      <point x="787" y="785"/>
      <point x="811" y="836"/>
      <point x="811" y="906" type="curve" smooth="yes"/>
      <point x="811" y="1023"/>
      <point x="723" y="1078"/>
      <point x="524" y="1078" type="curve" smooth="yes"/>
      <point x="451" y="1078" type="line"/>
    </contour>
  </outline>
</glyph>
<glyph name="R" format="1">
  <advance width="1214"/>
  <unicode hex="0052"/>
  <outline>
    <contour>
      <point x="447" y="500" type="line"/>
      <point x="447" y="0" type="line"/>
      <point x="154" y="0" type="line"/>
      <point x="154" y="1316" type="line"/>
      <point x="563" y="1316" type="line"/>
      <point x="911" y="1316"/>
      <point x="1081" y="1188"/>
      <point x="1081" y="932" type="curve" smooth="yes"/>
      <point x="1081" y="773"/>
      <point x="1002" y="655"/>
      <point x="844" y="579" type="curve"/>
      <point x="1220" y="0" type="line"/>
      <point x="886" y="0" type="line"/>
      <point x="594" y="500" type="line"/>
    </contour>
    <contour>
      <point x="447" y="725" type="line"/>
      <point x="558" y="725" type="line"/>
      <point x="711" y="725"/>
      <point x="784" y="790"/>
      <point x="784" y="919" type="curve" smooth="yes"/>
      <point x="784" y="1035"/>
      <point x="712" y="1089"/>
      <point x="557" y="1089" type="curve" smooth="yes"/>
      <point x="447" y="1089" type="line"/>
    </contour>
  </outline>
</glyph>
<glyph name="S" format="1">
  <advance width="1015"/>
  <unicode hex="0053"/>
  <outline>
    <contour>
      <point x="942" y="365" type="curve" smooth="yes"/>
      <point x="942" y="246"/>
      <point x="899" y="153"/>
      <point x="814" y="84" type="curve" smooth="yes"/>
      <point x="729" y="16"/>
      <point x="610" y="-18"/>
      <point x="457" y="-18" type="curve" smooth="yes"/>
      <point x="317" y="-18"/>
      <point x="193" y="8"/>
      <point x="85" y="61" type="curve"/>
      <point x="85" y="320" type="line"/>
      <point x="174" y="281"/>
      <point x="249" y="253"/>
      <point x="310" y="236" type="curve" smooth="yes"/>
      <point x="371" y="220"/>
      <point x="428" y="212"/>
      <point x="479" y="212" type="curve" smooth="yes"/>
      <point x="602" y="212"/>
      <point x="669" y="260"/>
      <point x="669" y="352" type="curve" smooth="yes"/>
      <point x="669" y="378"/>
      <point x="662" y="401"/>
      <point x="647" y="421" type="curve" smooth="yes"/>
      <point x="632" y="441"/>
      <point x="611" y="460"/>
      <point x="583" y="479" type="curve" smooth="yes"/>
      <point x="556" y="498"/>
      <point x="499" y="527"/>
      <point x="413" y="568" type="curve" smooth="yes"/>
      <point x="332" y="606"/>
      <point x="272" y="642"/>
      <point x="232" y="677" type="curve" smooth="yes"/>
      <point x="152" y="746"/>
      <point x="100" y="837"/>
      <point x="100" y="960" type="curve" smooth="yes"/>
      <point x="100" y="1077"/>
      <point x="139" y="1168"/>
      <point x="218" y="1235" type="curve" smooth="yes"/>
      <point x="297" y="1302"/>
      <point x="406" y="1335"/>
      <point x="545" y="1335" type="curve" smooth="yes"/>
      <point x="682" y="1335"/>
      <point x="800" y="1301"/>
      <point x="936" y="1242" type="curve"/>
      <point x="846" y="1025" type="line"/>
      <point x="776" y="1054"/>
      <point x="718" y="1074"/>
      <point x="672" y="1085" type="curve" smooth="yes"/>
      <point x="626" y="1096"/>
      <point x="581" y="1102"/>
      <point x="536" y="1102" type="curve" smooth="yes"/>
      <point x="431" y="1102"/>
      <point x="373" y="1049"/>
      <point x="373" y="969" type="curve" smooth="yes"/>
      <point x="373" y="944"/>
      <point x="379" y="923"/>
      <point x="390" y="904" type="curve" smooth="yes"/>
      <point x="401" y="886"/>
      <point x="419" y="868"/>
      <point x="444" y="851" type="curve" smooth="yes"/>
      <point x="469" y="834"/>
      <point x="528" y="804"/>
      <point x="621" y="760" type="curve" smooth="yes"/>
      <point x="744" y="701"/>
      <point x="828" y="641"/>
      <point x="873" y="582" type="curve" smooth="yes"/>
      <point x="919" y="523"/>
      <point x="942" y="451"/>
    </contour>
  </outline>
</glyph>
<glyph name="T" format="1">
  <advance width="1068"/>
  <unicode hex="0054"/>
  <outline>
    <contour>
      <point x="681" y="0" type="line"/>
      <point x="387" y="0" type="line"/>
      <point x="387" y="1073" type="line"/>
      <point x="37" y="1073" type="line"/>
      <point x="37" y="1316" type="line"/>
      <point x="1031" y="1316" type="line"/>
      <point x="1031" y="1073" type="line"/>
      <point x="681" y="1073" type="line"/>
    </contour>
  </outline>
</glyph>
<glyph name="U" format="1">
  <advance width="1393"/>
  <unicode hex="0055"/>
  <outline>
    <contour>
      <point x="1237" y="1316" type="line"/>
      <point x="1237" y="464" type="line"/>
      <point x="1240" y="174"/>
      <point x="1027" y="-22"/>
      <point x="691" y="-18" type="curve"/>
      <point x="522" y="-18"/>
      <point x="390" y="25"/>
      <point x="297" y="112" type="curve" smooth="yes"/>
      <point x="204" y="199"/>
      <point x="157" y="317"/>
      <point x="157" y="468" type="curve" smooth="yes"/>
      <point x="157" y="1316" type="line"/>
      <point x="435" y="1316" type="line"/>
      <point x="435" y="510" type="line" smooth="yes"/>
      <point x="435" y="307"/>
      <point x="510" y="216"/>
      <point x="698" y="216" type="curve" smooth="yes"/>
      <point x="881" y="216"/>
      <point x="958" y="308"/>
      <point x="958" y="512" type="curve" smooth="yes"/>
      <point x="958" y="1316" type="line"/>
    </contour>
  </outline>
</glyph>
<glyph name="V" format="1">
  <advance width="1166"/>
  <unicode hex="0056"/>
  <outline>
    <contour>
      <point x="865" y="1316" type="line"/>
      <point x="1166" y="1316" type="line"/>
      <point x="732" y="0" type="line"/>
      <point x="434" y="0" type="line"/>
      <point x="0" y="1316" type="line"/>
      <point x="296" y="1316" type="line"/>
      <point x="537" y="556" type="line"/>
      <point x="539" y="539"/>
      <point x="554" y="456"/>
      <point x="580" y="311" type="curve"/>
      <point x="623" y="517"/>
      <point x="660" y="670"/>
      <point x="695" y="771" type="curve" smooth="yes"/>
    </contour>
  </outline>
</glyph>
<glyph name="W" format="1">
  <advance width="1782"/>
  <unicode hex="0057"/>
  <outline>
    <contour>
      <point x="1447" y="0" type="line"/>
      <point x="1129" y="0" type="line"/>
      <point x="951" y="691" type="line" smooth="yes"/>
      <point x="944" y="716"/>
      <point x="933" y="766"/>
      <point x="917" y="843" type="curve" smooth="yes"/>
      <point x="902" y="920"/>
      <point x="893" y="972"/>
      <point x="890" y="999" type="curve"/>
      <point x="887" y="966"/>
      <point x="878" y="914"/>
      <point x="863" y="842" type="curve" smooth="yes"/>
      <point x="830" y="689" type="line"/>
      <point x="652" y="0" type="line"/>
      <point x="336" y="0" type="line"/>
      <point x="0" y="1316" type="line"/>
      <point x="274" y="1316" type="line"/>
      <point x="443" y="598" type="line"/>
      <point x="472" y="465"/>
      <point x="494" y="350"/>
      <point x="507" y="253" type="curve"/>
      <point x="510" y="287"/>
      <point x="518" y="340"/>
      <point x="531" y="411" type="curve" smooth="yes"/>
      <point x="544" y="483"/>
      <point x="557" y="539"/>
      <point x="568" y="579" type="curve" smooth="yes"/>
      <point x="760" y="1316" type="line"/>
      <point x="1023" y="1316" type="line"/>
      <point x="1215" y="579" type="line" smooth="yes"/>
      <point x="1224" y="546"/>
      <point x="1234" y="495"/>
      <point x="1246" y="427" type="curve"/>
      <point x="1259" y="360"/>
      <point x="1268" y="302"/>
      <point x="1275" y="253" type="curve"/>
      <point x="1281" y="300"/>
      <point x="1291" y="358"/>
      <point x="1304" y="428" type="curve" smooth="yes"/>
      <point x="1317" y="498"/>
      <point x="1329" y="555"/>
      <point x="1340" y="598" type="curve"/>
      <point x="1507" y="1316" type="line"/>
      <point x="1782" y="1316" type="line"/>
    </contour>
  </outline>
</glyph>
<glyph name="X" format="1">
  <advance width="1235"/>
  <unicode hex="0058"/>
  <outline>
    <contour>
      <point x="1228" y="0" type="line"/>
      <point x="904" y="0" type="line"/>
      <point x="612" y="472" type="line"/>
      <point x="319" y="0" type="line"/>
      <point x="5" y="0" type="line"/>
      <point x="442" y="678" type="line"/>
      <point x="33" y="1316" type="line"/>
      <point x="344" y="1316" type="line"/>
      <point x="614" y="867" type="line"/>
      <point x="880" y="1316" type="line"/>
      <point x="1197" y="1316" type="line"/>
      <point x="783" y="663" type="line"/>
    </contour>
  </outline>
</glyph>
<glyph name="Y" format="1">
  <advance width="1165"/>
  <unicode hex="0059"/>
  <outline>
    <contour>
      <point x="582" y="776" type="line"/>
      <point x="848" y="1316" type="line"/>
      <point x="1165" y="1316" type="line"/>
      <point x="730" y="513" type="line"/>
      <point x="730" y="0" type="line"/>
      <point x="435" y="0" type="line"/>
      <point x="435" y="503" type="line"/>
      <point x="0" y="1316" type="line"/>
      <point x="319" y="1316" type="line"/>
    </contour>
  </outline>
</glyph>
<glyph name="Z" format="1">
  <advance width="1103"/>
  <unicode hex="005A"/>
  <outline>
    <contour>
      <point x="1049" y="0" type="line"/>
      <point x="61" y="0" type="line"/>
      <point x="61" y="189" type="line"/>
      <point x="670" y="1075" type="line"/>
      <point x="76" y="1075" type="line"/>
      <point x="76" y="1316" type="line"/>
      <point x="1033" y="1316" type="line"/>
      <point x="1033" y="1128" type="line"/>
      <point x="423" y="241" type="line"/>
      <point x="1049" y="241" type="line"/>
    </contour>
  </outline>
</glyph>
<glyph name="bracketleft.deva" format="1">
  <advance width="601"/>
  <unicode hex="005B"/>
  <outline>
    <contour>
      <point x="557" y="-303" type="line"/>
      <point x="121" y="-303" type="line"/>
      <point x="121" y="1339" type="line"/>
      <point x="557" y="1339" type="line"/>
      <point x="557" y="1148" type="line"/>
      <point x="358" y="1148" type="line"/>
      <point x="358" y="-111" type="line"/>
      <point x="557" y="-111" type="line"/>
    </contour>
  </outline>
</glyph>
<glyph name="bracketleft" format="1">
  <advance width="601"/>
  <unicode hex="005B"/>
  <outline>
    <contour>
      <point x="556" y="-218" type="line"/>
      <point x="119" y="-218" type="line"/>
      <point x="119" y="1428" type="line"/>
      <point x="556" y="1428" type="line"/>
      <point x="556" y="1230" type="line"/>
      <point x="363" y="1230" type="line"/>
      <point x="363" y="-20" type="line"/>
      <point x="556" y="-20" type="line"/>
    </contour>
  </outline>
</glyph>
<glyph name="backslash.deva" format="1">
  <advance width="764"/>
  <unicode hex="005C"/>
  <outline>
    <contour>
      <point x="262" y="1328" type="line"/>
      <point x="753" y="-11" type="line"/>
      <point x="501" y="-11" type="line"/>
      <point x="11" y="1328" type="line"/>
    </contour>
  </outline>
</glyph>
<glyph name="backslash" format="1">
  <advance width="772"/>
  <unicode hex="005C"/>
  <outline>
    <contour>
      <point x="271" y="1329" type="line"/>
      <point x="762" y="-12" type="line"/>
      <point x="500" y="-12" type="line"/>
      <point x="10" y="1329" type="line"/>
    </contour>
  </outline>
</glyph>
<glyph name="bracketright.deva" format="1">
  <advance width="601"/>
  <unicode hex="005D"/>
  <outline>
    <contour>
      <point x="43" y="-111" type="line"/>
      <point x="243" y="-111" type="line"/>
      <point x="243" y="1148" type="line"/>
      <point x="43" y="1148" type="line"/>
      <point x="43" y="1339" type="line"/>
      <point x="479" y="1339" type="line"/>
      <point x="479" y="-303" type="line"/>
      <point x="43" y="-303" type="line"/>
    </contour>
  </outline>
</glyph>
<glyph name="bracketright" format="1">
  <advance width="601"/>
  <unicode hex="005D"/>
  <outline>
    <contour>
      <point x="43" y="-20" type="line"/>
      <point x="237" y="-20" type="line"/>
      <point x="237" y="1230" type="line"/>
      <point x="43" y="1230" type="line"/>
      <point x="43" y="1428" type="line"/>
      <point x="481" y="1428" type="line"/>
      <point x="481" y="-218" type="line"/>
      <point x="43" y="-218" type="line"/>
    </contour>
  </outline>
</glyph>
<glyph name="asciicircum.deva" format="1">
  <advance width="888"/>
  <unicode hex="005E"/>
  <outline>
    <contour>
      <point x="-29" y="477" type="line"/>
      <point x="303" y="1326" type="line"/>
      <point x="451" y="1326" type="line"/>
      <point x="911" y="477" type="line"/>
      <point x="676" y="477" type="line"/>
      <point x="385" y="1059" type="line"/>
      <point x="206" y="477" type="line"/>
    </contour>
  </outline>
</glyph>
<glyph name="asciicircum" format="1">
  <advance width="888"/>
  <unicode hex="005E"/>
  <outline>
    <contour>
      <point x="-29" y="477" type="line"/>
      <point x="303" y="1326" type="line"/>
      <point x="451" y="1326" type="line"/>
      <point x="911" y="477" type="line"/>
      <point x="676" y="477" type="line"/>
      <point x="385" y="1059" type="line"/>
      <point x="206" y="477" type="line"/>
    </contour>
  </outline>
</glyph>
<glyph name="underscore.deva" format="1">
  <advance width="892"/>
  <unicode hex="005F"/>
  <outline>
    <contour>
      <point x="896" y="-323" type="line"/>
      <point x="-4" y="-323" type="line"/>
      <point x="-4" y="-134" type="line"/>
      <point x="896" y="-134" type="line"/>
    </contour>
  </outline>
</glyph>
<glyph name="underscore" format="1">
  <advance width="892"/>
  <unicode hex="005F"/>
  <outline>
    <contour>
      <point x="896" y="-323" type="line"/>
      <point x="-4" y="-323" type="line"/>
      <point x="-4" y="-134" type="line"/>
      <point x="896" y="-134" type="line"/>
    </contour>
  </outline>
</glyph>
<glyph name="grave" format="1">
  <advance width="1094"/>
  <unicode hex="0060"/>
  <outline>
    <contour>
      <point x="643" y="1241" type="line"/>
      <point x="612" y="1261"/>
      <point x="551" y="1293"/>
      <point x="489" y="1336" type="curve"/>
      <point x="414" y="1391"/>
      <point x="348" y="1442"/>
      <point x="292" y="1488" type="curve"/>
      <point x="279" y="1501"/>
      <point x="270" y="1526"/>
      <point x="265" y="1532" type="curve"/>
      <point x="561" y="1536" type="line"/>
      <point x="584" y="1504"/>
      <point x="660" y="1451"/>
      <point x="730" y="1376" type="curve"/>
      <point x="734" y="1370"/>
      <point x="781" y="1314"/>
      <point x="791" y="1300" type="curve" smooth="yes"/>
      <point x="802" y="1287"/>
      <point x="812" y="1255"/>
      <point x="822" y="1244" type="curve"/>
    </contour>
  </outline>
</glyph>
<glyph name="a" format="1">
  <advance width="1110"/>
  <unicode hex="0061"/>
  <outline>
    <contour>
      <point x="0" y="0" type="line"/>
      <point x="1110" y="0" type="line"/>
      <point x="1110" y="20" type="line"/>
      <point x="0" y="20" type="line"/>
    </contour>
  </outline>
</glyph>
<glyph name="c" format="1">
  <advance width="879"/>
  <unicode hex="0063"/>
  <outline>
    <contour>
      <point x="551" y="-18" type="curve" smooth="yes"/>
      <point x="400" y="-18"/>
      <point x="286" y="26"/>
      <point x="207" y="114" type="curve" smooth="yes"/>
      <point x="132" y="200"/>
      <point x="95" y="326"/>
      <point x="95" y="495" type="curve" smooth="yes"/>
      <point x="95" y="667"/>
      <point x="133" y="796"/>
      <point x="205" y="886" type="curve" smooth="yes"/>
      <point x="279" y="974"/>
      <point x="394" y="1019"/>
      <point x="549" y="1019" type="curve" smooth="yes"/>
      <point x="520" y="1019"/>
      <point x="499" y="1035"/>
      <point x="483" y="1064" type="curve" smooth="yes"/>
      <point x="629" y="1033"/>
      <point x="793" y="1162"/>
      <point x="877" y="1118" type="curve"/>
      <point x="1054" y="1060"/>
      <point x="1065" y="638"/>
      <point x="1197" y="638" type="curve"/>
      <point x="1498" y="721"/>
      <point x="1493" y="1098"/>
      <point x="1308" y="1681" type="curve" smooth="yes"/>
      <point x="686" y="1958"/>
      <point x="312" y="1777"/>
      <point x="185" y="1146" type="curve" smooth="yes"/>
      <point x="55" y="551"/>
      <point x="179" y="214"/>
      <point x="541" y="214" type="curve" smooth="yes"/>
      <point x="608" y="214"/>
      <point x="696" y="237"/>
      <point x="806" y="281" type="curve"/>
      <point x="806" y="43" type="line"/>
      <point x="734" y="3"/>
      <point x="649" y="-18"/>
    </contour>
  </outline>
</glyph>
<glyph name="e" format="1">
  <advance width="1107"/>
  <unicode hex="0065"/>
  <outline>
    <contour>
      <point x="602" y="-18" type="curve" smooth="yes"/>
      <point x="439" y="-18"/>
      <point x="313" y="27"/>
      <point x="221" y="116" type="curve" smooth="yes"/>
      <point x="130" y="207"/>
      <point x="85" y="333"/>
      <point x="85" y="497" type="curve" smooth="yes"/>
      <point x="85" y="665"/>
      <point x="127" y="796"/>
      <point x="211" y="888" type="curve" smooth="yes"/>
      <point x="296" y="981"/>
      <point x="414" y="1028"/>
      <point x="566" y="1028" type="curve" smooth="yes"/>
      <point x="818" y="1028"/>
      <point x="968" y="900"/>
      <point x="990" y="667" type="curve" smooth="yes"/>
      <point x="1013" y="642"/>
      <point x="1024" y="501"/>
      <point x="1024" y="460" type="curve" smooth="yes"/>
      <point x="589" y="431" type="line"/>
      <point x="592" y="351"/>
      <point x="439" y="304"/>
      <point x="533" y="304" type="curve"/>
      <point x="578" y="233"/>
      <point x="653" y="199"/>
      <point x="750" y="207" type="curve" smooth="yes"/>
      <point x="819" y="215"/>
      <point x="890" y="236"/>
      <point x="964" y="270" type="curve"/>
      <point x="964" y="54" type="line"/>
      <point x="910" y="26"/>
      <point x="855" y="8"/>
      <point x="800" y="-2" type="curve" smooth="yes"/>
      <point x="744" y="-13"/>
      <point x="679" y="-18"/>
    </contour>
    <contour>
      <point x="575" y="823" type="curve" smooth="yes"/>
      <point x="469" y="823"/>
      <point x="396" y="754"/>
      <point x="385" y="621" type="curve"/>
      <point x="753" y="621" type="line"/>
      <point x="752" y="748"/>
      <point x="686" y="823"/>
    </contour>
  </outline>
</glyph>
<glyph name="f" format="1">
  <advance width="776"/>
  <unicode hex="0066"/>
  <outline>
    <contour>
      <point x="762" y="805" type="line"/>
      <point x="467" y="805" type="line"/>
      <point x="467" y="0" type="line"/>
      <point x="189" y="0" type="line"/>
      <point x="189" y="805" type="line"/>
      <point x="26" y="805" type="line"/>
      <point x="26" y="907" type="line"/>
      <point x="189" y="1005" type="line"/>
      <point x="189" y="1016" type="line"/>
      <point x="189" y="1262"/>
      <point x="346" y="1410"/>
      <point x="583" y="1410" type="curve" smooth="yes"/>
      <point x="631" y="1410"/>
      <point x="706" y="1396"/>
      <point x="813" y="1364" type="curve"/>
      <point x="734" y="1154" type="line"/>
      <point x="658" y="1182"/>
      <point x="604" y="1195"/>
      <point x="576" y="1195" type="curve" smooth="yes"/>
      <point x="522" y="1195"/>
      <point x="467" y="1133"/>
      <point x="467" y="1010" type="curve" smooth="yes"/>
      <point x="467" y="1003" type="line"/>
      <point x="762" y="1003" type="line"/>
    </contour>
  </outline>
</glyph>
<glyph name="h" format="1">
  <advance width="1223"/>
  <unicode hex="0068"/>
  <outline>
    <contour>
      <point x="806" y="0" type="line"/>
      <point x="806" y="646" type="line"/>
      <point x="806" y="732"/>
      <point x="757" y="795"/>
      <point x="640" y="795" type="curve" smooth="yes"/>
      <point x="485" y="795"/>
      <point x="423" y="703"/>
      <point x="423" y="466" type="curve" smooth="yes"/>
      <point x="423" y="0" type="line"/>
      <point x="145" y="0" type="line"/>
      <point x="145" y="1400" type="line"/>
      <point x="423" y="1400" type="line"/>
      <point x="423" y="1020" type="line"/>
      <point x="423" y="862"/>
      <point x="427" y="994"/>
      <point x="412" y="892" type="curve"/>
      <point x="425" y="892" type="line"/>
      <point x="455" y="941"/>
      <point x="578" y="1016"/>
      <point x="663" y="1016" type="curve" smooth="yes"/>
      <point x="944" y="1016"/>
      <point x="1085" y="927"/>
      <point x="1085" y="649" type="curve" smooth="yes"/>
      <point x="1085" y="0" type="line"/>
    </contour>
  </outline>
</glyph>
<glyph name="i" format="1">
  <advance width="558"/>
  <unicode hex="0069"/>
  <outline>
    <contour>
      <point x="423" y="0" type="line"/>
      <point x="134" y="0" type="line"/>
      <point x="134" y="1010" type="line"/>
      <point x="423" y="1010" type="line"/>
    </contour>
    <contour>
      <point x="124" y="1267" type="curve" smooth="yes"/>
      <point x="124" y="1362"/>
      <point x="173" y="1406"/>
      <point x="280" y="1406" type="curve" smooth="yes"/>
      <point x="386" y="1406"/>
      <point x="437" y="1360"/>
      <point x="437" y="1267" type="curve" smooth="yes"/>
      <point x="437" y="1175"/>
      <point x="382" y="1130"/>
      <point x="280" y="1130" type="curve" smooth="yes"/>
      <point x="178" y="1130"/>
      <point x="124" y="1175"/>
    </contour>
  </outline>
</glyph>
<glyph name="j" format="1">
  <advance width="568"/>
  <unicode hex="006A"/>
  <outline>
    <contour>
      <point x="52" y="-443" type="curve" smooth="yes"/>
      <point x="-24" y="-443"/>
      <point x="-86" y="-435"/>
      <point x="-125" y="-420" type="curve"/>
      <point x="-125" y="-207" type="line"/>
      <point x="-84" y="-219"/>
      <point x="-39" y="-225"/>
      <point x="9" y="-225" type="curve" smooth="yes"/>
      <point x="113" y="-225"/>
      <point x="145" y="-178"/>
      <point x="145" y="-76" type="curve" smooth="yes"/>
      <point x="145" y="1003" type="line"/>
      <point x="423" y="1003" type="line"/>
      <point x="423" y="-69" type="line"/>
      <point x="423" y="-336"/>
      <point x="310" y="-443"/>
    </contour>
    <contour>
      <point x="136" y="1262" type="curve" smooth="yes"/>
      <point x="136" y="1353"/>
      <point x="210" y="1389"/>
      <point x="288" y="1389" type="curve" smooth="yes"/>
      <point x="359" y="1389"/>
      <point x="437" y="1354"/>
      <point x="437" y="1262" type="curve" smooth="yes"/>
      <point x="437" y="1163"/>
      <point x="359" y="1135"/>
      <point x="288" y="1135" type="curve" smooth="yes"/>
      <point x="210" y="1135"/>
      <point x="136" y="1173"/>
    </contour>
  </outline>
</glyph>
<glyph name="k" format="1">
  <advance width="1138"/>
  <unicode hex="006B"/>
  <outline>
    <contour>
      <point x="415" y="552" type="line"/>
      <point x="452" y="610"/>
      <point x="489" y="662"/>
      <point x="526" y="706" type="curve" smooth="yes"/>
      <point x="782" y="1010" type="line"/>
      <point x="1108" y="1010" type="line"/>
      <point x="741" y="580" type="line"/>
      <point x="1133" y="0" type="line"/>
      <point x="799" y="0" type="line"/>
      <point x="536" y="396" type="line"/>
      <point x="423" y="306" type="line"/>
      <point x="423" y="0" type="line"/>
      <point x="132" y="0" type="line"/>
      <point x="132" y="1400" type="line"/>
      <point x="423" y="1400" type="line"/>
      <point x="423" y="791" type="line"/>
      <point x="423" y="715"/>
      <point x="417" y="636"/>
      <point x="407" y="552" type="curve"/>
    </contour>
  </outline>
</glyph>
<glyph name="l" format="1">
  <advance width="556"/>
  <unicode hex="006C"/>
  <outline>
    <contour>
      <point x="422" y="0" type="line"/>
      <point x="132" y="0" type="line"/>
      <point x="132" y="1400" type="line"/>
      <point x="422" y="1400" type="line"/>
    </contour>
  </outline>
</glyph>
<glyph name="m" format="1">
  <advance width="1796"/>
  <unicode hex="006D"/>
  <outline>
    <contour>
      <point x="1389" y="0" type="line"/>
      <point x="1389" y="586" type="line"/>
      <point x="1389" y="732"/>
      <point x="1342" y="803"/>
      <point x="1238" y="803" type="curve" smooth="yes"/>
      <point x="1101" y="803"/>
      <point x="1039" y="709"/>
      <point x="1039" y="503" type="curve" smooth="yes"/>
      <point x="1039" y="0" type="line"/>
      <point x="761" y="0" type="line"/>
      <point x="761" y="586" type="line"/>
      <point x="761" y="732"/>
      <point x="716" y="803"/>
      <point x="613" y="803" type="curve" smooth="yes"/>
      <point x="474" y="803"/>
      <point x="413" y="708"/>
      <point x="413" y="472" type="curve" smooth="yes"/>
      <point x="413" y="0" type="line"/>
      <point x="135" y="0" type="line"/>
      <point x="135" y="1008" type="line"/>
      <point x="348" y="1008" type="line"/>
      <point x="385" y="878" type="line"/>
      <point x="401" y="878" type="line"/>
      <point x="455" y="972"/>
      <point x="563" y="1026"/>
      <point x="693" y="1026" type="curve" smooth="yes"/>
      <point x="842" y="1026"/>
      <point x="945" y="977"/>
      <point x="1000" y="880" type="curve"/>
      <point x="1020" y="880" type="line"/>
      <point x="1078" y="970"/>
      <point x="1190" y="1026"/>
      <point x="1321" y="1026" type="curve" smooth="yes"/>
      <point x="1555" y="1026"/>
      <point x="1667" y="908"/>
      <point x="1667" y="656" type="curve" smooth="yes"/>
      <point x="1667" y="0" type="line"/>
    </contour>
  </outline>
</glyph>
<glyph name="n" format="1">
  <advance width="1197"/>
  <unicode hex="006E"/>
  <outline>
    <contour>
      <point x="790" y="0" type="line"/>
      <point x="790" y="586" type="line"/>
      <point x="790" y="731"/>
      <point x="740" y="803"/>
      <point x="629" y="803" type="curve" smooth="yes"/>
      <point x="554" y="803"/>
      <point x="499" y="778"/>
      <point x="464" y="728" type="curve" smooth="yes"/>
      <point x="430" y="678"/>
      <point x="413" y="592"/>
      <point x="413" y="472" type="curve" smooth="yes"/>
      <point x="413" y="0" type="line"/>
      <point x="135" y="0" type="line"/>
      <point x="135" y="1008" type="line"/>
      <point x="348" y="1008" type="line"/>
      <point x="385" y="878" type="line"/>
      <point x="401" y="878" type="line"/>
      <point x="461" y="975"/>
      <point x="573" y="1026"/>
      <point x="711" y="1026" type="curve" smooth="yes"/>
      <point x="940" y="1026"/>
      <point x="1068" y="898"/>
      <point x="1068" y="656" type="curve" smooth="yes"/>
      <point x="1068" y="0" type="line"/>
    </contour>
  </outline>
</glyph>
<glyph name="o" format="1">
  <advance width="1141"/>
  <unicode hex="006F"/>
  <outline>
    <contour>
      <point x="363" y="505" type="curve" smooth="yes"/>
      <point x="363" y="305"/>
      <point x="424" y="202"/>
      <point x="571" y="202" type="curve" smooth="yes"/>
      <point x="718" y="202"/>
      <point x="778" y="305"/>
      <point x="778" y="505" type="curve" smooth="yes"/>
      <point x="778" y="704"/>
      <point x="717" y="804"/>
      <point x="570" y="804" type="curve" smooth="yes"/>
      <point x="423" y="804"/>
      <point x="363" y="705"/>
    </contour>
    <contour>
      <point x="1058" y="505" type="curve"/>
      <point x="1058" y="341"/>
      <point x="1015" y="213"/>
      <point x="928" y="120" type="curve" smooth="yes"/>
      <point x="842" y="28"/>
      <point x="722" y="-18"/>
      <point x="568" y="-18" type="curve"/>
      <point x="278" y="-21"/>
      <point x="79" y="187"/>
      <point x="83" y="505" type="curve"/>
      <point x="83" y="669"/>
      <point x="126" y="797"/>
      <point x="211" y="888" type="curve" smooth="yes"/>
      <point x="297" y="979"/>
      <point x="418" y="1025"/>
      <point x="573" y="1025" type="curve"/>
      <point x="864" y="1029"/>
      <point x="1063" y="821"/>
    </contour>
  </outline>
</glyph>
<glyph name="p" format="1">
  <advance width="1196"/>
  <unicode hex="0070"/>
  <outline>
    <contour>
      <point x="690" y="-18" type="curve" smooth="yes"/>
      <point x="610" y="-18"/>
      <point x="501" y="7"/>
      <point x="423" y="77" type="curve"/>
      <point x="402" y="77" type="line"/>
      <point x="423" y="-103"/>
      <point x="431" y="-116"/>
      <point x="431" y="-273" type="curve" smooth="yes"/>
      <point x="425" y="-179"/>
      <point x="423" y="-1334"/>
      <point x="423" y="-1223" type="curve"/>
      <point x="-41" y="-443" type="line"/>
      <point x="145" y="3975" type="line"/>
      <point x="523" y="1003" type="line"/>
      <point x="431" y="585" type="line"/>
      <point x="417" y="876" type="line"/>
      <point x="652" y="1210"/>
      <point x="951" y="1349"/>
      <point x="1360" y="1349" type="curve" smooth="yes"/>
      <point x="1624" y="1129"/>
      <point x="1711" y="880"/>
      <point x="1623" y="604" type="curve" smooth="yes"/>
      <point x="1290" y="329"/>
      <point x="1104" y="310"/>
      <point x="1104" y="504" type="curve" smooth="yes"/>
      <point x="1104" y="340"/>
      <point x="1070" y="212"/>
      <point x="997" y="120" type="curve" smooth="yes"/>
      <point x="928" y="29"/>
      <point x="825" y="-18"/>
    </contour>
    <contour>
      <point x="629" y="2584" type="curve" smooth="yes"/>
      <point x="-412" y="2584"/>
      <point x="-911" y="1930"/>
      <point x="-920" y="615" type="curve" smooth="yes"/>
      <point x="-920" y="15"/>
      <point x="-702" y="-389"/>
      <point x="-269" y="-389" type="curve"/>
      <point x="-31" y="-818"/>
      <point x="216" y="-1060"/>
      <point x="469" y="-1113" type="curve" smooth="yes"/>
      <point x="722" y="-1164"/>
      <point x="1007" y="-1043"/>
      <point x="1323" y="-748" type="curve" smooth="yes"/>
      <point x="1586" y="-748"/>
      <point x="1793" y="-583"/>
      <point x="1941" y="-369" type="curve" smooth="yes"/>
      <point x="2093" y="164"/>
      <point x="2112" y="691"/>
      <point x="2006" y="1201" type="curve" smooth="yes"/>
      <point x="1899" y="2094"/>
      <point x="1411" y="2584"/>
    </contour>
  </outline>
</glyph>
<glyph name="r" format="1">
  <advance width="831"/>
  <unicode hex="0072"/>
  <outline>
    <contour>
      <point x="693" y="1028" type="curve" smooth="yes"/>
      <point x="727" y="1028"/>
      <point x="759" y="1025"/>
      <point x="791" y="1020" type="curve"/>
      <point x="802" y="997" type="line"/>
      <point x="793" y="1000"/>
      <point x="759" y="746"/>
      <point x="749" y="746" type="curve" smooth="yes"/>
      <point x="708" y="751"/>
      <point x="661" y="746"/>
      <point x="609" y="730" type="curve" smooth="yes"/>
      <point x="480" y="713"/>
      <point x="422" y="636"/>
      <point x="422" y="510" type="curve" smooth="yes"/>
      <point x="422" y="0" type="line"/>
      <point x="131" y="0" type="line"/>
      <point x="131" y="1010" type="line"/>
      <point x="350" y="1010" type="line"/>
      <point x="394" y="844" type="line"/>
      <point x="409" y="844" type="line"/>
      <point x="440" y="902"/>
      <point x="482" y="948"/>
      <point x="533" y="980" type="curve" smooth="yes"/>
      <point x="584" y="1012"/>
      <point x="638" y="1028"/>
    </contour>
  </outline>
</glyph>
<glyph name="s" format="1">
  <advance width="916"/>
  <unicode hex="0073"/>
  <outline>
    <contour>
      <point x="846" y="299" type="curve" smooth="yes"/>
      <point x="846" y="92"/>
      <point x="702" y="-18"/>
      <point x="417" y="-18" type="curve" smooth="yes"/>
      <point x="270" y="-18"/>
      <point x="174" y="3"/>
      <point x="85" y="40" type="curve"/>
      <point x="85" y="267" type="line"/>
      <point x="136" y="243"/>
      <point x="193" y="223"/>
      <point x="257" y="207" type="curve" smooth="yes"/>
      <point x="321" y="191"/>
      <point x="377" y="183"/>
      <point x="426" y="183" type="curve" smooth="yes"/>
      <point x="525" y="183"/>
      <point x="575" y="212"/>
      <point x="575" y="269" type="curve" smooth="yes"/>
      <point x="575" y="331"/>
      <point x="521" y="354"/>
      <point x="357" y="427" type="curve"/>
      <point x="280" y="460"/>
      <point x="223" y="490"/>
      <point x="186" y="517" type="curve"/>
      <point x="114" y="573"/>
      <point x="83" y="640"/>
      <point x="83" y="744" type="curve" smooth="yes"/>
      <point x="83" y="923"/>
      <point x="228" y="1025"/>
      <point x="481" y="1025" type="curve" smooth="yes"/>
      <point x="602" y="1025"/>
      <point x="720" y="999"/>
      <point x="835" y="946" type="curve"/>
      <point x="752" y="748" type="line"/>
      <point x="652" y="791"/>
      <point x="568" y="822"/>
      <point x="477" y="822" type="curve" smooth="yes"/>
      <point x="396" y="822"/>
      <point x="355" y="800"/>
      <point x="355" y="756" type="curve" smooth="yes"/>
      <point x="355" y="731"/>
      <point x="368" y="710"/>
      <point x="394" y="692" type="curve" smooth="yes"/>
      <point x="421" y="674"/>
      <point x="478" y="647"/>
      <point x="566" y="612" type="curve" smooth="yes"/>
      <point x="645" y="580"/>
      <point x="702" y="550"/>
      <point x="739" y="522" type="curve" smooth="yes"/>
      <point x="812" y="467"/>
      <point x="846" y="398"/>
    </contour>
  </outline>
</glyph>
<glyph name="t" format="1">
  <advance width="787"/>
  <unicode hex="0074"/>
  <outline>
    <contour>
      <point x="577" y="212" type="curve" smooth="yes"/>
      <point x="625" y="212"/>
      <point x="681" y="224"/>
      <point x="736" y="242" type="curve"/>
      <point x="736" y="30" type="line"/>
      <point x="698" y="13"/>
      <point x="659" y="1"/>
      <point x="619" y="-7" type="curve" smooth="yes"/>
      <point x="580" y="-14"/>
      <point x="537" y="-18"/>
      <point x="490" y="-18" type="curve" smooth="yes"/>
      <point x="267" y="-18"/>
      <point x="170" y="92"/>
      <point x="170" y="320" type="curve" smooth="yes"/>
      <point x="170" y="791" type="line"/>
      <point x="42" y="791" type="line"/>
      <point x="42" y="912" type="line"/>
      <point x="193" y="1008" type="line"/>
      <point x="276" y="1221" type="line"/>
      <point x="462" y="1221" type="line"/>
      <point x="462" y="1010" type="line"/>
      <point x="723" y="1010" type="line"/>
      <point x="723" y="791" type="line"/>
      <point x="462" y="791" type="line"/>
      <point x="462" y="338" type="line"/>
      <point x="462" y="255"/>
      <point x="502" y="212"/>
    </contour>
  </outline>
</glyph>
<glyph name="v" format="1">
  <advance width="1063"/>
  <unicode hex="0076"/>
  <outline>
    <contour>
      <point x="384" y="0" type="line"/>
      <point x="0" y="1010" type="line"/>
      <point x="303" y="1010" type="line"/>
      <point x="488" y="412" type="line"/>
      <point x="505" y="362"/>
      <point x="523" y="298"/>
      <point x="525" y="258" type="curve"/>
      <point x="532" y="258" type="line"/>
      <point x="534" y="289"/>
      <point x="545" y="333"/>
      <point x="563" y="389" type="curve" smooth="yes"/>
      <point x="574" y="420"/>
      <point x="723" y="906"/>
      <point x="761" y="1010" type="curve"/>
      <point x="1063" y="1010" type="line"/>
      <point x="679" y="0" type="line"/>
    </contour>
  </outline>
</glyph>
<glyph name="w" format="1">
  <advance width="1645"/>
  <unicode hex="0077"/>
  <outline>
    <contour>
      <point x="1002" y="0" type="line"/>
      <point x="890" y="422" type="line"/>
      <point x="885" y="436"/>
      <point x="855" y="551"/>
      <point x="803" y="757" type="curve"/>
      <point x="794" y="757" type="line"/>
      <point x="719" y="433"/>
      <point x="694" y="322"/>
      <point x="639" y="146" type="curve"/>
      <point x="147" y="-1364" type="line"/>
      <point x="68" y="0" type="line"/>
      <point x="-579" y="3048" type="line"/>
      <point x="489" y="1003" type="line"/>
      <point x="687" y="239"/>
      <point x="639" y="-345"/>
      <point x="741" y="-747" type="curve"/>
      <point x="843" y="-1146"/>
      <point x="574" y="-232"/>
      <point x="589" y="-371" type="curve"/>
      <point x="512" y="-78"/>
      <point x="483" y="137"/>
      <point x="460" y="275" type="curve"/>
      <point x="482" y="383"/>
      <point x="502" y="519"/>
      <point x="549" y="686" type="curve"/>
      <point x="522" y="564"/>
      <point x="505" y="502"/>
      <point x="503" y="499" type="curve"/>
      <point x="642" y="1003" type="line"/>
      <point x="974" y="1003" type="line"/>
      <point x="1116" y="497" type="line"/>
      <point x="1131" y="474"/>
      <point x="1146" y="399"/>
      <point x="1164" y="279" type="curve"/>
      <point x="1173" y="279" type="line"/>
      <point x="1172" y="266"/>
      <point x="1140" y="148"/>
      <point x="1081" y="-68" type="curve"/>
      <point x="1115" y="71"/>
      <point x="995" y="-355"/>
      <point x="1351" y="1003" type="curve"/>
      <point x="1642" y="1003" type="line"/>
      <point x="1354" y="0" type="line"/>
    </contour>
  </outline>
</glyph>
<glyph name="x" format="1">
  <advance width="1090"/>
  <unicode hex="0078"/>
  <outline>
    <contour>
      <point x="359" y="515" type="line"/>
      <point x="36" y="1008" type="line"/>
      <point x="352" y="1008" type="line"/>
      <point x="545" y="687" type="line"/>
      <point x="740" y="1008" type="line"/>
      <point x="1056" y="1008" type="line"/>
      <point x="728" y="515" type="line"/>
      <point x="1071" y="0" type="line"/>
      <point x="755" y="0" type="line"/>
      <point x="545" y="343" type="line"/>
      <point x="334" y="0" type="line"/>
      <point x="18" y="0" type="line"/>
    </contour>
  </outline>
</glyph>
<glyph name="y" format="1">
  <advance width="1059"/>
  <unicode hex="0079"/>
  <outline>
    <contour>
      <point x="-2" y="1010" type="line"/>
      <point x="305" y="1010" type="line"/>
      <point x="486" y="434" type="line"/>
      <point x="506" y="371"/>
      <point x="520" y="316"/>
      <point x="526" y="269" type="curve"/>
      <point x="533" y="269" type="line"/>
      <point x="543" y="319"/>
      <point x="558" y="374"/>
      <point x="578" y="433" type="curve"/>
      <point x="762" y="1010" type="line"/>
      <point x="1059" y="1010" type="line"/>
      <point x="648" y="-87" type="line"/>
      <point x="600" y="-214"/>
      <point x="544" y="-303"/>
      <point x="481" y="-354" type="curve" smooth="yes"/>
      <point x="412" y="-413"/>
      <point x="323" y="-443"/>
      <point x="209" y="-443" type="curve" smooth="yes"/>
      <point x="165" y="-443"/>
      <point x="119" y="-438"/>
      <point x="72" y="-427" type="curve"/>
      <point x="72" y="-196" type="line"/>
      <point x="104" y="-204"/>
      <point x="141" y="-208"/>
      <point x="181" y="-208" type="curve" smooth="yes"/>
      <point x="219" y="-208"/>
      <point x="251" y="-197"/>
      <point x="277" y="-174" type="curve" smooth="yes"/>
      <point x="300" y="-158"/>
      <point x="321" y="-133"/>
      <point x="340" y="-101" type="curve" smooth="yes"/>
      <point x="359" y="-69"/>
      <point x="377" y="-32"/>
      <point x="394" y="11" type="curve"/>
    </contour>
  </outline>
</glyph>
<glyph name="z" format="1">
  <advance width="912"/>
  <unicode hex="007A"/>
  <outline>
    <contour>
      <point x="857" y="0" type="line"/>
      <point x="53" y="0" type="line"/>
      <point x="53" y="170" type="line"/>
      <point x="511" y="788" type="line"/>
      <point x="80" y="788" type="line"/>
      <point x="80" y="1010" type="line"/>
      <point x="840" y="1010" type="line"/>
      <point x="840" y="823" type="line"/>
      <point x="396" y="222" type="line"/>
      <point x="857" y="222" type="line"/>
    </contour>
  </outline>
</glyph>
<glyph name="braceleft.deva" format="1">
  <advance width="378"/>
  <unicode hex="007B"/>
  <outline>
    <contour>
      <point x="379" y="-125" type="line"/>
      <point x="379" y="-248"/>
      <point x="468" y="-282"/>
      <point x="525" y="-283" type="curve"/>
      <point x="525" y="-501" type="line"/>
      <point x="65" y="-492"/>
      <point x="-161" y="-212"/>
      <point x="-59" y="266" type="curve" smooth="yes"/>
      <point x="44" y="171"/>
      <point x="96" y="868"/>
      <point x="96" y="671" type="curve"/>
      <point x="96" y="1058"/>
      <point x="-142" y="576"/>
      <point x="-587" y="576" type="curve"/>
      <point x="-587" y="318"/>
      <point x="-443" y="579"/>
      <point x="-154" y="575" type="curve"/>
      <point x="328" y="584"/>
      <point x="529" y="598"/>
      <point x="529" y="953" type="curve" smooth="yes"/>
      <point x="222" y="947"/>
      <point x="96" y="1678"/>
      <point x="96" y="1429" type="curve"/>
      <point x="96" y="1716"/>
      <point x="195" y="1283"/>
      <point x="396" y="1441" type="curve" smooth="yes"/>
      <point x="597" y="1227"/>
      <point x="640" y="1115"/>
      <point x="525" y="1107" type="curve"/>
      <point x="525" y="890" type="line"/>
      <point x="444" y="892"/>
      <point x="379" y="836"/>
      <point x="379" y="742" type="curve" smooth="yes"/>
      <point x="379" y="493" type="line"/>
      <point x="379" y="420"/>
      <point x="276" y="332"/>
      <point x="110" y="310" type="curve"/>
      <point x="110" y="296" type="line"/>
      <point x="278" y="275"/>
      <point x="379" y="185"/>
      <point x="379" y="96" type="curve" smooth="yes"/>
    </contour>
  </outline>
</glyph>
<glyph name="braceleft" format="1">
  <advance width="567"/>
  <unicode hex="007B"/>
  <outline>
    <contour>
      <point x="487" y="184" type="line"/>
      <point x="487" y="61"/>
      <point x="576" y="27"/>
      <point x="633" y="26" type="curve"/>
      <point x="633" y="-192" type="line"/>
      <point x="173" y="-183"/>
      <point x="-53" y="97"/>
      <point x="50" y="575" type="curve" smooth="yes"/>
      <point x="152" y="481"/>
      <point x="204" y="1177"/>
      <point x="204" y="981" type="curve" smooth="yes"/>
      <point x="204" y="1367"/>
      <point x="-34" y="885"/>
      <point x="-479" y="885" type="curve"/>
      <point x="-479" y="627"/>
      <point x="-335" y="888"/>
      <point x="-46" y="884" type="curve"/>
      <point x="436" y="893"/>
      <point x="637" y="907"/>
      <point x="637" y="1262" type="curve"/>
      <point x="330" y="1256"/>
      <point x="204" y="1987"/>
      <point x="204" y="1738" type="curve" smooth="yes"/>
      <point x="204" y="2026"/>
      <point x="303" y="1592"/>
      <point x="504" y="1750" type="curve"/>
      <point x="705" y="1536"/>
      <point x="748" y="1424"/>
      <point x="633" y="1416" type="curve"/>
      <point x="633" y="1199" type="line"/>
      <point x="552" y="1201"/>
      <point x="487" y="1145"/>
      <point x="487" y="1051" type="curve" smooth="yes"/>
      <point x="487" y="802" type="line"/>
      <point x="487" y="730"/>
      <point x="385" y="641"/>
      <point x="218" y="619" type="curve"/>
      <point x="218" y="605" type="line"/>
      <point x="387" y="584"/>
      <point x="487" y="494"/>
      <point x="487" y="405" type="curve" smooth="yes"/>
    </contour>
  </outline>
</glyph>
<glyph name="bar" format="1">
  <advance width="962"/>
  <unicode hex="007C"/>
  <outline>
    <contour>
      <point x="378" y="1400" type="line"/>
      <point x="583" y="1400" type="line"/>
      <point x="583" y="-415" type="line"/>
      <point x="378" y="-415" type="line"/>
    </contour>
  </outline>
</glyph>
<glyph name="braceright.deva" format="1">
  <advance width="378"/>
  <unicode hex="007D"/>
  <outline>
    <contour>
      <point x="614" y="835" type="line"/>
      <point x="200" y="600"/>
      <point x="-114" y="686"/>
      <point x="-356" y="1035" type="curve" smooth="yes"/>
      <point x="-356" y="1840" type="line"/>
      <point x="-114" y="2146"/>
      <point x="-217" y="2185"/>
      <point x="-638" y="1869" type="curve"/>
      <point x="-638" y="1682" type="line"/>
      <point x="-298" y="1423"/>
      <point x="116" y="1211"/>
      <point x="660" y="1032" type="curve" smooth="yes"/>
      <point x="854" y="871"/>
      <point x="953" y="479"/>
      <point x="953" y="195" type="curve" smooth="yes"/>
      <point x="518" y="195"/>
      <point x="276" y="-457"/>
      <point x="276" y="-80" type="curve"/>
      <point x="276" y="-439"/>
      <point x="483" y="59"/>
      <point x="965" y="50" type="curve"/>
      <point x="965" y="301"/>
      <point x="835" y="25"/>
      <point x="532" y="32" type="curve"/>
      <point x="84" y="32"/>
      <point x="-157" y="31"/>
      <point x="-157" y="-356" type="curve" smooth="yes"/>
      <point x="131" y="-351"/>
      <point x="276" y="-1061"/>
      <point x="276" y="-803" type="curve"/>
      <point x="276" y="-1372"/>
      <point x="-117" y="-1069"/>
      <point x="-822" y="-1078" type="curve"/>
      <point x="-822" y="-884"/>
      <point x="-770" y="-348"/>
      <point x="-665" y="-254" type="curve"/>
      <point x="-151" y="-150"/>
      <point x="242" y="55"/>
      <point x="487" y="436" type="curve" smooth="yes"/>
      <point x="487" y="1090" type="line"/>
      <point x="133" y="1507"/>
      <point x="194" y="1594"/>
      <point x="614" y="1409" type="curve"/>
    </contour>
  </outline>
</glyph>
<glyph name="asciitilde" format="1">
  <advance width="1046"/>
  <unicode hex="007E"/>
  <outline>
    <contour>
      <point x="283" y="601" type="curve" smooth="yes"/>
      <point x="218" y="601"/>
      <point x="144" y="562"/>
      <point x="74" y="492" type="curve"/>
      <point x="74" y="708" type="line"/>
      <point x="135" y="773"/>
      <point x="212" y="806"/>
      <point x="305" y="806" type="curve" smooth="yes"/>
      <point x="346" y="806"/>
      <point x="385" y="802"/>
      <point x="421" y="793" type="curve" smooth="yes"/>
      <point x="457" y="785"/>
      <point x="502" y="770"/>
      <point x="555" y="748" type="curve" smooth="yes"/>
      <point x="634" y="715"/>
      <point x="700" y="699"/>
      <point x="762" y="699" type="curve" smooth="yes"/>
      <point x="823" y="699"/>
      <point x="904" y="739"/>
      <point x="970" y="808" type="curve"/>
      <point x="970" y="591" type="line"/>
      <point x="908" y="526"/>
      <point x="831" y="493"/>
      <point x="739" y="493" type="curve" smooth="yes"/>
      <point x="682" y="493"/>
      <point x="633" y="502"/>
      <point x="580" y="520" type="curve" smooth="yes"/>
      <point x="541" y="532"/>
      <point x="499" y="547"/>
      <point x="456" y="563" type="curve" smooth="yes"/>
      <point x="393" y="588"/>
      <point x="336" y="601"/>
    </contour>
  </outline>
</glyph>
<glyph name="copyright" format="1">
  <advance width="1534"/>
  <unicode hex="00A9"/>
  <outline>
    <contour>
      <point x="798" y="890" type="curve" smooth="yes"/>
      <point x="689" y="890"/>
      <point x="643" y="796"/>
      <point x="643" y="654" type="curve" smooth="yes"/>
      <point x="643" y="501"/>
      <point x="687" y="422"/>
      <point x="806" y="422" type="curve" smooth="yes"/>
      <point x="857" y="422"/>
      <point x="932" y="435"/>
      <point x="1021" y="464" type="curve"/>
      <point x="1021" y="286" type="line"/>
      <point x="973" y="268"/>
      <point x="931" y="239"/>
      <point x="803" y="239" type="curve" smooth="yes"/>
      <point x="552" y="239"/>
      <point x="418" y="408"/>
      <point x="418" y="671" type="curve" smooth="yes"/>
      <point x="418" y="796"/>
      <point x="451" y="896"/>
      <point x="515" y="964" type="curve" smooth="yes"/>
      <point x="582" y="1036"/>
      <point x="674" y="1073"/>
      <point x="798" y="1073" type="curve" smooth="yes"/>
      <point x="887" y="1073"/>
      <point x="969" y="1051"/>
      <point x="1052" y="1005" type="curve"/>
      <point x="963" y="834" type="line"/>
      <point x="885" y="873"/>
      <point x="831" y="890"/>
    </contour>
    <contour>
      <point x="90" y="658" type="curve" smooth="yes"/>
      <point x="90" y="778"/>
      <point x="120" y="890"/>
      <point x="180" y="995" type="curve" smooth="yes"/>
      <point x="240" y="1100"/>
      <point x="322" y="1183"/>
      <point x="427" y="1244" type="curve" smooth="yes"/>
      <point x="532" y="1305"/>
      <point x="646" y="1335"/>
      <point x="767" y="1335" type="curve" smooth="yes"/>
      <point x="887" y="1335"/>
      <point x="999" y="1305"/>
      <point x="1104" y="1245" type="curve" smooth="yes"/>
      <point x="1209" y="1185"/>
      <point x="1292" y="1102"/>
      <point x="1353" y="997" type="curve" smooth="yes"/>
      <point x="1414" y="892"/>
      <point x="1444" y="779"/>
      <point x="1444" y="658" type="curve" smooth="yes"/>
      <point x="1444" y="540"/>
      <point x="1415" y="429"/>
      <point x="1356" y="325" type="curve" smooth="yes"/>
      <point x="1298" y="221"/>
      <point x="1216" y="138"/>
      <point x="1111" y="75" type="curve" smooth="yes"/>
      <point x="1006" y="13"/>
      <point x="892" y="-18"/>
      <point x="767" y="-18" type="curve" smooth="yes"/>
      <point x="642" y="-18"/>
      <point x="527" y="13"/>
      <point x="422" y="75" type="curve" smooth="yes"/>
      <point x="317" y="137"/>
      <point x="236" y="220"/>
      <point x="177" y="324" type="curve" smooth="yes"/>
      <point x="119" y="428"/>
      <point x="90" y="539"/>
    </contour>
    <contour>
      <point x="205" y="658" type="curve" smooth="yes"/>
      <point x="205" y="560"/>
      <point x="231" y="467"/>
      <point x="281" y="376" type="curve"/>
      <point x="334" y="289"/>
      <point x="401" y="220"/>
      <point x="489" y="170" type="curve"/>
      <point x="580" y="123"/>
      <point x="672" y="99"/>
      <point x="767" y="99" type="curve" smooth="yes"/>
      <point x="865" y="99"/>
      <point x="960" y="125"/>
      <point x="1044" y="175" type="curve" smooth="yes"/>
      <point x="1132" y="225"/>
      <point x="1199" y="289"/>
      <point x="1249" y="373" type="curve" smooth="yes"/>
      <point x="1302" y="458"/>
      <point x="1326" y="554"/>
      <point x="1326" y="658" type="curve" smooth="yes"/>
      <point x="1326" y="762"/>
      <point x="1300" y="859"/>
      <point x="1243" y="944" type="curve"/>
      <point x="1189" y="1032"/>
      <point x="1120" y="1099"/>
      <point x="1037" y="1144" type="curve" smooth="yes"/>
      <point x="954" y="1193"/>
      <point x="864" y="1215"/>
      <point x="767" y="1215" type="curve" smooth="yes"/>
      <point x="664" y="1215"/>
      <point x="571" y="1191"/>
      <point x="486" y="1141" type="curve" smooth="yes"/>
      <point x="402" y="1091"/>
      <point x="335" y="1022"/>
      <point x="282" y="942" type="curve" smooth="yes"/>
      <point x="229" y="861"/>
      <point x="205" y="763"/>
    </contour>
  </outline>
</glyph>
<glyph name="multiply.deva" format="1">
  <advance width="1046"/>
  <unicode hex="00D7"/>
  <outline>
    <contour>
      <point x="502" y="777" type="line"/>
      <point x="363" y="916" type="line"/>
      <point x="379" y="935" type="line"/>
      <point x="644" y="671" type="line"/>
      <point x="788" y="810" type="line"/>
      <point x="807" y="793" type="line"/>
      <point x="540" y="526" type="line"/>
      <point x="680" y="384" type="line"/>
      <point x="662" y="366" type="line"/>
      <point x="394" y="632" type="line"/>
      <point x="254" y="493" type="line"/>
      <point x="239" y="511" type="line"/>
    </contour>
  </outline>
</glyph>
<glyph name="multiply" format="1">
  <advance width="1046"/>
  <unicode hex="00D7"/>
  <outline>
    <contour>
      <point x="502" y="777" type="line"/>
      <point x="363" y="916" type="line"/>
      <point x="379" y="935" type="line"/>
      <point x="644" y="671" type="line"/>
      <point x="788" y="810" type="line"/>
      <point x="807" y="793" type="line"/>
      <point x="540" y="526" type="line"/>
      <point x="680" y="384" type="line"/>
      <point x="662" y="366" type="line"/>
      <point x="394" y="632" type="line"/>
      <point x="254" y="493" type="line"/>
      <point x="239" y="511" type="line"/>
    </contour>
  </outline>
</glyph>
<glyph name="divide.deva" format="1">
  <advance width="1046"/>
  <unicode hex="00F7"/>
  <outline>
    <contour>
      <point x="74" y="547" type="line"/>
      <point x="74" y="752" type="line"/>
      <point x="970" y="752" type="line"/>
      <point x="970" y="547" type="line"/>
    </contour>
    <contour>
      <point x="394" y="310" type="curve" smooth="yes"/>
      <point x="394" y="401"/>
      <point x="438" y="450"/>
      <point x="522" y="450" type="curve" smooth="yes"/>
      <point x="604" y="450"/>
      <point x="650" y="400"/>
      <point x="650" y="310" type="curve" smooth="yes"/>
      <point x="650" y="223"/>
      <point x="598" y="171"/>
      <point x="522" y="171" type="curve" smooth="yes"/>
      <point x="444" y="171"/>
      <point x="394" y="220"/>
    </contour>
    <contour>
      <point x="394" y="990" type="curve" smooth="yes"/>
      <point x="394" y="1080"/>
      <point x="438" y="1129"/>
      <point x="522" y="1129" type="curve" smooth="yes"/>
      <point x="604" y="1129"/>
      <point x="650" y="1079"/>
      <point x="650" y="990" type="curve" smooth="yes"/>
      <point x="650" y="902"/>
      <point x="598" y="850"/>
      <point x="522" y="850" type="curve" smooth="yes"/>
      <point x="444" y="850"/>
      <point x="394" y="900"/>
    </contour>
  </outline>
</glyph>
<glyph name="invertedcandrabindu" format="1">
  <unicode hex="0900"/>
  <outline>
    <component base="candrabindudeva" xScale="-1.0" yScale="-1.0" xOffset="-819" yOffset="3143"/>
    <contour>
      <point x="-493" y="1289" type="move" name="_top"/>
    </contour>
  </outline>
</glyph>
<glyph name="anusvaradeva" format="1">
  <advance width="0"/>
  <unicode hex="0902"/>
  <outline>
    <contour>
      <point x="-344" y="1686" type="curve" smooth="yes"/>
      <point x="-245" y="1686"/>
      <point x="-202" y="1620"/>
      <point x="-202" y="1554" type="curve" smooth="yes"/>
      <point x="-202" y="1489"/>
      <point x="-245" y="1422"/>
      <point x="-344" y="1422" type="curve" smooth="yes"/>
      <point x="-438" y="1422"/>
      <point x="-487" y="1486"/>
      <point x="-487" y="1554" type="curve" smooth="yes"/>
      <point x="-487" y="1621"/>
      <point x="-440" y="1686"/>
    </contour>
    <contour>
      <point x="49" y="8" type="move" name="x12"/>
    </contour>
    <contour>
      <point x="-424" y="1282" type="move" name="_mark0"/>
    </contour>
  </outline>
</glyph>
<glyph name="adeva" format="1">
  <advance width="1668"/>
  <unicode hex="0905"/>
  <outline>
    <contour>
      <point x="309" y="601" type="line"/>
      <point x="263" y="816" type="line"/>
      <point x="273" y="816" type="line"/>
      <point x="544" y="830"/>
      <point x="611" y="896"/>
      <point x="611" y="984" type="curve" smooth="yes"/>
      <point x="611" y="1046"/>
      <point x="560" y="1084"/>
      <point x="469" y="1084" type="curve" smooth="yes"/>
      <point x="381" y="1084"/>
      <point x="297" y="1057"/>
      <point x="193" y="1000" type="curve"/>
      <point x="126" y="1219" type="line"/>
      <point x="225" y="1266"/>
      <point x="334" y="1297"/>
      <point x="481" y="1297" type="curve" smooth="yes"/>
      <point x="723" y="1297"/>
      <point x="862" y="1160"/>
      <point x="862" y="962" type="curve" smooth="yes"/>
      <point x="862" y="755"/>
      <point x="683" y="621"/>
      <point x="330" y="602" type="curve" smooth="yes"/>
    </contour>
    <contour>
      <point x="665" y="795" type="line"/>
      <point x="811" y="727"/>
      <point x="918" y="619"/>
      <point x="918" y="444" type="curve" smooth="yes"/>
      <point x="918" y="260"/>
      <point x="769" y="109"/>
      <point x="531" y="109" type="curve" smooth="yes"/>
      <point x="356" y="109"/>
      <point x="218" y="165"/>
      <point x="77" y="260" type="curve"/>
      <point x="134" y="470" type="line"/>
      <point x="256" y="381"/>
      <point x="362" y="339"/>
      <point x="471" y="339" type="curve" smooth="yes"/>
      <point x="591" y="339"/>
      <point x="655" y="401"/>
      <point x="655" y="493" type="curve" smooth="yes"/>
      <point x="655" y="569"/>
      <point x="600" y="627"/>
      <point x="504" y="665" type="curve"/>
    </contour>
    <contour>
      <point x="732" y="687" type="line"/>
      <point x="795" y="664"/>
      <point x="859" y="654"/>
      <point x="944" y="654" type="curve" smooth="yes"/>
      <point x="1034" y="654"/>
      <point x="1150" y="682"/>
      <point x="1214" y="738" type="curve"/>
      <point x="1214" y="470" type="line"/>
      <point x="1180" y="459"/>
      <point x="1094" y="445"/>
      <point x="1027" y="445" type="curve" smooth="yes"/>
      <point x="936" y="445"/>
      <point x="865" y="454"/>
      <point x="774" y="467" type="curve"/>
    </contour>
    <contour>
      <point x="1177" y="1133" type="line"/>
      <point x="1463" y="1133" type="line"/>
      <point x="1463" y="0" type="line"/>
      <point x="1177" y="0" type="line"/>
    </contour>
    <contour>
      <point x="1698" y="1096" type="line"/>
      <point x="993" y="1096" type="line"/>
      <point x="993" y="1289" type="line"/>
      <point x="1698" y="1289" type="line"/>
    </contour>
  </outline>
</glyph>
<glyph name="ideva" format="1">
  <advance width="1100"/>
  <unicode hex="0907"/>
  <outline>
    <contour>
      <point x="553" y="151" type="curve" smooth="yes"/>
      <point x="854" y="-169" type="line"/>
      <point x="665" y="-270" type="line"/>
      <point x="336" y="91" type="line"/>
      <point x="471" y="19" type="line"/>
      <point x="215" y="19"/>
      <point x="123" y="110"/>
      <point x="123" y="190" type="curve" smooth="yes"/>
      <point x="123" y="261"/>
      <point x="180" y="319"/>
      <point x="270" y="319" type="curve" smooth="yes"/>
      <point x="353" y="319"/>
      <point x="442" y="269"/>
    </contour>
    <contour>
      <point x="619" y="1121" type="line"/>
      <point x="892" y="1121" type="line"/>
      <point x="892" y="758" type="line"/>
      <point x="485" y="758" type="line"/>
      <point x="384" y="758"/>
      <point x="350" y="718"/>
      <point x="351" y="671" type="curve" smooth="yes"/>
      <point x="351" y="625"/>
      <point x="384" y="594"/>
      <point x="465" y="559" type="curve"/>
      <point x="371" y="572" type="line"/>
      <point x="476" y="616"/>
      <point x="549" y="634"/>
      <point x="669" y="634" type="curve" smooth="yes"/>
      <point x="870" y="634"/>
      <point x="1000" y="515"/>
      <point x="1000" y="346" type="curve" smooth="yes"/>
      <point x="1000" y="182"/>
      <point x="816" y="21"/>
      <point x="510" y="21" type="curve"/>
      <point x="469" y="223" type="line"/>
      <point x="622" y="223"/>
      <point x="730" y="276"/>
      <point x="730" y="345" type="curve" smooth="yes"/>
      <point x="730" y="396"/>
      <point x="689" y="425"/>
      <point x="637" y="425" type="curve" smooth="yes"/>
      <point x="569" y="425"/>
      <point x="493" y="406"/>
      <point x="415" y="380" type="curve"/>
      <point x="395" y="379" type="line"/>
      <point x="168" y="477"/>
      <point x="88" y="588"/>
      <point x="88" y="721" type="curve" smooth="yes"/>
      <point x="88" y="842"/>
      <point x="179" y="947"/>
      <point x="414" y="947" type="curve" smooth="yes"/>
      <point x="680" y="947" type="line"/>
      <point x="619" y="888" type="line"/>
    </contour>
    <contour>
      <point x="1115" y="1096" type="line"/>
      <point x="-17" y="1096" type="line"/>
      <point x="-17" y="1288" type="line"/>
      <point x="1115" y="1288" type="line"/>
    </contour>
    <contour>
      <point x="647" y="1282" type="move" name="mark0"/>
    </contour>
    <contour>
      <point x="2" y="8" type="move" name="x51"/>
    </contour>
  </outline>
</glyph>
<glyph name="udeva" format="1">
  <advance width="1107"/>
  <unicode hex="0909"/>
  <outline>
    <contour>
      <point x="321" y="567" type="line"/>
      <point x="269" y="793" type="line"/>
      <point x="290" y="794" type="line"/>
      <point x="577" y="809"/>
      <point x="650" y="883"/>
      <point x="650" y="974" type="curve" smooth="yes"/>
      <point x="650" y="1040"/>
      <point x="614" y="1086"/>
      <point x="505" y="1111" type="curve"/>
      <point x="592" y="1265" type="line"/>
      <point x="793" y="1229"/>
      <point x="908" y="1131"/>
      <point x="908" y="942" type="curve" smooth="yes"/>
      <point x="908" y="746"/>
      <point x="740" y="590"/>
      <point x="343" y="569" type="curve" smooth="yes"/>
    </contour>
    <contour>
      <point x="-30" y="1096" type="line"/>
      <point x="-30" y="1289" type="line"/>
      <point x="1137" y="1289" type="line"/>
      <point x="1137" y="1096" type="line"/>
    </contour>
    <contour>
      <point x="687" y="761" type="line"/>
      <point x="878" y="686"/>
      <point x="996" y="538"/>
      <point x="996" y="367" type="curve" smooth="yes"/>
      <point x="996" y="159"/>
      <point x="842" y="12"/>
      <point x="574" y="12" type="curve" smooth="yes"/>
      <point x="392" y="12"/>
      <point x="211" y="76"/>
      <point x="51" y="185" type="curve"/>
      <point x="123" y="403" type="line"/>
      <point x="254" y="307"/>
      <point x="403" y="250"/>
      <point x="520" y="250" type="curve" smooth="yes"/>
      <point x="646" y="250"/>
      <point x="722" y="314"/>
      <point x="722" y="410" type="curve" smooth="yes"/>
      <point x="722" y="497"/>
      <point x="653" y="585"/>
      <point x="513" y="619" type="curve"/>
    </contour>
    <contour>
      <point x="530" y="1289" type="move" name="top"/>
    </contour>
  </outline>
</glyph>
<glyph name="uudeva" format="1">
  <advance width="1613"/>
  <unicode hex="090A"/>
  <outline>
    <contour>
      <point x="899" y="371" type="curve"/>
      <point x="757" y="639" type="line"/>
      <point x="855" y="700"/>
      <point x="982" y="751"/>
      <point x="1109" y="751" type="curve" smooth="yes"/>
      <point x="1369" y="751"/>
      <point x="1530" y="589"/>
      <point x="1530" y="376" type="curve" smooth="yes"/>
      <point x="1530" y="242"/>
      <point x="1479" y="115"/>
      <point x="1405" y="18" type="curve"/>
      <point x="1156" y="112" type="line"/>
      <point x="1231" y="215"/>
      <point x="1280" y="312"/>
      <point x="1280" y="402" type="curve" smooth="yes"/>
      <point x="1280" y="476"/>
      <point x="1234" y="525"/>
      <point x="1151" y="525" type="curve" smooth="yes"/>
      <point x="1064" y="525"/>
      <point x="973" y="468"/>
    </contour>
    <contour>
      <point x="1117" y="1096" type="line"/>
      <point x="1110" y="1289" type="line"/>
      <point x="1643" y="1289" type="line"/>
      <point x="1643" y="1096" type="line"/>
    </contour>
    <component base="udeva"/>
    <contour>
      <point x="529" y="1289" type="move" name="top"/>
    </contour>
  </outline>
</glyph>
<glyph name="rvocalicdeva" format="1">
  <advance width="1670"/>
  <unicode hex="090B"/>
  <outline>
    <contour>
      <point x="931" y="735" type="line"/>
      <point x="971" y="692"/>
      <point x="1011" y="674"/>
      <point x="1080" y="674" type="curve" smooth="yes"/>
      <point x="1137" y="674"/>
      <point x="1208" y="686"/>
      <point x="1284" y="732" type="curve"/>
      <point x="1197" y="660" type="line"/>
      <point x="1167" y="710"/>
      <point x="1150" y="747"/>
      <point x="1150" y="788" type="curve" smooth="yes"/>
      <point x="1150" y="845"/>
      <point x="1195" y="903"/>
      <point x="1296" y="903" type="curve" smooth="yes"/>
      <point x="1447" y="903"/>
      <point x="1566" y="823"/>
      <point x="1566" y="732" type="curve" smooth="yes"/>
      <point x="1566" y="619"/>
      <point x="1388" y="472"/>
      <point x="1104" y="472" type="curve" smooth="yes"/>
      <point x="1009" y="472"/>
      <point x="918" y="493"/>
      <point x="829" y="540" type="curve"/>
    </contour>
    <contour>
      <point x="1244" y="555" type="curve"/>
      <point x="1434" y="653" type="line"/>
      <point x="1525" y="527"/>
      <point x="1577" y="419"/>
      <point x="1577" y="316" type="curve" smooth="yes"/>
      <point x="1577" y="181"/>
      <point x="1498" y="53"/>
      <point x="1268" y="25" type="curve"/>
      <point x="1137" y="214" type="line"/>
      <point x="1278" y="241"/>
      <point x="1339" y="294"/>
      <point x="1339" y="370" type="curve" smooth="yes"/>
      <point x="1339" y="427"/>
      <point x="1314" y="471"/>
    </contour>
    <contour>
      <point x="-66" y="1096" type="line"/>
      <point x="-66" y="1288" type="line"/>
      <point x="1676" y="1288" type="line"/>
      <point x="1676" y="1096" type="line"/>
    </contour>
    <contour>
      <point x="878" y="412" type="line"/>
      <point x="259" y="109" type="line"/>
      <point x="126" y="314" type="line"/>
      <point x="747" y="606" type="line"/>
    </contour>
    <contour>
      <point x="26" y="843" type="line"/>
      <point x="109" y="882"/>
      <point x="218" y="910"/>
      <point x="314" y="910" type="curve" smooth="yes"/>
      <point x="448" y="910"/>
      <point x="576" y="856"/>
      <point x="754" y="742" type="curve"/>
      <point x="754" y="487" type="line"/>
      <point x="577" y="612"/>
      <point x="455" y="672"/>
      <point x="351" y="672" type="curve" smooth="yes"/>
      <point x="272" y="672"/>
      <point x="171" y="643"/>
      <point x="96" y="603" type="curve"/>
    </contour>
    <contour>
      <point x="713" y="1132" type="line"/>
      <point x="1001" y="1132" type="line"/>
      <point x="1001" y="0" type="line"/>
      <point x="713" y="0" type="line"/>
    </contour>
    <contour>
      <point x="887" y="1271" type="move" name="mark0"/>
    </contour>
  </outline>
</glyph>
<glyph name="lvocalicdeva" format="1">
  <advance width="1554"/>
  <unicode hex="090C"/>
  <outline>
    <contour>
      <point x="960" y="635" type="curve"/>
      <point x="792" y="497" type="line"/>
      <point x="702" y="625"/>
      <point x="625" y="678"/>
      <point x="515" y="678" type="curve" smooth="yes"/>
      <point x="416" y="678"/>
      <point x="353" y="601"/>
      <point x="353" y="507" type="curve" smooth="yes"/>
      <point x="353" y="398"/>
      <point x="410" y="304"/>
      <point x="564" y="166" type="curve"/>
      <point x="367" y="57" type="line"/>
      <point x="181" y="219"/>
      <point x="80" y="400"/>
      <point x="80" y="571" type="curve" smooth="yes"/>
      <point x="80" y="767"/>
      <point x="209" y="919"/>
      <point x="445" y="919" type="curve" smooth="yes"/>
      <point x="651" y="919"/>
      <point x="810" y="810"/>
    </contour>
    <contour>
      <point x="1574" y="1096" type="line"/>
      <point x="-25" y="1096" type="line"/>
      <point x="-25" y="1288" type="line"/>
      <point x="1574" y="1288" type="line"/>
    </contour>
    <contour>
      <point x="978" y="1132" type="line"/>
      <point x="1267" y="1132" type="line"/>
      <point x="1267" y="800" type="line"/>
      <point x="978" y="800" type="line"/>
    </contour>
    <contour>
      <point x="1256" y="365" type="curve"/>
      <point x="1149" y="274" type="line"/>
      <point x="1204" y="345"/>
      <point x="1231" y="444"/>
      <point x="1231" y="520" type="curve" smooth="yes"/>
      <point x="1231" y="591"/>
      <point x="1184" y="637"/>
      <point x="1102" y="637" type="curve" smooth="yes"/>
      <point x="1000" y="637"/>
      <point x="905" y="534"/>
      <point x="857" y="321" type="curve"/>
      <point x="612" y="408" type="line"/>
      <point x="672" y="666"/>
      <point x="804" y="874"/>
      <point x="1084" y="877" type="curve" smooth="yes"/>
      <point x="1315" y="879"/>
      <point x="1481" y="707"/>
      <point x="1481" y="498" type="curve" smooth="yes"/>
      <point x="1481" y="407"/>
      <point x="1456" y="308"/>
      <point x="1410" y="220" type="curve"/>
      <point x="1261" y="219"/>
      <point x="1203" y="163"/>
      <point x="1203" y="106" type="curve" smooth="yes"/>
      <point x="1203" y="50"/>
      <point x="1240" y="15"/>
      <point x="1325" y="15" type="curve" smooth="yes"/>
      <point x="1382" y="15"/>
      <point x="1430" y="29"/>
      <point x="1506" y="62" type="curve"/>
      <point x="1537" y="-123" type="line"/>
      <point x="1455" y="-154"/>
      <point x="1391" y="-163"/>
      <point x="1311" y="-163" type="curve" smooth="yes"/>
      <point x="1103" y="-163"/>
      <point x="961" y="-46"/>
      <point x="961" y="98" type="curve" smooth="yes"/>
      <point x="961" y="236"/>
      <point x="1069" y="342"/>
    </contour>
    <contour>
      <point x="1074" y="1271" type="move" name="mark0"/>
    </contour>
  </outline>
</glyph>
<glyph name="edeva" format="1">
  <advance width="1272"/>
  <unicode hex="090F"/>
  <outline>
    <contour>
      <point x="1081" y="1139" type="line"/>
      <point x="1081" y="737" type="line"/>
      <point x="1081" y="615"/>
      <point x="1046" y="529"/>
      <point x="962" y="434" type="curve"/>
      <point x="735" y="548" type="line"/>
      <point x="776" y="632"/>
      <point x="792" y="694"/>
      <point x="792" y="811" type="curve" smooth="yes"/>
      <point x="792" y="1139" type="line"/>
    </contour>
    <contour>
      <point x="-11" y="1096" type="line"/>
      <point x="-11" y="1288" type="line"/>
      <point x="1298" y="1288" type="line"/>
      <point x="1298" y="1096" type="line"/>
    </contour>
    <contour>
      <point x="136" y="1139" type="line"/>
      <point x="424" y="1139" type="line"/>
      <point x="424" y="695" type="line"/>
      <point x="424" y="590"/>
      <point x="459" y="530"/>
      <point x="546" y="474" type="curve" smooth="yes"/>
      <point x="924" y="228" type="line"/>
      <point x="1047" y="149"/>
      <point x="1085" y="81"/>
      <point x="1085" y="7" type="curve" smooth="yes"/>
      <point x="1085" y="-68"/>
      <point x="1072" y="-114"/>
      <point x="1033" y="-196" type="curve"/>
      <point x="733" y="-128" type="line"/>
      <point x="754" y="-90"/>
      <point x="771" y="-57"/>
      <point x="771" y="-20" type="curve" smooth="yes"/>
      <point x="771" y="14"/>
      <point x="747" y="50"/>
      <point x="698" y="83" type="curve" smooth="yes"/>
      <point x="317" y="346" type="line"/>
      <point x="190" y="434"/>
      <point x="136" y="544"/>
      <point x="136" y="697" type="curve" smooth="yes"/>
    </contour>
    <contour>
      <point x="-49" y="8" type="move" name="x44"/>
    </contour>
    <contour>
      <point x="848" y="1282" type="move" name="mark0"/>
    </contour>
  </outline>
</glyph>
<glyph name="kadeva" format="1">
  <advance width="1605"/>
  <unicode hex="0915"/>
  <outline>
    <contour>
      <point x="923" y="427" type="curve"/>
      <point x="913" y="805" type="line"/>
      <point x="975" y="823"/>
      <point x="1055" y="841"/>
      <point x="1141" y="841" type="curve" smooth="yes"/>
      <point x="1393" y="841"/>
      <point x="1555" y="676"/>
      <point x="1555" y="473" type="curve" smooth="yes"/>
      <point x="1555" y="348"/>
      <point x="1507" y="234"/>
      <point x="1436" y="130" type="curve"/>
      <point x="1199" y="214" type="line"/>
      <point x="1270" y="318"/>
      <point x="1307" y="403"/>
      <point x="1307" y="492" type="curve" smooth="yes"/>
      <point x="1307" y="562"/>
      <point x="1257" y="608"/>
      <point x="1177" y="608" type="curve" smooth="yes"/>
      <point x="1099" y="608"/>
      <point x="1003" y="548"/>
    </contour>
    <contour>
      <point x="-38" y="1096" type="line"/>
      <point x="-38" y="1288" type="line"/>
      <point x="1655" y="1288" type="line"/>
      <point x="1655" y="1096" type="line"/>
    </contour>
    <contour>
      <point x="720" y="611" type="curve"/>
      <point x="720" y="291" type="line"/>
      <point x="645" y="241"/>
      <point x="581" y="213"/>
      <point x="473" y="213" type="curve" smooth="yes"/>
      <point x="228" y="213"/>
      <point x="62" y="399"/>
      <point x="62" y="618" type="curve" smooth="yes"/>
      <point x="62" y="792"/>
      <point x="194" y="922"/>
      <point x="404" y="922" type="curve" smooth="yes"/>
      <point x="544" y="922"/>
      <point x="634" y="894"/>
      <point x="735" y="842" type="curve"/>
      <point x="735" y="638" type="line"/>
      <point x="642" y="690"/>
      <point x="574" y="710"/>
      <point x="487" y="710" type="curve" smooth="yes"/>
      <point x="370" y="710"/>
      <point x="311" y="645"/>
      <point x="311" y="565" type="curve" smooth="yes"/>
      <point x="311" y="492"/>
      <point x="369" y="438"/>
      <point x="452" y="439" type="curve" smooth="yes"/>
      <point x="554" y="440"/>
      <point x="649" y="502"/>
    </contour>
    <contour>
      <point x="698" y="1132" type="line"/>
      <point x="986" y="1132" type="line"/>
      <point x="986" y="0" type="line"/>
      <point x="698" y="0" type="line"/>
    </contour>
    <contour>
      <point x="-100" y="8" type="move" name="x47"/>
    </contour>
    <contour>
      <point x="741" y="8" type="move" name="x46"/>
    </contour>
    <contour>
      <point x="741" y="8" type="move" name="mark0"/>
    </contour>
  </outline>
</glyph>
<glyph name="khadeva" format="1">
  <advance width="1817"/>
  <unicode hex="0916"/>
  <outline>
    <contour>
      <point x="1365" y="673" type="curve"/>
      <point x="1365" y="388" type="line"/>
      <point x="1295" y="353"/>
      <point x="1238" y="331"/>
      <point x="1150" y="331" type="curve" smooth="yes"/>
      <point x="947" y="331"/>
      <point x="754" y="476"/>
      <point x="754" y="676" type="curve" smooth="yes"/>
      <point x="754" y="831"/>
      <point x="872" y="955"/>
      <point x="1085" y="955" type="curve" smooth="yes"/>
      <point x="1204" y="955"/>
      <point x="1288" y="929"/>
      <point x="1372" y="887" type="curve"/>
      <point x="1372" y="695" type="line"/>
      <point x="1301" y="741"/>
      <point x="1214" y="762"/>
      <point x="1137" y="762" type="curve" smooth="yes"/>
      <point x="1030" y="762"/>
      <point x="986" y="698"/>
      <point x="986" y="636" type="curve" smooth="yes"/>
      <point x="986" y="577"/>
      <point x="1035" y="530"/>
      <point x="1103" y="530" type="curve" smooth="yes"/>
      <point x="1203" y="530"/>
      <point x="1295" y="572"/>
    </contour>
    <contour>
      <point x="264" y="701" type="line"/>
      <point x="414" y="751"/>
      <point x="452" y="828"/>
      <point x="452" y="959" type="curve" smooth="yes"/>
      <point x="452" y="1169" type="line"/>
      <point x="741" y="1169" type="line"/>
      <point x="741" y="943" type="line"/>
      <point x="741" y="742"/>
      <point x="688" y="567"/>
      <point x="432" y="449" type="curve"/>
    </contour>
    <contour>
      <point x="-24" y="1096" type="line"/>
      <point x="-24" y="1288" type="line"/>
      <point x="1839" y="1288" type="line"/>
      <point x="1839" y="1096" type="line"/>
    </contour>
    <contour>
      <point x="372" y="634" type="line"/>
      <point x="530" y="321"/>
      <point x="792" y="184"/>
      <point x="1059" y="184" type="curve" smooth="yes"/>
      <point x="1220" y="184"/>
      <point x="1319" y="215"/>
      <point x="1469" y="312" type="curve"/>
      <point x="1547" y="113" type="line"/>
      <point x="1395" y="46"/>
      <point x="1240" y="2"/>
      <point x="1038" y="2" type="curve" smooth="yes"/>
      <point x="799" y="2"/>
      <point x="538" y="73"/>
      <point x="333" y="278" type="curve" smooth="yes"/>
      <point x="166" y="445"/>
      <point x="54" y="636"/>
      <point x="54" y="722" type="curve" smooth="yes"/>
      <point x="54" y="789"/>
      <point x="105" y="839"/>
      <point x="180" y="839" type="curve" smooth="yes"/>
      <point x="245" y="839"/>
      <point x="295" y="802"/>
      <point x="357" y="725" type="curve" smooth="yes"/>
      <point x="403" y="662" type="line"/>
    </contour>
    <contour>
      <point x="1326" y="1132" type="line"/>
      <point x="1614" y="1132" type="line"/>
      <point x="1614" y="0" type="line"/>
      <point x="1326" y="0" type="line"/>
    </contour>
  </outline>
</glyph>
<glyph name="gadeva" format="1">
  <advance width="1414"/>
  <unicode hex="0917"/>
  <outline>
    <contour>
      <point x="582" y="1129" type="line"/>
      <point x="582" y="421" type="line" smooth="yes"/>
      <point x="582" y="336"/>
      <point x="561" y="289"/>
      <point x="483" y="289" type="curve" smooth="yes"/>
      <point x="340" y="289"/>
      <point x="93" y="468"/>
      <point x="90" y="590" type="curve" smooth="yes"/>
      <point x="89" y="652"/>
      <point x="123" y="694"/>
      <point x="207" y="694" type="curve" smooth="yes"/>
      <point x="336" y="694" type="line"/>
      <point x="294" y="655" type="line"/>
      <point x="294" y="1129" type="line"/>
    </contour>
    <contour>
      <point x="923" y="1132" type="line"/>
      <point x="1212" y="1132" type="line"/>
      <point x="1212" y="0" type="line"/>
      <point x="923" y="0" type="line"/>
    </contour>
    <contour>
      <point x="1435" y="1096" type="line"/>
      <point x="-30" y="1096" type="line"/>
      <point x="-30" y="1288" type="line"/>
      <point x="1435" y="1288" type="line"/>
    </contour>
  </outline>
</glyph>
<glyph name="ghadeva" format="1">
  <advance width="1460"/>
  <unicode hex="0918"/>
  <outline>
    <contour>
      <point x="404" y="710" type="line"/>
      <point x="197" y="768"/>
      <point x="94" y="898"/>
      <point x="94" y="1038" type="curve" smooth="yes"/>
      <point x="94" y="1106"/>
      <point x="112" y="1168"/>
      <point x="161" y="1220" type="curve"/>
      <point x="439" y="1151" type="line"/>
      <point x="399" y="1105"/>
      <point x="386" y="1068"/>
      <point x="386" y="1016" type="curve" smooth="yes"/>
      <point x="386" y="943"/>
      <point x="433" y="875"/>
      <point x="612" y="866" type="curve"/>
    </contour>
    <contour>
      <point x="-58" y="1096" type="line"/>
      <point x="-58" y="1288" type="line"/>
      <point x="1482" y="1288" type="line"/>
      <point x="1482" y="1096" type="line"/>
    </contour>
    <contour>
      <point x="1029" y="630" type="curve"/>
      <point x="1031" y="242" type="line"/>
      <point x="944" y="195"/>
      <point x="834" y="170"/>
      <point x="718" y="170" type="curve" smooth="yes"/>
      <point x="459" y="170"/>
      <point x="296" y="353"/>
      <point x="296" y="549" type="curve" smooth="yes"/>
      <point x="296" y="716"/>
      <point x="418" y="899"/>
      <point x="730" y="899" type="curve" smooth="yes"/>
      <point x="739" y="899" type="line"/>
      <point x="811" y="674" type="line"/>
      <point x="799" y="673" type="line"/>
      <point x="620" y="663"/>
      <point x="557" y="591"/>
      <point x="557" y="516" type="curve" smooth="yes"/>
      <point x="557" y="449"/>
      <point x="613" y="401"/>
      <point x="695" y="402" type="curve" smooth="yes"/>
      <point x="827" y="405"/>
      <point x="962" y="505"/>
    </contour>
    <contour>
      <point x="969" y="1132" type="line"/>
      <point x="1258" y="1132" type="line"/>
      <point x="1258" y="0" type="line"/>
      <point x="969" y="0" type="line"/>
    </contour>
  </outline>
</glyph>
<glyph name="ngadeva" format="1">
  <advance width="1447"/>
  <unicode hex="0919"/>
  <outline>
    <contour>
      <point x="1149" y="1096" type="line"/>
      <point x="1149" y="1288" type="line"/>
      <point x="1497" y="1288" type="line"/>
      <point x="1497" y="1096" type="line"/>
    </contour>
    <contour>
      <point x="1214" y="809" type="curve" smooth="yes"/>
      <point x="1327" y="809"/>
      <point x="1365" y="741"/>
      <point x="1365" y="678" type="curve" smooth="yes"/>
      <point x="1365" y="616"/>
      <point x="1320" y="547"/>
      <point x="1214" y="547" type="curve" smooth="yes"/>
      <point x="1100" y="547"/>
      <point x="1059" y="617"/>
      <point x="1059" y="678" type="curve" smooth="yes"/>
      <point x="1059" y="740"/>
      <point x="1103" y="809"/>
    </contour>
    <component base="ddadeva"/>
    <contour>
      <point x="46" y="8" type="move" name="x56"/>
    </contour>
    <contour>
      <point x="1735" y="8" type="move" name="x57"/>
    </contour>
    <contour>
      <point x="851" y="8" type="move" name="mark0"/>
    </contour>
  </outline>
</glyph>
<glyph name="cadeva" format="1">
  <advance width="1465"/>
  <unicode hex="091A"/>
  <outline>
    <contour>
      <point x="66" y="675" type="line"/>
      <point x="66" y="903" type="line"/>
      <point x="808" y="903" type="line"/>
      <point x="808" y="675" type="line"/>
    </contour>
    <contour>
      <point x="1016" y="563" type="curve"/>
      <point x="1016" y="221" type="line"/>
      <point x="945" y="177"/>
      <point x="840" y="151"/>
      <point x="730" y="151" type="curve" smooth="yes"/>
      <point x="456" y="151"/>
      <point x="283" y="316"/>
      <point x="283" y="529" type="curve" smooth="yes"/>
      <point x="283" y="717"/>
      <point x="416" y="875"/>
      <point x="701" y="875" type="curve"/>
      <point x="755" y="677" type="line"/>
      <point x="607" y="678"/>
      <point x="546" y="599"/>
      <point x="546" y="515" type="curve" smooth="yes"/>
      <point x="546" y="440"/>
      <point x="609" y="382"/>
      <point x="708" y="382" type="curve" smooth="yes"/>
      <point x="832" y="382"/>
      <point x="957" y="454"/>
    </contour>
    <contour>
      <point x="-30" y="1096" type="line"/>
      <point x="-30" y="1289" type="line"/>
      <point x="1495" y="1289" type="line"/>
      <point x="1495" y="1096" type="line"/>
    </contour>
    <contour>
      <point x="975" y="1132" type="line"/>
      <point x="1261" y="1132" type="line"/>
      <point x="1261" y="0" type="line"/>
      <point x="975" y="0" type="line"/>
    </contour>
    <contour>
      <point x="974" y="1289" type="move" name="top"/>
    </contour>
  </outline>
</glyph>
<glyph name="chadeva" format="1">
  <advance width="1575"/>
  <unicode hex="091B"/>
  <outline>
    <contour>
      <point x="670" y="796" type="curve"/>
      <point x="742" y="573" type="line"/>
      <point x="741" y="573"/>
      <point x="739" y="573"/>
      <point x="738" y="573" type="curve" smooth="yes"/>
      <point x="548" y="561"/>
      <point x="488" y="480"/>
      <point x="488" y="401" type="curve" smooth="yes"/>
      <point x="488" y="311"/>
      <point x="567" y="239"/>
      <point x="719" y="239" type="curve" smooth="yes"/>
      <point x="984" y="239"/>
      <point x="1251" y="472"/>
      <point x="1251" y="666" type="curve" smooth="yes"/>
      <point x="1251" y="753"/>
      <point x="1203" y="801"/>
      <point x="1143" y="801" type="curve" smooth="yes"/>
      <point x="1087" y="801"/>
      <point x="1047" y="751"/>
      <point x="1047" y="682" type="curve" smooth="yes"/>
      <point x="1047" y="592"/>
      <point x="1103" y="507"/>
      <point x="1288" y="369" type="curve"/>
      <point x="1155" y="246" type="line"/>
      <point x="905" y="417"/>
      <point x="809" y="555"/>
      <point x="809" y="735" type="curve" smooth="yes"/>
      <point x="809" y="860"/>
      <point x="902" y="1001"/>
      <point x="1110" y="1001" type="curve" smooth="yes"/>
      <point x="1338" y="1001"/>
      <point x="1487" y="854"/>
      <point x="1487" y="633" type="curve" smooth="yes"/>
      <point x="1487" y="360"/>
      <point x="1178" y="22"/>
      <point x="727" y="22" type="curve" smooth="yes"/>
      <point x="383" y="22"/>
      <point x="202" y="224"/>
      <point x="202" y="441" type="curve" smooth="yes"/>
      <point x="202" y="628"/>
      <point x="352" y="790"/>
      <point x="665" y="796" type="curve" smooth="yes"/>
      <point x="667" y="796"/>
      <point x="668" y="796"/>
    </contour>
    <contour>
      <point x="577" y="757" type="curve"/>
      <point x="387" y="609" type="line"/>
      <point x="167" y="676"/>
      <point x="81" y="801"/>
      <point x="81" y="961" type="curve" smooth="yes"/>
      <point x="81" y="1091"/>
      <point x="204" y="1247"/>
      <point x="490" y="1264" type="curve"/>
      <point x="586" y="1116" type="line"/>
      <point x="431" y="1100"/>
      <point x="364" y="1010"/>
      <point x="364" y="932" type="curve" smooth="yes"/>
      <point x="364" y="852"/>
      <point x="414" y="784"/>
    </contour>
    <contour>
      <point x="1597" y="1096" type="line"/>
      <point x="-49" y="1096" type="line"/>
      <point x="-49" y="1288" type="line"/>
      <point x="1597" y="1288" type="line"/>
    </contour>
    <contour>
      <point x="983" y="1142" type="line"/>
      <point x="1271" y="1142" type="line"/>
      <point x="1271" y="895" type="line"/>
      <point x="983" y="895" type="line"/>
    </contour>
    <contour>
      <point x="873" y="8" type="move" name="mark0"/>
    </contour>
    <contour>
      <point x="-29" y="8" type="move" name="x65"/>
    </contour>
    <contour>
      <point x="1648" y="8" type="move" name="x66"/>
    </contour>
  </outline>
</glyph>
<glyph name="jadeva" format="1">
  <advance width="1569"/>
  <unicode hex="091C"/>
  <outline>
    <contour>
      <point x="-60" y="1096" type="line"/>
      <point x="-60" y="1288" type="line"/>
      <point x="1589" y="1288" type="line"/>
      <point x="1589" y="1096" type="line"/>
    </contour>
    <contour>
      <point x="668" y="668" type="line"/>
      <point x="701" y="724" type="line"/>
      <point x="822" y="647"/>
      <point x="897" y="532"/>
      <point x="897" y="402" type="curve" smooth="yes"/>
      <point x="897" y="218"/>
      <point x="774" y="89"/>
      <point x="572" y="89" type="curve" smooth="yes"/>
      <point x="384" y="89"/>
      <point x="198" y="203"/>
      <point x="0" y="456" type="curve"/>
      <point x="136" y="652" type="line"/>
      <point x="323" y="415"/>
      <point x="418" y="345"/>
      <point x="505" y="345" type="curve" smooth="yes"/>
      <point x="586" y="345"/>
      <point x="637" y="393"/>
      <point x="637" y="467" type="curve" smooth="yes"/>
      <point x="637" y="554"/>
      <point x="558" y="652"/>
      <point x="380" y="696" type="curve"/>
      <point x="380" y="896" type="line"/>
      <point x="1121" y="896" type="line"/>
      <point x="1121" y="668" type="line"/>
    </contour>
    <contour>
      <point x="1078" y="1132" type="line"/>
      <point x="1366" y="1132" type="line"/>
      <point x="1366" y="0" type="line"/>
      <point x="1078" y="0" type="line"/>
    </contour>
  </outline>
</glyph>
<glyph name="jhadeva" format="1">
  <advance width="1720"/>
  <unicode hex="091D"/>
  <outline>
    <contour>
      <point x="1283" y="617" type="curve"/>
      <point x="1304" y="347" type="line"/>
      <point x="1256" y="324"/>
      <point x="1176" y="310"/>
      <point x="1116" y="310" type="curve" smooth="yes"/>
      <point x="1003" y="310"/>
      <point x="920" y="324"/>
      <point x="856" y="339" type="curve"/>
      <point x="850" y="552" type="line"/>
      <point x="913" y="536"/>
      <point x="970" y="529"/>
      <point x="1029" y="529" type="curve" smooth="yes"/>
      <point x="1109" y="529"/>
      <point x="1214" y="554"/>
    </contour>
    <contour>
      <point x="1228" y="1133" type="line"/>
      <point x="1515" y="1133" type="line"/>
      <point x="1515" y="0" type="line"/>
      <point x="1228" y="0" type="line"/>
    </contour>
    <contour>
      <point x="1750" y="1096" type="line"/>
      <point x="1045" y="1096" type="line"/>
      <point x="1045" y="1289" type="line"/>
      <point x="1750" y="1289" type="line"/>
    </contour>
    <component base="ideva"/>
    <contour>
      <point x="1228" y="1289" type="move" name="top"/>
    </contour>
  </outline>
</glyph>
<glyph name="nyadeva" format="1">
  <advance width="1803"/>
  <unicode hex="091E"/>
  <outline>
    <contour>
      <point x="901" y="682" type="line"/>
      <point x="974" y="668"/>
      <point x="1045" y="660"/>
      <point x="1111" y="660" type="curve" smooth="yes"/>
      <point x="1214" y="660"/>
      <point x="1320" y="684"/>
      <point x="1386" y="719" type="curve"/>
      <point x="1386" y="455" type="line"/>
      <point x="1336" y="440"/>
      <point x="1256" y="427"/>
      <point x="1163" y="427" type="curve" smooth="yes"/>
      <point x="1081" y="427"/>
      <point x="954" y="440"/>
      <point x="901" y="452" type="curve"/>
    </contour>
    <contour>
      <point x="1004" y="525" type="curve" smooth="yes"/>
      <point x="1004" y="283"/>
      <point x="830" y="135"/>
      <point x="613" y="135" type="curve" smooth="yes"/>
      <point x="414" y="135"/>
      <point x="235" y="215"/>
      <point x="34" y="396" type="curve"/>
      <point x="130" y="598" type="line"/>
      <point x="308" y="430"/>
      <point x="434" y="370"/>
      <point x="557" y="370" type="curve" smooth="yes"/>
      <point x="689" y="370"/>
      <point x="755" y="449"/>
      <point x="754" y="545" type="curve" smooth="yes"/>
      <point x="754" y="635"/>
      <point x="676" y="706"/>
      <point x="573" y="706" type="curve" smooth="yes"/>
      <point x="487" y="707"/>
      <point x="401" y="669"/>
      <point x="342" y="621" type="curve"/>
      <point x="241" y="825" type="line"/>
      <point x="313" y="880"/>
      <point x="425" y="931"/>
      <point x="566" y="932" type="curve" smooth="yes"/>
      <point x="812" y="932"/>
      <point x="1004" y="771"/>
    </contour>
    <contour>
      <point x="-30" y="1096" type="line"/>
      <point x="-30" y="1289" type="line"/>
      <point x="1833" y="1289" type="line"/>
      <point x="1833" y="1096" type="line"/>
    </contour>
    <contour>
      <point x="1312" y="1132" type="line"/>
      <point x="1598" y="1132" type="line"/>
      <point x="1598" y="0" type="line"/>
      <point x="1312" y="0" type="line"/>
    </contour>
    <contour>
      <point x="1312" y="1289" type="move" name="top"/>
    </contour>
  </outline>
</glyph>
<glyph name="ttadeva" format="1">
  <advance width="1195"/>
  <unicode hex="091F"/>
  <outline>
    <contour>
      <point x="694" y="1133" type="line"/>
      <point x="980" y="1133" type="line"/>
      <point x="980" y="690" type="line"/>
      <point x="652" y="690" type="line"/>
      <point x="460" y="690"/>
      <point x="381" y="586"/>
      <point x="381" y="470" type="curve" smooth="yes"/>
      <point x="381" y="344"/>
      <point x="481" y="263"/>
      <point x="654" y="263" type="curve" smooth="yes"/>
      <point x="774" y="263"/>
      <point x="879" y="291"/>
      <point x="1019" y="344" type="curve"/>
      <point x="1076" y="97" type="line"/>
      <point x="949" y="47"/>
      <point x="854" y="27"/>
      <point x="699" y="27" type="curve" smooth="yes"/>
      <point x="327" y="27"/>
      <point x="95" y="250"/>
      <point x="95" y="506" type="curve" smooth="yes"/>
      <point x="95" y="750"/>
      <point x="260" y="903"/>
      <point x="569" y="903" type="curve" smooth="yes"/>
      <point x="733" y="903" type="line"/>
      <point x="694" y="862" type="line"/>
    </contour>
    <contour>
      <point x="1225" y="1096" type="line"/>
      <point x="-30" y="1096" type="line"/>
      <point x="-30" y="1289" type="line"/>
      <point x="1225" y="1289" type="line"/>
    </contour>
    <contour>
      <point x="537" y="42" type="move" name="btm"/>
    </contour>
    <contour>
      <point x="662" y="1289" type="move" name="top"/>
    </contour>
  </outline>
</glyph>
<glyph name="tthadeva" format="1">
  <advance width="1320"/>
  <unicode hex="0920"/>
  <outline>
    <contour>
      <point x="976" y="489" type="curve" smooth="yes"/>
      <point x="976" y="567"/>
      <point x="940" y="635"/>
      <point x="870" y="690" type="curve"/>
      <point x="666" y="690" type="line"/>
      <point x="448" y="690"/>
      <point x="356" y="597"/>
      <point x="356" y="472" type="curve" smooth="yes"/>
      <point x="356" y="345"/>
      <point x="473" y="244"/>
      <point x="654" y="244" type="curve" smooth="yes"/>
      <point x="852" y="244"/>
      <point x="976" y="341"/>
    </contour>
    <contour>
      <point x="1350" y="1096" type="line"/>
      <point x="-30" y="1096" type="line"/>
      <point x="-30" y="1289" type="line"/>
      <point x="1350" y="1289" type="line"/>
    </contour>
    <contour>
      <point x="811" y="1121" type="line"/>
      <point x="1097" y="1121" type="line"/>
      <point x="1097" y="751" type="line"/>
      <point x="1021" y="860" type="line"/>
      <point x="1134" y="775"/>
      <point x="1230" y="622"/>
      <point x="1230" y="449" type="curve" smooth="yes"/>
      <point x="1230" y="215"/>
      <point x="1069" y="11"/>
      <point x="694" y="11" type="curve" smooth="yes"/>
      <point x="304" y="11"/>
      <point x="85" y="252"/>
      <point x="85" y="512" type="curve" smooth="yes"/>
      <point x="85" y="753"/>
      <point x="260" y="903"/>
      <point x="565" y="903" type="curve" smooth="yes"/>
      <point x="867" y="903" type="line"/>
      <point x="811" y="852" type="line"/>
    </contour>
    <contour>
      <point x="537" y="42" type="move" name="btm"/>
    </contour>
    <contour>
      <point x="750" y="1289" type="move" name="top"/>
    </contour>
  </outline>
</glyph>
<glyph name="ddadeva" format="1">
  <advance width="1228"/>
  <unicode hex="0921"/>
  <outline>
    <contour>
      <point x="713" y="1121" type="line"/>
      <point x="999" y="1121" type="line"/>
      <point x="999" y="757" type="line"/>
      <point x="506" y="757" type="line"/>
      <point x="416" y="757"/>
      <point x="383" y="716"/>
      <point x="383" y="667" type="curve" smooth="yes"/>
      <point x="383" y="621"/>
      <point x="415" y="586"/>
      <point x="491" y="556" type="curve"/>
      <point x="391" y="570" type="line"/>
      <point x="480" y="609"/>
      <point x="590" y="633"/>
      <point x="737" y="633" type="curve" smooth="yes"/>
      <point x="961" y="633"/>
      <point x="1117" y="512"/>
      <point x="1117" y="330" type="curve" smooth="yes"/>
      <point x="1117" y="139"/>
      <point x="976" y="-3"/>
      <point x="641" y="-3" type="curve" smooth="yes"/>
      <point x="449" y="-3"/>
      <point x="279" y="40"/>
      <point x="67" y="150" type="curve"/>
      <point x="121" y="361" type="line"/>
      <point x="308" y="251"/>
      <point x="475" y="203"/>
      <point x="619" y="203" type="curve" smooth="yes"/>
      <point x="783" y="203"/>
      <point x="850" y="265"/>
      <point x="850" y="332" type="curve" smooth="yes"/>
      <point x="850" y="391"/>
      <point x="797" y="424"/>
      <point x="696" y="424" type="curve" smooth="yes"/>
      <point x="607" y="424"/>
      <point x="516" y="398"/>
      <point x="448" y="365" type="curve"/>
      <point x="440" y="365" type="line"/>
      <point x="218" y="464"/>
      <point x="131" y="580"/>
      <point x="131" y="710" type="curve" smooth="yes"/>
      <point x="131" y="830"/>
      <point x="218" y="948"/>
      <point x="450" y="948" type="curve" smooth="yes"/>
      <point x="773" y="948" type="line"/>
      <point x="713" y="887" type="line"/>
    </contour>
    <contour>
      <point x="1258" y="1096" type="line"/>
      <point x="-30" y="1096" type="line"/>
      <point x="-30" y="1289" type="line"/>
      <point x="1258" y="1289" type="line"/>
    </contour>
    <contour>
      <point x="488" y="10" type="move" name="btm"/>
    </contour>
    <contour>
      <point x="712" y="1289" type="move" name="top"/>
    </contour>
  </outline>
</glyph>
<glyph name="ddhadeva" format="1">
  <advance width="1200"/>
  <unicode hex="0922"/>
  <outline>
    <contour>
      <point x="1228" y="1096" type="line"/>
      <point x="-55" y="1096" type="line"/>
      <point x="-55" y="1288" type="line"/>
      <point x="1228" y="1288" type="line"/>
    </contour>
    <contour>
      <point x="679" y="1126" type="line"/>
      <point x="953" y="1126" type="line"/>
      <point x="953" y="698" type="line"/>
      <point x="638" y="698" type="line"/>
      <point x="404" y="698"/>
      <point x="315" y="585"/>
      <point x="315" y="451" type="curve" smooth="yes"/>
      <point x="315" y="315"/>
      <point x="467" y="194"/>
      <point x="688" y="194" type="curve" smooth="yes"/>
      <point x="843" y="194"/>
      <point x="920" y="254"/>
      <point x="920" y="324" type="curve" smooth="yes"/>
      <point x="920" y="373"/>
      <point x="881" y="402"/>
      <point x="827" y="402" type="curve" smooth="yes"/>
      <point x="746" y="402"/>
      <point x="683" y="343"/>
      <point x="683" y="264" type="curve" smooth="yes"/>
      <point x="683" y="217"/>
      <point x="699" y="176"/>
      <point x="719" y="133" type="curve"/>
      <point x="512" y="109" type="line"/>
      <point x="470" y="174"/>
      <point x="458" y="224"/>
      <point x="458" y="297" type="curve" smooth="yes"/>
      <point x="458" y="438"/>
      <point x="580" y="572"/>
      <point x="808" y="572" type="curve" smooth="yes"/>
      <point x="1025" y="572"/>
      <point x="1150" y="469"/>
      <point x="1150" y="312" type="curve" smooth="yes"/>
      <point x="1150" y="173"/>
      <point x="1015" y="31"/>
      <point x="699" y="31" type="curve" smooth="yes"/>
      <point x="287" y="31"/>
      <point x="52" y="276"/>
      <point x="52" y="507" type="curve" smooth="yes"/>
      <point x="52" y="719"/>
      <point x="190" y="891"/>
      <point x="544" y="891" type="curve" smooth="yes"/>
      <point x="720" y="891" type="line"/>
      <point x="679" y="857" type="line"/>
    </contour>
    <contour>
      <point x="561" y="8" type="move" name="mark0"/>
    </contour>
    <contour>
      <point x="1209" y="8" type="move" name="x44"/>
    </contour>
    <contour>
      <point x="-119" y="8" type="move" name="x43"/>
    </contour>
  </outline>
</glyph>
<glyph name="nnadeva" format="1">
  <advance width="1738"/>
  <unicode hex="0923"/>
  <outline>
    <contour>
      <point x="714" y="1121" type="line"/>
      <point x="1003" y="1121" type="line"/>
      <point x="1003" y="718" type="line"/>
      <point x="1003" y="461"/>
      <point x="883" y="296"/>
      <point x="594" y="296" type="curve" smooth="yes"/>
      <point x="301" y="296"/>
      <point x="139" y="476"/>
      <point x="139" y="730" type="curve" smooth="yes"/>
      <point x="139" y="1121" type="line"/>
      <point x="428" y="1121" type="line"/>
      <point x="428" y="663" type="line"/>
      <point x="428" y="560"/>
      <point x="478" y="506"/>
      <point x="560" y="506" type="curve" smooth="yes"/>
      <point x="660" y="506"/>
      <point x="714" y="577"/>
      <point x="714" y="709" type="curve" smooth="yes"/>
    </contour>
    <contour>
      <point x="-43" y="1096" type="line"/>
      <point x="-43" y="1288" type="line"/>
      <point x="1759" y="1288" type="line"/>
      <point x="1759" y="1096" type="line"/>
    </contour>
    <contour>
      <point x="1248" y="1132" type="line"/>
      <point x="1536" y="1132" type="line"/>
      <point x="1536" y="0" type="line"/>
      <point x="1248" y="0" type="line"/>
    </contour>
  </outline>
</glyph>
<glyph name="tadeva" format="1">
  <advance width="1275"/>
  <unicode hex="0924"/>
  <outline>
    <contour>
      <point x="847" y="907" type="line"/>
      <point x="847" y="662" type="line"/>
      <point x="609" y="662" type="line"/>
      <point x="452" y="662"/>
      <point x="364" y="570"/>
      <point x="364" y="444" type="curve" smooth="yes"/>
      <point x="364" y="341"/>
      <point x="405" y="223"/>
      <point x="528" y="32" type="curve"/>
      <point x="296" y="-29" type="line"/>
      <point x="170" y="156"/>
      <point x="95" y="346"/>
      <point x="95" y="521" type="curve" smooth="yes"/>
      <point x="95" y="741"/>
      <point x="249" y="907"/>
      <point x="551" y="907" type="curve" smooth="yes"/>
    </contour>
    <contour>
      <point x="-20" y="1096" type="line"/>
      <point x="-20" y="1288" type="line"/>
      <point x="1297" y="1288" type="line"/>
      <point x="1297" y="1096" type="line"/>
    </contour>
    <contour>
      <point x="784" y="1132" type="line"/>
      <point x="1073" y="1132" type="line"/>
      <point x="1073" y="0" type="line"/>
      <point x="784" y="0" type="line"/>
    </contour>
  </outline>
</glyph>
<glyph name="thadeva" format="1">
  <advance width="1448"/>
  <unicode hex="0925"/>
  <outline>
    <contour>
      <point x="758" y="944" type="curve" smooth="yes"/>
      <point x="758" y="735"/>
      <point x="593" y="601"/>
      <point x="377" y="537" type="curve"/>
      <point x="380" y="635" type="line"/>
      <point x="455" y="533"/>
      <point x="554" y="478"/>
      <point x="666" y="478" type="curve" smooth="yes"/>
      <point x="812" y="478"/>
      <point x="942" y="549"/>
      <point x="1012" y="704" type="curve"/>
      <point x="1012" y="313" type="line"/>
      <point x="938" y="267"/>
      <point x="863" y="246"/>
      <point x="746" y="246" type="curve" smooth="yes"/>
      <point x="497" y="246"/>
      <point x="243" y="400"/>
      <point x="111" y="668" type="curve"/>
      <point x="111" y="674" type="line"/>
      <point x="347" y="725"/>
      <point x="514" y="831"/>
      <point x="514" y="975" type="curve" smooth="yes"/>
      <point x="514" y="1071"/>
      <point x="452" y="1131"/>
      <point x="380" y="1131" type="curve" smooth="yes"/>
      <point x="320" y="1131"/>
      <point x="288" y="1090"/>
      <point x="288" y="1034" type="curve" smooth="yes"/>
      <point x="288" y="966"/>
      <point x="351" y="901"/>
      <point x="502" y="863" type="curve"/>
      <point x="416" y="733" type="line"/>
      <point x="148" y="795"/>
      <point x="38" y="929"/>
      <point x="38" y="1081" type="curve" smooth="yes"/>
      <point x="38" y="1214"/>
      <point x="135" y="1332"/>
      <point x="331" y="1332" type="curve" smooth="yes"/>
      <point x="597" y="1332"/>
      <point x="758" y="1150"/>
    </contour>
    <contour>
      <point x="957" y="1133" type="line"/>
      <point x="1243" y="1133" type="line"/>
      <point x="1243" y="0" type="line"/>
      <point x="957" y="0" type="line"/>
    </contour>
    <contour>
      <point x="1478" y="1096" type="line"/>
      <point x="868" y="1096" type="line"/>
      <point x="868" y="1289" type="line"/>
      <point x="1478" y="1289" type="line"/>
    </contour>
    <contour>
      <point x="957" y="1289" type="move" name="top"/>
    </contour>
  </outline>
</glyph>
<glyph name="dadeva" format="1">
  <advance width="1200"/>
  <unicode hex="0926"/>
  <outline>
    <contour>
      <point x="-30" y="1096" type="line"/>
      <point x="-30" y="1289" type="line"/>
      <point x="1230" y="1289" type="line"/>
      <point x="1230" y="1096" type="line"/>
    </contour>
    <contour>
      <point x="682" y="177" type="line"/>
      <point x="901" y="247" type="line"/>
      <point x="1120" y="-174" type="line"/>
      <point x="909" y="-262" type="line"/>
    </contour>
    <contour>
      <point x="647" y="78" type="curve" smooth="yes"/>
      <point x="310" y="78"/>
      <point x="84" y="264"/>
      <point x="84" y="523" type="curve" smooth="yes"/>
      <point x="84" y="737"/>
      <point x="233" y="902"/>
      <point x="567" y="902" type="curve" smooth="yes"/>
      <point x="765" y="902" type="line"/>
      <point x="702" y="849" type="line"/>
      <point x="702" y="1131" type="line"/>
      <point x="989" y="1131" type="line"/>
      <point x="989" y="698" type="line"/>
      <point x="646" y="698" type="line"/>
      <point x="435" y="698"/>
      <point x="349" y="610"/>
      <point x="349" y="489" type="curve" smooth="yes"/>
      <point x="349" y="372"/>
      <point x="450" y="283"/>
      <point x="599" y="283" type="curve" smooth="yes"/>
      <point x="684" y="283"/>
      <point x="736" y="287"/>
      <point x="838" y="313" type="curve"/>
      <point x="664" y="213" type="line"/>
      <point x="635" y="265"/>
      <point x="622" y="311"/>
      <point x="622" y="361" type="curve" smooth="yes"/>
      <point x="622" y="418"/>
      <point x="659" y="482"/>
      <point x="785" y="482" type="curve" smooth="yes"/>
      <point x="956" y="482"/>
      <point x="1089" y="398"/>
      <point x="1089" y="297" type="curve" smooth="yes"/>
      <point x="1089" y="188"/>
      <point x="937" y="78"/>
    </contour>
    <contour>
      <point x="865" y="-177" type="move" name="btm"/>
    </contour>
    <contour>
      <point x="664" y="1289" type="move" name="top"/>
    </contour>
  </outline>
</glyph>
<glyph name="dhadeva" format="1">
  <advance width="1476"/>
  <unicode hex="0927"/>
  <outline>
    <contour>
      <point x="801" y="658" type="line"/>
      <point x="774" y="658" type="line"/>
      <point x="599" y="658"/>
      <point x="535" y="580"/>
      <point x="535" y="505" type="curve" smooth="yes"/>
      <point x="535" y="436"/>
      <point x="597" y="387"/>
      <point x="687" y="387" type="curve" smooth="yes"/>
      <point x="842" y="387"/>
      <point x="981" y="482"/>
      <point x="1047" y="613" type="curve"/>
      <point x="1047" y="243" type="line"/>
      <point x="963" y="176"/>
      <point x="855" y="140"/>
      <point x="715" y="140" type="curve" smooth="yes"/>
      <point x="435" y="140"/>
      <point x="271" y="324"/>
      <point x="271" y="530" type="curve" smooth="yes"/>
      <point x="271" y="712"/>
      <point x="406" y="885"/>
      <point x="707" y="885" type="curve" smooth="yes"/>
      <point x="751" y="885" type="line"/>
    </contour>
    <contour>
      <point x="986" y="1131" type="line"/>
      <point x="1272" y="1131" type="line"/>
      <point x="1272" y="0" type="line"/>
      <point x="986" y="0" type="line"/>
    </contour>
    <contour>
      <point x="1506" y="1096" type="line"/>
      <point x="853" y="1096" type="line"/>
      <point x="853" y="1289" type="line"/>
      <point x="1506" y="1289" type="line"/>
    </contour>
    <contour>
      <point x="354" y="686" type="line"/>
      <point x="234" y="712"/>
      <point x="136" y="762"/>
      <point x="68" y="830" type="curve" smooth="yes"/>
      <point x="-1" y="898"/>
      <point x="-39" y="986"/>
      <point x="-39" y="1083" type="curve" smooth="yes"/>
      <point x="-39" y="1246"/>
      <point x="80" y="1385"/>
      <point x="299" y="1385" type="curve" smooth="yes"/>
      <point x="522" y="1385"/>
      <point x="648" y="1246"/>
      <point x="648" y="1089" type="curve" smooth="yes"/>
      <point x="648" y="921"/>
      <point x="494" y="799"/>
      <point x="286" y="799" type="curve"/>
      <point x="194" y="945" type="line"/>
      <point x="346" y="945"/>
      <point x="425" y="1019"/>
      <point x="425" y="1101" type="curve" smooth="yes"/>
      <point x="425" y="1153"/>
      <point x="388" y="1190"/>
      <point x="326" y="1190" type="curve" smooth="yes"/>
      <point x="252" y="1190"/>
      <point x="200" y="1128"/>
      <point x="200" y="1061" type="curve" smooth="yes"/>
      <point x="200" y="1022"/>
      <point x="213" y="987"/>
      <point x="244" y="956" type="curve" smooth="yes"/>
      <point x="297" y="903"/>
      <point x="402" y="865"/>
      <point x="582" y="856" type="curve"/>
    </contour>
    <contour>
      <point x="986" y="1289" type="move" name="top"/>
    </contour>
  </outline>
</glyph>
<glyph name="nadeva" format="1">
  <advance width="1299"/>
  <unicode hex="0928"/>
  <outline>
    <contour>
      <point x="839" y="831" type="line"/>
      <point x="839" y="596" type="line"/>
      <point x="392" y="596" type="line"/>
      <point x="446" y="647" type="line"/>
      <point x="446" y="402" type="line"/>
      <point x="446" y="326"/>
      <point x="407" y="282"/>
      <point x="349" y="282" type="curve" smooth="yes"/>
      <point x="309" y="282"/>
      <point x="268" y="302"/>
      <point x="221" y="349" type="curve" smooth="yes"/>
      <point x="158" y="413"/>
      <point x="80" y="561"/>
      <point x="80" y="686" type="curve" smooth="yes"/>
      <point x="80" y="778"/>
      <point x="129" y="831"/>
      <point x="240" y="831" type="curve" smooth="yes"/>
    </contour>
    <contour>
      <point x="-30" y="1096" type="line"/>
      <point x="-30" y="1289" type="line"/>
      <point x="1329" y="1289" type="line"/>
      <point x="1329" y="1096" type="line"/>
    </contour>
    <contour>
      <point x="808" y="1132" type="line"/>
      <point x="1094" y="1132" type="line"/>
      <point x="1094" y="0" type="line"/>
      <point x="808" y="0" type="line"/>
    </contour>
    <contour>
      <point x="808" y="1289" type="move" name="top"/>
    </contour>
  </outline>
</glyph>
<glyph name="padeva" format="1">
  <advance width="1258"/>
  <unicode hex="092A"/>
  <outline>
    <contour>
      <point x="1288" y="1096" type="line"/>
      <point x="-30" y="1096" type="line"/>
      <point x="-30" y="1289" type="line"/>
      <point x="1288" y="1289" type="line"/>
    </contour>
    <contour>
      <point x="412" y="1136" type="line"/>
      <point x="412" y="703" type="line"/>
      <point x="412" y="595"/>
      <point x="465" y="540"/>
      <point x="557" y="540" type="curve" smooth="yes"/>
      <point x="646" y="540"/>
      <point x="725" y="576"/>
      <point x="795" y="658" type="curve"/>
      <point x="795" y="342" type="line"/>
      <point x="739" y="323"/>
      <point x="666" y="309"/>
      <point x="590" y="309" type="curve" smooth="yes"/>
      <point x="312" y="309"/>
      <point x="126" y="472"/>
      <point x="126" y="760" type="curve" smooth="yes"/>
      <point x="126" y="1136" type="line"/>
    </contour>
    <contour>
      <point x="767" y="1132" type="line"/>
      <point x="1054" y="1132" type="line"/>
      <point x="1054" y="0" type="line"/>
      <point x="767" y="0" type="line"/>
    </contour>
    <contour>
      <point x="767" y="1289" type="move" name="top"/>
    </contour>
  </outline>
</glyph>
<glyph name="phadeva" format="1">
  <advance width="1692"/>
  <unicode hex="092B"/>
  <outline>
    <contour>
      <point x="423" y="1187" type="line"/>
      <point x="423" y="728" type="line"/>
      <point x="423" y="624"/>
      <point x="471" y="564"/>
      <point x="564" y="564" type="curve" smooth="yes"/>
      <point x="645" y="564"/>
      <point x="710" y="595"/>
      <point x="791" y="662" type="curve"/>
      <point x="791" y="372" type="line"/>
      <point x="735" y="352"/>
      <point x="673" y="341"/>
      <point x="604" y="341" type="curve" smooth="yes"/>
      <point x="318" y="341"/>
      <point x="134" y="521"/>
      <point x="134" y="794" type="curve" smooth="yes"/>
      <point x="134" y="1187" type="line"/>
    </contour>
    <contour>
      <point x="1013" y="440" type="curve"/>
      <point x="997" y="780" type="line"/>
      <point x="1065" y="796"/>
      <point x="1135" y="814"/>
      <point x="1237" y="814" type="curve" smooth="yes"/>
      <point x="1486" y="814"/>
      <point x="1648" y="651"/>
      <point x="1648" y="442" type="curve" smooth="yes"/>
      <point x="1648" y="315"/>
      <point x="1599" y="172"/>
      <point x="1517" y="71" type="curve"/>
      <point x="1286" y="160" type="line"/>
      <point x="1362" y="272"/>
      <point x="1403" y="369"/>
      <point x="1403" y="470" type="curve" smooth="yes"/>
      <point x="1403" y="539"/>
      <point x="1355" y="579"/>
      <point x="1281" y="579" type="curve" smooth="yes"/>
      <point x="1196" y="579"/>
      <point x="1093" y="533"/>
    </contour>
    <contour>
      <point x="-42" y="1096" type="line"/>
      <point x="-42" y="1288" type="line"/>
      <point x="1718" y="1288" type="line"/>
      <point x="1718" y="1096" type="line"/>
    </contour>
    <contour>
      <point x="760" y="1132" type="line"/>
      <point x="1048" y="1132" type="line"/>
      <point x="1048" y="0" type="line"/>
      <point x="760" y="0" type="line"/>
    </contour>
    <contour>
      <point x="865" y="8" type="move" name="x2"/>
    </contour>
    <contour>
      <point x="865" y="8" type="move" name="mark0"/>
    </contour>
    <contour>
      <point x="27" y="8" type="move" name="x43"/>
    </contour>
  </outline>
</glyph>
<glyph name="badeva" format="1">
  <advance width="1255"/>
  <unicode hex="092C"/>
  <outline>
    <contour>
      <point x="776" y="436" type="line"/>
      <point x="659" y="347" type="line"/>
      <point x="333" y="720" type="line"/>
      <point x="450" y="809" type="line"/>
    </contour>
    <contour>
      <point x="1285" y="1096" type="line"/>
      <point x="-30" y="1096" type="line"/>
      <point x="-30" y="1289" type="line"/>
      <point x="1285" y="1289" type="line"/>
    </contour>
    <contour>
      <point x="801" y="559" type="curve"/>
      <point x="800" y="261" type="line"/>
      <point x="735" y="216"/>
      <point x="649" y="188"/>
      <point x="548" y="188" type="curve" smooth="yes"/>
      <point x="261" y="188"/>
      <point x="76" y="391"/>
      <point x="76" y="623" type="curve" smooth="yes"/>
      <point x="76" y="817"/>
      <point x="231" y="951"/>
      <point x="470" y="951" type="curve" smooth="yes"/>
      <point x="617" y="951"/>
      <point x="741" y="926"/>
      <point x="849" y="881" type="curve"/>
      <point x="849" y="668" type="line"/>
      <point x="729" y="718"/>
      <point x="639" y="742"/>
      <point x="541" y="742" type="curve" smooth="yes"/>
      <point x="404" y="742"/>
      <point x="332" y="680"/>
      <point x="332" y="577" type="curve" smooth="yes"/>
      <point x="332" y="487"/>
      <point x="405" y="407"/>
      <point x="511" y="407" type="curve" smooth="yes"/>
      <point x="618" y="407"/>
      <point x="714" y="454"/>
    </contour>
    <contour>
      <point x="764" y="1133" type="line"/>
      <point x="1051" y="1133" type="line"/>
      <point x="1051" y="0" type="line"/>
      <point x="764" y="0" type="line"/>
    </contour>
    <contour>
      <point x="764" y="1289" type="move" name="top"/>
    </contour>
  </outline>
</glyph>
<glyph name="bhadeva" format="1">
  <advance width="1488"/>
  <unicode hex="092D"/>
  <outline>
    <contour>
      <point x="997" y="1132" type="line"/>
      <point x="1283" y="1132" type="line"/>
      <point x="1283" y="0" type="line"/>
      <point x="997" y="0" type="line"/>
    </contour>
    <contour>
      <point x="1518" y="1096" type="line"/>
      <point x="901" y="1096" type="line"/>
      <point x="901" y="1289" type="line"/>
      <point x="1518" y="1289" type="line"/>
    </contour>
    <contour>
      <point x="444" y="682" type="line"/>
      <point x="409" y="652" type="line"/>
      <point x="409" y="1000" type="line"/>
      <point x="409" y="1099"/>
      <point x="356" y="1158"/>
      <point x="284" y="1158" type="curve" smooth="yes"/>
      <point x="227" y="1158"/>
      <point x="191" y="1118"/>
      <point x="191" y="1068" type="curve" smooth="yes"/>
      <point x="191" y="998"/>
      <point x="251" y="941"/>
      <point x="430" y="938" type="curve"/>
      <point x="425" y="762" type="line"/>
      <point x="99" y="767"/>
      <point x="-56" y="912"/>
      <point x="-56" y="1101" type="curve" smooth="yes"/>
      <point x="-56" y="1236"/>
      <point x="39" y="1362"/>
      <point x="257" y="1362" type="curve" smooth="yes"/>
      <point x="500" y="1362"/>
      <point x="676" y="1200"/>
      <point x="676" y="964" type="curve" smooth="yes"/>
      <point x="676" y="643" type="line"/>
      <point x="643" y="682" type="line"/>
      <point x="1032" y="682" type="line"/>
      <point x="1032" y="447" type="line"/>
      <point x="631" y="447" type="line"/>
      <point x="676" y="489" type="line"/>
      <point x="676" y="358" type="line"/>
      <point x="676" y="284"/>
      <point x="648" y="239"/>
      <point x="576" y="239" type="curve" smooth="yes"/>
      <point x="508" y="239"/>
      <point x="412" y="284"/>
      <point x="343" y="354" type="curve" smooth="yes"/>
      <point x="277" y="419"/>
      <point x="227" y="508"/>
      <point x="227" y="581" type="curve" smooth="yes"/>
      <point x="227" y="640"/>
      <point x="264" y="682"/>
      <point x="338" y="682" type="curve" smooth="yes"/>
    </contour>
    <contour>
      <point x="997" y="1289" type="move" name="top"/>
    </contour>
  </outline>
</glyph>
<glyph name="madeva" format="1">
  <advance width="1343"/>
  <unicode hex="092E"/>
  <outline>
    <contour>
      <point x="-30" y="1096" type="line"/>
      <point x="-30" y="1289" type="line"/>
      <point x="1373" y="1289" type="line"/>
      <point x="1373" y="1096" type="line"/>
    </contour>
    <contour>
      <point x="852" y="1132" type="line"/>
      <point x="1139" y="1132" type="line"/>
      <point x="1139" y="0" type="line"/>
      <point x="852" y="0" type="line"/>
    </contour>
    <contour>
      <point x="60" y="581" type="curve" smooth="yes"/>
      <point x="60" y="640"/>
      <point x="96" y="682"/>
      <point x="171" y="682" type="curve" smooth="yes"/>
      <point x="257" y="682" type="line"/>
      <point x="223" y="652" type="line"/>
      <point x="223" y="1135" type="line"/>
      <point x="509" y="1135" type="line"/>
      <point x="509" y="643" type="line"/>
      <point x="477" y="682" type="line"/>
      <point x="903" y="682" type="line"/>
      <point x="903" y="447" type="line"/>
      <point x="464" y="447" type="line"/>
      <point x="509" y="489" type="line"/>
      <point x="509" y="358" type="line"/>
      <point x="509" y="284"/>
      <point x="481" y="239"/>
      <point x="409" y="239" type="curve" smooth="yes"/>
      <point x="341" y="239"/>
      <point x="245" y="284"/>
      <point x="176" y="354" type="curve" smooth="yes"/>
      <point x="110" y="419"/>
      <point x="60" y="508"/>
    </contour>
    <contour>
      <point x="852" y="1289" type="move" name="top"/>
    </contour>
  </outline>
</glyph>
<glyph name="yadeva" format="1">
  <advance width="1358"/>
  <unicode hex="092F"/>
  <outline>
    <contour>
      <point x="-16" y="1096" type="line"/>
      <point x="-16" y="1288" type="line"/>
      <point x="1378" y="1288" type="line"/>
      <point x="1378" y="1096" type="line"/>
    </contour>
    <contour>
      <point x="328" y="1130" type="line"/>
      <point x="617" y="1130" type="line"/>
      <point x="617" y="939" type="line"/>
      <point x="617" y="732"/>
      <point x="523" y="594"/>
      <point x="296" y="524" type="curve"/>
      <point x="297" y="605" type="line"/>
      <point x="369" y="512"/>
      <point x="466" y="448"/>
      <point x="580" y="448" type="curve" smooth="yes"/>
      <point x="727" y="448"/>
      <point x="851" y="534"/>
      <point x="914" y="667" type="curve"/>
      <point x="914" y="288" type="line"/>
      <point x="852" y="244"/>
      <point x="785" y="218"/>
      <point x="662" y="218" type="curve" smooth="yes"/>
      <point x="388" y="218"/>
      <point x="133" y="394"/>
      <point x="24" y="641" type="curve"/>
      <point x="24" y="647" type="line"/>
      <point x="247" y="725"/>
      <point x="328" y="825"/>
      <point x="328" y="962" type="curve" smooth="yes"/>
    </contour>
    <contour>
      <point x="867" y="1132" type="line"/>
      <point x="1155" y="1132" type="line"/>
      <point x="1155" y="0" type="line"/>
      <point x="867" y="0" type="line"/>
    </contour>
  </outline>
</glyph>
<glyph name="radeva" format="1">
  <advance width="960"/>
  <unicode hex="0930"/>
  <outline>
    <contour>
      <point x="796" y="85" type="line"/>
      <point x="589" y="-51" type="line"/>
      <point x="100" y="598" type="line"/>
      <point x="55" y="655"/>
      <point x="34" y="702"/>
      <point x="34" y="752" type="curve" smooth="yes"/>
      <point x="34" y="816"/>
      <point x="81" y="873"/>
      <point x="157" y="873" type="curve" smooth="yes"/>
      <point x="213" y="873"/>
      <point x="253" y="842"/>
      <point x="288" y="797" type="curve" smooth="yes"/>
      <point x="403" y="641" type="line"/>
      <point x="394" y="620" type="line"/>
    </contour>
    <contour>
      <point x="312" y="682" type="line"/>
      <point x="469" y="725"/>
      <point x="524" y="804"/>
      <point x="524" y="942" type="curve" smooth="yes"/>
      <point x="524" y="1147" type="line"/>
      <point x="810" y="1147" type="line"/>
      <point x="810" y="898" type="line"/>
      <point x="810" y="711"/>
      <point x="702" y="527"/>
      <point x="481" y="450" type="curve"/>
    </contour>
    <contour>
      <point x="-30" y="1096" type="line"/>
      <point x="-30" y="1289" type="line"/>
      <point x="990" y="1289" type="line"/>
      <point x="990" y="1096" type="line"/>
    </contour>
    <contour>
      <point x="450" y="36" type="move" name="btm"/>
    </contour>
    <contour>
      <point x="524" y="1289" type="move" name="top"/>
    </contour>
  </outline>
</glyph>
<glyph name="ladeva" format="1">
  <advance width="1589"/>
  <unicode hex="0932"/>
  <outline>
    <contour>
      <point x="991" y="646" type="curve"/>
      <point x="821" y="500" type="line"/>
      <point x="725" y="611"/>
      <point x="635" y="661"/>
      <point x="539" y="661" type="curve" smooth="yes"/>
      <point x="414" y="661"/>
      <point x="343" y="571"/>
      <point x="343" y="467" type="curve" smooth="yes"/>
      <point x="343" y="358"/>
      <point x="407" y="260"/>
      <point x="573" y="104" type="curve"/>
      <point x="370" y="-8" type="line"/>
      <point x="189" y="156"/>
      <point x="80" y="336"/>
      <point x="80" y="523" type="curve" smooth="yes"/>
      <point x="80" y="742"/>
      <point x="236" y="903"/>
      <point x="461" y="903" type="curve" smooth="yes"/>
      <point x="662" y="903"/>
      <point x="811" y="826"/>
    </contour>
    <contour>
      <point x="1098" y="1132" type="line"/>
      <point x="1385" y="1132" type="line"/>
      <point x="1385" y="0" type="line"/>
      <point x="1098" y="0" type="line"/>
    </contour>
    <contour>
      <point x="-30" y="1096" type="line"/>
      <point x="-30" y="1289" type="line"/>
      <point x="1619" y="1289" type="line"/>
      <point x="1619" y="1096" type="line"/>
    </contour>
    <contour>
      <point x="1195" y="979" type="line"/>
      <point x="1195" y="645" type="line"/>
      <point x="759" y="239" type="line"/>
      <point x="580" y="406" type="line"/>
    </contour>
    <contour>
      <point x="1098" y="1289" type="move" name="top"/>
    </contour>
  </outline>
</glyph>
<glyph name="llladeva" format="1">
  <advance width="1716"/>
  <unicode hex="0934"/>
  <outline>
    <component base="nuktadeva" xOffset="1107" yOffset="160"/>
    <component base="lladeva"/>
    <contour>
      <point x="1029" y="9" type="move" name="btm"/>
    </contour>
    <contour>
      <point x="1094" y="1289" type="move" name="top"/>
    </contour>
  </outline>
</glyph>
<glyph name="vadeva" format="1">
  <advance width="1255"/>
  <unicode hex="0935"/>
  <outline>
    <contour>
      <point x="1285" y="1096" type="line"/>
      <point x="-30" y="1096" type="line"/>
      <point x="-30" y="1289" type="line"/>
      <point x="1285" y="1289" type="line"/>
    </contour>
    <contour>
      <point x="801" y="563" type="curve"/>
      <point x="800" y="261" type="line"/>
      <point x="735" y="216"/>
      <point x="649" y="188"/>
      <point x="548" y="188" type="curve" smooth="yes"/>
      <point x="261" y="188"/>
      <point x="76" y="391"/>
      <point x="76" y="623" type="curve" smooth="yes"/>
      <point x="76" y="817"/>
      <point x="231" y="951"/>
      <point x="470" y="951" type="curve" smooth="yes"/>
      <point x="617" y="951"/>
      <point x="741" y="926"/>
      <point x="849" y="881" type="curve"/>
      <point x="849" y="667" type="line"/>
      <point x="729" y="717"/>
      <point x="641" y="738"/>
      <point x="543" y="738" type="curve" smooth="yes"/>
      <point x="406" y="738"/>
      <point x="341" y="666"/>
      <point x="341" y="575" type="curve" smooth="yes"/>
      <point x="341" y="485"/>
      <point x="411" y="410"/>
      <point x="511" y="410" type="curve" smooth="yes"/>
      <point x="618" y="410"/>
      <point x="708" y="458"/>
    </contour>
    <contour>
      <point x="764" y="1133" type="line"/>
      <point x="1051" y="1133" type="line"/>
      <point x="1051" y="0" type="line"/>
      <point x="764" y="0" type="line"/>
    </contour>
    <contour>
      <point x="764" y="1289" type="move" name="top"/>
    </contour>
  </outline>
</glyph>
<glyph name="shadeva" format="1">
  <advance width="1625"/>
  <unicode hex="0936"/>
  <outline>
    <contour>
      <point x="568" y="453" type="line"/>
      <point x="883" y="108" type="line"/>
      <point x="715" y="-44" type="line"/>
      <point x="356" y="343" type="line"/>
    </contour>
    <contour>
      <point x="273" y="272" type="curve" smooth="yes"/>
      <point x="154" y="272"/>
      <point x="108" y="344"/>
      <point x="108" y="437" type="curve" smooth="yes"/>
      <point x="108" y="544"/>
      <point x="180" y="650"/>
      <point x="283" y="650" type="curve" smooth="yes"/>
      <point x="358" y="650"/>
      <point x="417" y="607"/>
      <point x="494" y="528" type="curve"/>
      <point x="386" y="539" type="line"/>
      <point x="573" y="593"/>
      <point x="684" y="723"/>
      <point x="684" y="896" type="curve" smooth="yes"/>
      <point x="684" y="1011"/>
      <point x="599" y="1106"/>
      <point x="489" y="1106" type="curve" smooth="yes"/>
      <point x="421" y="1106"/>
      <point x="381" y="1062"/>
      <point x="381" y="1008" type="curve" smooth="yes"/>
      <point x="381" y="922"/>
      <point x="476" y="851"/>
      <point x="749" y="848" type="curve"/>
      <point x="681" y="670" type="line"/>
      <point x="277" y="698"/>
      <point x="135" y="859"/>
      <point x="135" y="1038" type="curve" smooth="yes"/>
      <point x="135" y="1185"/>
      <point x="244" y="1312"/>
      <point x="462" y="1312" type="curve" smooth="yes"/>
      <point x="730" y="1312"/>
      <point x="920" y="1135"/>
      <point x="920" y="861" type="curve" smooth="yes"/>
      <point x="920" y="514"/>
      <point x="533" y="272"/>
    </contour>
    <contour>
      <point x="1134" y="1132" type="line"/>
      <point x="1421" y="1132" type="line"/>
      <point x="1421" y="0" type="line"/>
      <point x="1134" y="0" type="line"/>
    </contour>
    <contour>
      <point x="1655" y="1096" type="line"/>
      <point x="980" y="1096" type="line"/>
      <point x="980" y="1289" type="line"/>
      <point x="1655" y="1289" type="line"/>
    </contour>
    <contour>
      <point x="1134" y="1289" type="move" name="top"/>
    </contour>
  </outline>
</glyph>
<glyph name="ssadeva" format="1">
  <advance width="1261"/>
  <unicode hex="0937"/>
  <outline>
    <contour>
      <point x="867" y="601" type="line"/>
      <point x="750" y="513" type="line"/>
      <point x="282" y="1081" type="line"/>
      <point x="399" y="1169" type="line"/>
    </contour>
    <contour>
      <point x="1288" y="1096" type="line"/>
      <point x="-30" y="1096" type="line"/>
      <point x="-30" y="1289" type="line"/>
      <point x="1288" y="1289" type="line"/>
    </contour>
    <contour>
      <point x="406" y="1181" type="line"/>
      <point x="406" y="704" type="line"/>
      <point x="406" y="596"/>
      <point x="465" y="540"/>
      <point x="557" y="540" type="curve" smooth="yes"/>
      <point x="646" y="540"/>
      <point x="725" y="570"/>
      <point x="795" y="647" type="curve"/>
      <point x="795" y="342" type="line"/>
      <point x="739" y="323"/>
      <point x="666" y="309"/>
      <point x="590" y="309" type="curve" smooth="yes"/>
      <point x="312" y="309"/>
      <point x="125" y="472"/>
      <point x="125" y="760" type="curve" smooth="yes"/>
      <point x="125" y="1181" type="line"/>
    </contour>
    <contour>
      <point x="767" y="1133" type="line"/>
      <point x="1054" y="1133" type="line"/>
      <point x="1054" y="0" type="line"/>
      <point x="767" y="0" type="line"/>
    </contour>
    <contour>
      <point x="767" y="1289" type="move" name="top"/>
    </contour>
  </outline>
</glyph>
<glyph name="sadeva" format="1">
  <advance width="1567"/>
  <unicode hex="0938"/>
  <outline>
    <contour>
      <point x="803" y="85" type="line"/>
      <point x="605" y="-46" type="line"/>
      <point x="145" y="558" type="line"/>
      <point x="73" y="651"/>
      <point x="46" y="702"/>
      <point x="46" y="756" type="curve" smooth="yes"/>
      <point x="46" y="818"/>
      <point x="101" y="867"/>
      <point x="166" y="867" type="curve" smooth="yes"/>
      <point x="231" y="867"/>
      <point x="275" y="828"/>
      <point x="346" y="731" type="curve" smooth="yes"/>
      <point x="408" y="645" type="line"/>
      <point x="398" y="626" type="line"/>
    </contour>
    <contour>
      <point x="262" y="686" type="line"/>
      <point x="404" y="729"/>
      <point x="461" y="804"/>
      <point x="461" y="949" type="curve" smooth="yes"/>
      <point x="461" y="1147" type="line"/>
      <point x="750" y="1147" type="line"/>
      <point x="750" y="905" type="line"/>
      <point x="750" y="718"/>
      <point x="644" y="556"/>
      <point x="416" y="464" type="curve"/>
    </contour>
    <contour>
      <point x="-34" y="1096" type="line"/>
      <point x="-34" y="1288" type="line"/>
      <point x="1589" y="1288" type="line"/>
      <point x="1589" y="1096" type="line"/>
    </contour>
    <contour>
      <point x="514" y="537" type="curve"/>
      <point x="622" y="732" type="line"/>
      <point x="703" y="702"/>
      <point x="791" y="688"/>
      <point x="857" y="688" type="curve" smooth="yes"/>
      <point x="944" y="688"/>
      <point x="1020" y="696"/>
      <point x="1102" y="719" type="curve"/>
      <point x="1102" y="474" type="line"/>
      <point x="1044" y="460"/>
      <point x="979" y="451"/>
      <point x="896" y="451" type="curve" smooth="yes"/>
      <point x="792" y="451"/>
      <point x="651" y="480"/>
    </contour>
    <contour>
      <point x="1076" y="1132" type="line"/>
      <point x="1365" y="1132" type="line"/>
      <point x="1365" y="0" type="line"/>
      <point x="1076" y="0" type="line"/>
    </contour>
  </outline>
</glyph>
<glyph name="hadeva" format="1">
  <advance width="1217"/>
  <unicode hex="0939"/>
  <outline>
    <contour>
      <point x="727" y="1114" type="line"/>
      <point x="1013" y="1114" type="line"/>
      <point x="1013" y="745" type="line"/>
      <point x="490" y="745" type="line"/>
      <point x="384" y="745"/>
      <point x="343" y="701"/>
      <point x="343" y="643" type="curve" smooth="yes"/>
      <point x="343" y="585"/>
      <point x="395" y="544"/>
      <point x="491" y="519" type="curve"/>
      <point x="306" y="370" type="line"/>
      <point x="145" y="461"/>
      <point x="67" y="568"/>
      <point x="67" y="697" type="curve" smooth="yes"/>
      <point x="67" y="834"/>
      <point x="170" y="939"/>
      <point x="387" y="939" type="curve" smooth="yes"/>
      <point x="766" y="939" type="line"/>
      <point x="727" y="890" type="line"/>
    </contour>
    <contour>
      <point x="649" y="585" type="curve" smooth="yes"/>
      <point x="968" y="585"/>
      <point x="1117" y="426"/>
      <point x="1117" y="253" type="curve" smooth="yes"/>
      <point x="1117" y="173"/>
      <point x="1097" y="113"/>
      <point x="1062" y="45" type="curve"/>
      <point x="829" y="89" type="line"/>
      <point x="855" y="137"/>
      <point x="868" y="178"/>
      <point x="868" y="231" type="curve" smooth="yes"/>
      <point x="868" y="301"/>
      <point x="807" y="369"/>
      <point x="670" y="369" type="curve" smooth="yes"/>
      <point x="530" y="370"/>
      <point x="442" y="268"/>
      <point x="442" y="168" type="curve" smooth="yes"/>
      <point x="442" y="26"/>
      <point x="558" y="-77"/>
      <point x="1008" y="-132" type="curve"/>
      <point x="934" y="-327" type="line"/>
      <point x="408" y="-266"/>
      <point x="173" y="-79"/>
      <point x="173" y="201" type="curve" smooth="yes"/>
      <point x="173" y="405"/>
      <point x="334" y="585"/>
    </contour>
    <contour>
      <point x="1247" y="1096" type="line"/>
      <point x="-30" y="1096" type="line"/>
      <point x="-30" y="1289" type="line"/>
      <point x="1247" y="1289" type="line"/>
    </contour>
    <contour>
      <point x="726" y="1289" type="move" name="top"/>
    </contour>
  </outline>
</glyph>
<glyph name="oevowelsigndevaKSH" format="1">
  <unicode hex="093A"/>
  <outline>
    <component base="udattadeva" yOffset="-259"/>
    <contour>
      <point x="-493" y="1288" type="move" name="_top"/>
    </contour>
  </outline>
</glyph>
<glyph name="avagrahadeva" format="1">
  <advance width="1163"/>
  <unicode hex="093D"/>
  <outline>
    <contour>
      <point x="1011" y="376" type="curve" smooth="yes"/>
      <point x="1011" y="160"/>
      <point x="844" y="33"/>
      <point x="615" y="33" type="curve" smooth="yes"/>
      <point x="440" y="33"/>
      <point x="268" y="77"/>
      <point x="89" y="193" type="curve"/>
      <point x="149" y="412" type="line"/>
      <point x="308" y="303"/>
      <point x="437" y="256"/>
      <point x="546" y="256" type="curve" smooth="yes"/>
      <point x="667" y="256"/>
      <point x="745" y="310"/>
      <point x="745" y="400" type="curve" smooth="yes"/>
      <point x="745" y="485"/>
      <point x="689" y="537"/>
      <point x="494" y="671" type="curve" smooth="yes"/>
      <point x="302" y="804"/>
      <point x="231" y="899"/>
      <point x="231" y="1035" type="curve" smooth="yes"/>
      <point x="231" y="1172"/>
      <point x="335" y="1289"/>
      <point x="577" y="1289" type="curve" smooth="yes"/>
      <point x="984" y="1289" type="line"/>
      <point x="984" y="1096" type="line"/>
      <point x="656" y="1096" type="line"/>
      <point x="553" y="1096"/>
      <point x="514" y="1056"/>
      <point x="514" y="994" type="curve" smooth="yes"/>
      <point x="513" y="937"/>
      <point x="556" y="893"/>
      <point x="723" y="781" type="curve" smooth="yes"/>
      <point x="930" y="641"/>
      <point x="1011" y="532"/>
    </contour>
  </outline>
</glyph>
<glyph name="iivowelsigndeva" format="1">
  <advance width="650"/>
  <unicode hex="0940"/>
  <outline>
    <contour>
      <point x="160" y="1239" type="line"/>
      <point x="73" y="1454"/>
      <point x="-64" y="1564"/>
      <point x="-185" y="1564" type="curve" smooth="yes"/>
      <point x="-268" y="1564"/>
      <point x="-309" y="1509"/>
      <point x="-309" y="1438" type="curve" smooth="yes"/>
      <point x="-309" y="1372"/>
      <point x="-276" y="1313"/>
      <point x="-224" y="1253" type="curve"/>
      <point x="-509" y="1253" type="line"/>
      <point x="-552" y="1329"/>
      <point x="-582" y="1405"/>
      <point x="-582" y="1505" type="curve" smooth="yes"/>
      <point x="-582" y="1653"/>
      <point x="-479" y="1808"/>
      <point x="-240" y="1808" type="curve" smooth="yes"/>
      <point x="48" y="1808"/>
      <point x="301" y="1613"/>
      <point x="446" y="1239" type="curve"/>
    </contour>
    <component base="aavowelsigndeva"/>
  </outline>
</glyph>
<glyph name="uvowelsigndeva" format="1">
  <unicode hex="0941"/>
  <outline>
    <contour>
      <point x="-699" y="-76" type="line"/>
      <point x="-606" y="-12"/>
      <point x="-505" y="36"/>
      <point x="-355" y="36" type="curve" smooth="yes"/>
      <point x="-131" y="36"/>
      <point x="-1" y="-105"/>
      <point x="-1" y="-299" type="curve" smooth="yes"/>
      <point x="-1" y="-495"/>
      <point x="-158" y="-623"/>
      <point x="-379" y="-623" type="curve" smooth="yes"/>
      <point x="-602" y="-623"/>
      <point x="-809" y="-543"/>
      <point x="-1027" y="-370" type="curve"/>
      <point x="-939" y="-181" type="line"/>
      <point x="-732" y="-354"/>
      <point x="-573" y="-415"/>
      <point x="-439" y="-415" type="curve" smooth="yes"/>
      <point x="-305" y="-415"/>
      <point x="-244" y="-359"/>
      <point x="-244" y="-284" type="curve" smooth="yes"/>
      <point x="-244" y="-220"/>
      <point x="-295" y="-175"/>
      <point x="-372" y="-175" type="curve" smooth="yes"/>
      <point x="-441" y="-175"/>
      <point x="-516" y="-207"/>
      <point x="-594" y="-264" type="curve"/>
    </contour>
    <contour>
      <point x="-493" y="0" type="move" name="_btm"/>
    </contour>
  </outline>
</glyph>
<glyph name="uuvowelsigndeva" format="1">
  <unicode hex="0942"/>
  <outline>
    <contour>
      <point x="-121" y="-581" type="line"/>
      <point x="-205" y="-610"/>
      <point x="-268" y="-618"/>
      <point x="-365" y="-618" type="curve" smooth="yes"/>
      <point x="-577" y="-618"/>
      <point x="-772" y="-485"/>
      <point x="-772" y="-270" type="curve" smooth="yes"/>
      <point x="-772" y="-117"/>
      <point x="-622" y="32"/>
      <point x="-389" y="32" type="curve" smooth="yes"/>
      <point x="-133" y="32"/>
      <point x="56" y="-104"/>
      <point x="295" y="-388" type="curve"/>
      <point x="158" y="-544" type="line"/>
      <point x="-77" y="-269"/>
      <point x="-217" y="-198"/>
      <point x="-361" y="-198" type="curve" smooth="yes"/>
      <point x="-468" y="-198"/>
      <point x="-521" y="-252"/>
      <point x="-521" y="-319" type="curve" smooth="yes"/>
      <point x="-521" y="-381"/>
      <point x="-473" y="-428"/>
      <point x="-377" y="-428" type="curve" smooth="yes"/>
      <point x="-319" y="-428"/>
      <point x="-268" y="-422"/>
      <point x="-187" y="-392" type="curve"/>
    </contour>
    <contour>
      <point x="-492" y="0" type="move" name="_btm"/>
    </contour>
  </outline>
</glyph>
<glyph name="rvocalicvowelsigndeva" format="1">
  <unicode hex="0943"/>
  <outline>
    <contour>
      <point x="-112" y="-515" type="line"/>
      <point x="-184" y="-541"/>
      <point x="-263" y="-557"/>
      <point x="-359" y="-557" type="curve" smooth="yes"/>
      <point x="-564" y="-557"/>
      <point x="-745" y="-444"/>
      <point x="-745" y="-249" type="curve" smooth="yes"/>
      <point x="-745" y="-78"/>
      <point x="-599" y="41"/>
      <point x="-372" y="41" type="curve" smooth="yes"/>
      <point x="-313" y="41"/>
      <point x="-267" y="38"/>
      <point x="-204" y="33" type="curve"/>
      <point x="-204" y="-132" type="line"/>
      <point x="-239" y="-132"/>
      <point x="-288" y="-132"/>
      <point x="-324" y="-132" type="curve" smooth="yes"/>
      <point x="-452" y="-132"/>
      <point x="-512" y="-194"/>
      <point x="-512" y="-268" type="curve" smooth="yes"/>
      <point x="-512" y="-333"/>
      <point x="-456" y="-378"/>
      <point x="-364" y="-378" type="curve" smooth="yes"/>
      <point x="-291" y="-378"/>
      <point x="-227" y="-362"/>
      <point x="-143" y="-329" type="curve"/>
    </contour>
    <contour>
      <point x="-492" y="0" type="move" name="_btm"/>
    </contour>
  </outline>
</glyph>
<glyph name="rrvocalicvowelsigndeva" format="1">
  <advance width="0"/>
  <unicode hex="0944"/>
  <outline>
    <contour>
      <point x="-55" y="-725" type="line"/>
      <point x="-119" y="-748"/>
      <point x="-213" y="-768"/>
      <point x="-291" y="-768" type="curve" smooth="yes"/>
      <point x="-510" y="-768"/>
      <point x="-595" y="-656"/>
      <point x="-595" y="-544" type="curve" smooth="yes"/>
      <point x="-595" y="-407"/>
      <point x="-459" y="-312"/>
      <point x="-248" y="-312" type="curve"/>
      <point x="-209" y="-423" type="line"/>
      <point x="-315" y="-425"/>
      <point x="-372" y="-478"/>
      <point x="-372" y="-535" type="curve" smooth="yes"/>
      <point x="-372" y="-579"/>
      <point x="-343" y="-615"/>
      <point x="-262" y="-615" type="curve" smooth="yes"/>
      <point x="-208" y="-615"/>
      <point x="-161" y="-604"/>
      <point x="-86" y="-575" type="curve"/>
    </contour>
    <contour>
      <point x="-131" y="-428" type="line"/>
      <point x="-222" y="-450"/>
      <point x="-283" y="-457"/>
      <point x="-358" y="-457" type="curve" smooth="yes"/>
      <point x="-588" y="-457"/>
      <point x="-719" y="-343"/>
      <point x="-719" y="-197" type="curve" smooth="yes"/>
      <point x="-719" y="-65"/>
      <point x="-578" y="42"/>
      <point x="-357" y="42" type="curve" smooth="yes"/>
      <point x="-284" y="42"/>
      <point x="-243" y="32"/>
      <point x="-202" y="23" type="curve"/>
      <point x="-202" y="-117" type="line"/>
      <point x="-237" y="-117"/>
      <point x="-274" y="-117"/>
      <point x="-311" y="-117" type="curve" smooth="yes"/>
      <point x="-423" y="-117"/>
      <point x="-466" y="-166"/>
      <point x="-466" y="-210" type="curve" smooth="yes"/>
      <point x="-466" y="-257"/>
      <point x="-430" y="-296"/>
      <point x="-351" y="-296" type="curve" smooth="yes"/>
      <point x="-297" y="-296"/>
      <point x="-257" y="-290"/>
      <point x="-164" y="-264" type="curve"/>
    </contour>
    <contour>
      <point x="-403" y="-3" type="move" name="_mark0"/>
    </contour>
  </outline>
</glyph>
<glyph name="eshortvowelsigndeva" format="1">
  <unicode hex="0946"/>
  <outline>
    <contour>
      <point x="-493" y="1244" type="line"/>
      <point x="-493" y="1341" type="line"/>
      <point x="-493" y="1413"/>
      <point x="-528" y="1455"/>
      <point x="-603" y="1455" type="curve" smooth="yes"/>
      <point x="-673" y="1455"/>
      <point x="-736" y="1416"/>
      <point x="-861" y="1416" type="curve" smooth="yes"/>
      <point x="-1002" y="1416"/>
      <point x="-1099" y="1479"/>
      <point x="-1189" y="1593" type="curve"/>
      <point x="-1085" y="1759" type="line"/>
      <point x="-994" y="1668"/>
      <point x="-937" y="1639"/>
      <point x="-868" y="1639" type="curve" smooth="yes"/>
      <point x="-766" y="1639"/>
      <point x="-670" y="1695"/>
      <point x="-518" y="1695" type="curve" smooth="yes"/>
      <point x="-347" y="1695"/>
      <point x="-237" y="1574"/>
      <point x="-237" y="1378" type="curve" smooth="yes"/>
      <point x="-237" y="1244" type="line"/>
    </contour>
    <contour>
      <point x="-493" y="1289" type="move" name="_top"/>
    </contour>
  </outline>
</glyph>
<glyph name="evowelsigndeva" format="1">
  <advance width="0"/>
  <unicode hex="0947"/>
  <outline>
    <contour>
      <point x="-510" y="1244" type="line"/>
      <point x="-940" y="1659" type="line"/>
      <point x="-704" y="1785" type="line"/>
      <point x="-196" y="1244" type="line"/>
    </contour>
    <contour>
      <point x="49" y="8" type="move" name="x14"/>
    </contour>
    <contour>
      <point x="-424" y="1282" type="move" name="_mark0"/>
    </contour>
  </outline>
</glyph>
<glyph name="aivowelsigndeva" format="1">
  <unicode hex="0948"/>
  <outline>
    <contour>
      <point x="-818" y="1244" type="line"/>
      <point x="-1272" y="1602" type="line"/>
      <point x="-1076" y="1772" type="line"/>
      <point x="-456" y="1244" type="line"/>
    </contour>
    <contour>
      <point x="-468" y="1244" type="line"/>
      <point x="-703" y="1808" type="line"/>
      <point x="-449" y="1881" type="line"/>
      <point x="-208" y="1244" type="line"/>
    </contour>
    <contour>
      <point x="-493" y="1289" type="move" name="_top"/>
    </contour>
  </outline>
</glyph>
<glyph name="viramadeva" format="1">
  <unicode hex="094D"/>
  <outline>
    <contour>
      <point x="-457" y="-60" type="line"/>
      <point x="121" y="-318" type="line"/>
      <point x="33" y="-521" type="line"/>
      <point x="-546" y="-262" type="line"/>
    </contour>
    <contour>
      <point x="-493" y="0" type="move" name="_btm"/>
    </contour>
  </outline>
</glyph>
<glyph name="awvowelsigndevaKSH" format="1">
  <advance width="650"/>
  <unicode hex="094F"/>
  <outline>
    <contour>
      <point x="235" y="1217" type="line"/>
      <point x="235" y="1505" type="line"/>
      <point x="235" y="1564"/>
      <point x="207" y="1600"/>
      <point x="121" y="1600" type="curve" smooth="yes"/>
      <point x="61" y="1600"/>
      <point x="11" y="1568"/>
      <point x="-96" y="1568" type="curve" smooth="yes"/>
      <point x="-217" y="1568"/>
      <point x="-303" y="1621"/>
      <point x="-380" y="1715" type="curve"/>
      <point x="-291" y="1853" type="line"/>
      <point x="-213" y="1777"/>
      <point x="-159" y="1753"/>
      <point x="-102" y="1753" type="curve" smooth="yes"/>
      <point x="-15" y="1753"/>
      <point x="63" y="1797"/>
      <point x="193" y="1797" type="curve" smooth="yes"/>
      <point x="343" y="1797"/>
      <point x="446" y="1699"/>
      <point x="446" y="1535" type="curve" smooth="yes"/>
      <point x="446" y="1217" type="line"/>
    </contour>
    <contour>
      <point x="96" y="1175" type="line"/>
      <point x="40" y="1292" type="line"/>
      <point x="9" y="1356"/>
      <point x="-31" y="1392"/>
      <point x="-108" y="1392" type="curve" smooth="yes"/>
      <point x="-178" y="1392"/>
      <point x="-238" y="1361"/>
      <point x="-352" y="1361" type="curve" smooth="yes"/>
      <point x="-484" y="1361"/>
      <point x="-587" y="1420"/>
      <point x="-677" y="1517" type="curve"/>
      <point x="-583" y="1646" type="line"/>
      <point x="-497" y="1569"/>
      <point x="-430" y="1542"/>
      <point x="-359" y="1542" type="curve" smooth="yes"/>
      <point x="-256" y="1542"/>
      <point x="-175" y="1585"/>
      <point x="-75" y="1585" type="curve" smooth="yes"/>
      <point x="107" y="1585"/>
      <point x="174" y="1524"/>
      <point x="249" y="1336" type="curve" smooth="yes"/>
      <point x="318" y="1175" type="line"/>
    </contour>
    <component base="aavowelsigndeva"/>
  </outline>
</glyph>
<glyph name="omdeva" format="1">
  <advance width="2041"/>
  <unicode hex="0950"/>
  <outline>
    <contour>
      <point x="362" y="601" type="line"/>
      <point x="311" y="816" type="line"/>
      <point x="323" y="817" type="line"/>
      <point x="611" y="832"/>
      <point x="672" y="894"/>
      <point x="672" y="984" type="curve" smooth="yes"/>
      <point x="672" y="1042"/>
      <point x="630" y="1085"/>
      <point x="535" y="1085" type="curve" smooth="yes"/>
      <point x="445" y="1085"/>
      <point x="353" y="1055"/>
      <point x="243" y="998" type="curve"/>
      <point x="177" y="1214" type="line"/>
      <point x="290" y="1267"/>
      <point x="403" y="1297"/>
      <point x="545" y="1297" type="curve" smooth="yes"/>
      <point x="801" y="1297"/>
      <point x="929" y="1153"/>
      <point x="929" y="954" type="curve" smooth="yes"/>
      <point x="929" y="748"/>
      <point x="747" y="623"/>
      <point x="383" y="602" type="curve" smooth="yes"/>
    </contour>
    <contour>
      <point x="721" y="783" type="line"/>
      <point x="867" y="718"/>
      <point x="983" y="597"/>
      <point x="983" y="429" type="curve" smooth="yes"/>
      <point x="983" y="248"/>
      <point x="843" y="99"/>
      <point x="604" y="99" type="curve" smooth="yes"/>
      <point x="445" y="99"/>
      <point x="312" y="146"/>
      <point x="127" y="260" type="curve"/>
      <point x="184" y="470" type="line"/>
      <point x="332" y="364"/>
      <point x="422" y="331"/>
      <point x="526" y="331" type="curve" smooth="yes"/>
      <point x="647" y="331"/>
      <point x="718" y="394"/>
      <point x="718" y="486" type="curve" smooth="yes"/>
      <point x="718" y="558"/>
      <point x="662" y="631"/>
      <point x="568" y="665" type="curve"/>
    </contour>
    <contour>
      <point x="1245" y="859" type="curve" smooth="yes"/>
      <point x="1253" y="962"/>
      <point x="1320" y="1096"/>
      <point x="1502" y="1041" type="curve" smooth="yes"/>
      <point x="1703" y="998"/>
      <point x="1788" y="802"/>
      <point x="1744" y="639" type="curve" smooth="yes"/>
      <point x="1734" y="483"/>
      <point x="1610" y="343"/>
      <point x="1413" y="344" type="curve"/>
      <point x="1278" y="344"/>
      <point x="1176" y="419"/>
      <point x="1066" y="508" type="curve"/>
      <point x="1068" y="507"/>
      <point x="1168" y="651"/>
      <point x="1177" y="651" type="curve" smooth="yes"/>
      <point x="1272" y="601"/>
      <point x="1362" y="582"/>
      <point x="1448" y="629" type="curve" smooth="yes"/>
      <point x="1545" y="694"/>
      <point x="1639" y="777"/>
      <point x="1680" y="848" type="curve" smooth="yes"/>
      <point x="1732" y="902"/>
      <point x="1742" y="886"/>
      <point x="1704" y="821" type="curve" smooth="yes"/>
      <point x="1660" y="760"/>
      <point x="1568" y="681"/>
      <point x="1487" y="607" type="curve" smooth="yes"/>
      <point x="1374" y="427"/>
      <point x="1256" y="346"/>
      <point x="1096" y="385" type="curve"/>
      <point x="1022" y="385"/>
      <point x="990" y="408"/>
      <point x="940" y="421" type="curve"/>
      <point x="980" y="382"/>
      <point x="983" y="561"/>
      <point x="1009" y="561" type="curve" smooth="yes"/>
      <point x="1105" y="546"/>
      <point x="1167" y="561"/>
      <point x="1201" y="617" type="curve" smooth="yes"/>
      <point x="1244" y="664"/>
      <point x="1242" y="755"/>
    </contour>
    <component base="candrabindudeva" xOffset="1515" yOffset="-54"/>
  </outline>
</glyph>
<glyph name="candralongevowelsigndeva" format="1">
  <unicode hex="0955"/>
  <outline>
    <component base="ecandravowelsigndeva" yScale="0.886405229878" xOffset="-295" yOffset="386"/>
    <component base="anudattadeva" xOffset="-20" yOffset="1675"/>
    <contour>
      <point x="-493" y="1289" type="move" name="_top"/>
    </contour>
  </outline>
</glyph>
<glyph name="uevowelsigndevaKSH" format="1">
  <unicode hex="0956"/>
  <outline>
    <contour>
      <point x="144" y="-240" type="line"/>
      <point x="17" y="-360"/>
      <point x="-142" y="-420"/>
      <point x="-338" y="-420" type="curve" smooth="yes"/>
      <point x="-529" y="-420"/>
      <point x="-686" y="-362"/>
      <point x="-838" y="-243" type="curve"/>
      <point x="-778" y="-61" type="line"/>
      <point x="-647" y="-163"/>
      <point x="-506" y="-213"/>
      <point x="-339" y="-213" type="curve" smooth="yes"/>
      <point x="-181" y="-213"/>
      <point x="-43" y="-159"/>
      <point x="72" y="-61" type="curve"/>
    </contour>
    <contour>
      <point x="-493" y="0" type="move" name="_btm"/>
    </contour>
  </outline>
</glyph>
<glyph name="uuevowelsigndevaKSH" format="1">
  <advance width="0"/>
  <unicode hex="0957"/>
  <outline>
    <component base="uevowelsigndevaKSH" yScale="0.905683180506" yOffset="-5"/>
    <component base="uevowelsigndevaKSH" xScale="1.05477549783" yScale="0.868622096754" xOffset="26" yOffset="-325"/>
    <contour>
      <point x="-493" y="0" type="move" name="_btm"/>
    </contour>
  </outline>
</glyph>
<glyph name="qadeva" format="1">
  <advance width="1595"/>
  <unicode hex="0958"/>
  <outline>
    <component base="kadeva"/>
    <component base="nuktadeva" xOffset="1038" yOffset="259"/>
    <contour>
      <point x="886" y="0" type="move" name="mark0"/>
    </contour>
  </outline>
</glyph>
<glyph name="dddhadeva" format="1">
  <advance width="1229"/>
  <unicode hex="095C"/>
  <outline>
    <component base="ddadeva"/>
    <component base="nuktadeva" xOffset="1489" yOffset="44"/>
    <contour>
      <point x="498" y="-474" type="move" name="btm"/>
    </contour>
    <contour>
      <point x="712" y="1288" type="move" name="top"/>
    </contour>
  </outline>
</glyph>
<glyph name="llvocalicdeva" format="1">
  <advance width="1554"/>
  <unicode hex="0961"/>
  <outline>
    <contour>
      <point x="960" y="635" type="curve"/>
      <point x="792" y="497" type="line"/>
      <point x="702" y="625"/>
      <point x="625" y="678"/>
      <point x="515" y="678" type="curve" smooth="yes"/>
      <point x="416" y="678"/>
      <point x="353" y="601"/>
      <point x="353" y="507" type="curve" smooth="yes"/>
      <point x="353" y="398"/>
      <point x="410" y="304"/>
      <point x="564" y="166" type="curve"/>
      <point x="367" y="57" type="line"/>
      <point x="181" y="219"/>
      <point x="80" y="400"/>
      <point x="80" y="571" type="curve" smooth="yes"/>
      <point x="80" y="767"/>
      <point x="209" y="919"/>
      <point x="445" y="919" type="curve" smooth="yes"/>
      <point x="651" y="919"/>
      <point x="810" y="810"/>
    </contour>
    <contour>
      <point x="1574" y="1096" type="line"/>
      <point x="-24" y="1096" type="line"/>
      <point x="-24" y="1288" type="line"/>
      <point x="1574" y="1288" type="line"/>
    </contour>
    <contour>
      <point x="978" y="1132" type="line"/>
      <point x="1267" y="1132" type="line"/>
      <point x="1267" y="800" type="line"/>
      <point x="978" y="800" type="line"/>
    </contour>
    <contour>
      <point x="1276" y="375" type="curve"/>
      <point x="1149" y="274" type="line"/>
      <point x="1204" y="345"/>
      <point x="1231" y="444"/>
      <point x="1231" y="520" type="curve" smooth="yes"/>
      <point x="1231" y="591"/>
      <point x="1184" y="637"/>
      <point x="1102" y="637" type="curve" smooth="yes"/>
      <point x="1000" y="637"/>
      <point x="905" y="534"/>
      <point x="857" y="321" type="curve"/>
      <point x="612" y="408" type="line"/>
      <point x="672" y="666"/>
      <point x="804" y="874"/>
      <point x="1084" y="877" type="curve" smooth="yes"/>
      <point x="1315" y="879"/>
      <point x="1481" y="707"/>
      <point x="1481" y="498" type="curve" smooth="yes"/>
      <point x="1481" y="407"/>
      <point x="1456" y="308"/>
      <point x="1410" y="220" type="curve"/>
      <point x="1402" y="220"/>
      <point x="1390" y="220"/>
      <point x="1383" y="220" type="curve" smooth="yes"/>
      <point x="1264" y="220"/>
      <point x="1223" y="167"/>
      <point x="1223" y="120" type="curve" smooth="yes"/>
      <point x="1223" y="73"/>
      <point x="1259" y="34"/>
      <point x="1338" y="34" type="curve" smooth="yes"/>
      <point x="1392" y="34"/>
      <point x="1433" y="40"/>
      <point x="1525" y="66" type="curve"/>
      <point x="1558" y="-98" type="line"/>
      <point x="1467" y="-120"/>
      <point x="1406" y="-127"/>
      <point x="1331" y="-127" type="curve" smooth="yes"/>
      <point x="1101" y="-127"/>
      <point x="970" y="-13"/>
      <point x="970" y="133" type="curve" smooth="yes"/>
      <point x="970" y="258"/>
      <point x="1083" y="357"/>
    </contour>
    <contour>
      <point x="1634" y="-395" type="line"/>
      <point x="1570" y="-418"/>
      <point x="1476" y="-438"/>
      <point x="1399" y="-438" type="curve" smooth="yes"/>
      <point x="1179" y="-438"/>
      <point x="1094" y="-326"/>
      <point x="1094" y="-214" type="curve" smooth="yes"/>
      <point x="1094" y="-76"/>
      <point x="1230" y="18"/>
      <point x="1442" y="18" type="curve"/>
      <point x="1480" y="-93" type="line"/>
      <point x="1374" y="-95"/>
      <point x="1317" y="-148"/>
      <point x="1317" y="-204" type="curve" smooth="yes"/>
      <point x="1317" y="-249"/>
      <point x="1346" y="-284"/>
      <point x="1428" y="-284" type="curve" smooth="yes"/>
      <point x="1482" y="-284"/>
      <point x="1528" y="-274"/>
      <point x="1603" y="-245" type="curve"/>
    </contour>
    <contour>
      <point x="1087" y="1271" type="move" name="mark0"/>
    </contour>
  </outline>
</glyph>
<glyph name="lvocalicvowelsigndeva" format="1">
  <unicode hex="0962"/>
  <outline>
    <contour>
      <point x="-282" y="-87" type="curve"/>
      <point x="-393" y="-185" type="line"/>
      <point x="-441" y="-116"/>
      <point x="-492" y="-81"/>
      <point x="-546" y="-81" type="curve" smooth="yes"/>
      <point x="-601" y="-81"/>
      <point x="-639" y="-121"/>
      <point x="-639" y="-170" type="curve" smooth="yes"/>
      <point x="-639" y="-224"/>
      <point x="-610" y="-275"/>
      <point x="-510" y="-353" type="curve"/>
      <point x="-636" y="-438" type="line"/>
      <point x="-761" y="-342"/>
      <point x="-816" y="-240"/>
      <point x="-816" y="-138" type="curve" smooth="yes"/>
      <point x="-816" y="-21"/>
      <point x="-731" y="79"/>
      <point x="-582" y="79" type="curve" smooth="yes"/>
      <point x="-458" y="79"/>
      <point x="-369" y="23"/>
    </contour>
    <contour>
      <point x="-96" y="-239" type="curve"/>
      <point x="-163" y="-295" type="line"/>
      <point x="-122" y="-247"/>
      <point x="-102" y="-206"/>
      <point x="-102" y="-162" type="curve" smooth="yes"/>
      <point x="-102" y="-121"/>
      <point x="-129" y="-88"/>
      <point x="-178" y="-88" type="curve" smooth="yes"/>
      <point x="-246" y="-88"/>
      <point x="-301" y="-158"/>
      <point x="-328" y="-277" type="curve"/>
      <point x="-485" y="-222" type="line"/>
      <point x="-448" y="-40"/>
      <point x="-342" y="72"/>
      <point x="-185" y="72" type="curve" smooth="yes"/>
      <point x="-39" y="72"/>
      <point x="51" y="-31"/>
      <point x="51" y="-152" type="curve" smooth="yes"/>
      <point x="51" y="-221"/>
      <point x="33" y="-282"/>
      <point x="4" y="-336" type="curve"/>
      <point x="-87" y="-337"/>
      <point x="-124" y="-365"/>
      <point x="-124" y="-397" type="curve" smooth="yes"/>
      <point x="-124" y="-428"/>
      <point x="-105" y="-448"/>
      <point x="-56" y="-448" type="curve" smooth="yes"/>
      <point x="-22" y="-448"/>
      <point x="6" y="-439"/>
      <point x="52" y="-418" type="curve"/>
      <point x="70" y="-537" type="line"/>
      <point x="22" y="-556"/>
      <point x="-15" y="-562"/>
      <point x="-65" y="-562" type="curve" smooth="yes"/>
      <point x="-192" y="-562"/>
      <point x="-275" y="-488"/>
      <point x="-275" y="-401" type="curve" smooth="yes"/>
      <point x="-275" y="-318"/>
      <point x="-212" y="-253"/>
    </contour>
    <contour>
      <point x="-493" y="0" type="move" name="_btm"/>
    </contour>
  </outline>
</glyph>
